{
	"asset":{
		"generator":"Khronos glTF Blender I/O v4.2.57",
		"version":"2.0"
	},
	"extensionsUsed":[
		"KHR_materials_specular"
	],
	"scene":0,
	"scenes":[
		{
			"name":"Scene",
			"nodes":[
				0
			]
		}
	],
	"nodes":[
		{
			"mesh":0,
			"name":"High-Line_2D",
			"rotation":[
				0.7071068286895752,
				0,
				0,
				0.7071068286895752
			]
		}
	],
	"materials":[
		{
			"doubleSided":true,
			"extensions":{
				"KHR_materials_specular":{
					"specularColorFactor":[
						2.0,
						2.0,
						2.0
					]
				}
			},
			"name":"Plaster",
			"pbrMetallicRoughness":{
				"baseColorFactor":[
					0,
					0,
					0,
					1
				],
				"metallicFactor":0
			}
		}
	],
	"meshes":[
		{
			"name":"High-Line_2D",
			"primitives":[
				{
					"attributes":{
						"POSITION":0,
						"NORMAL":1,
						"TEXCOORD_0":2
					},
					"indices":3,
					"material":0
				}
			]
		}
	],
	"accessors":[
		{
			"bufferView":0,
			"componentType":5126,
			"count":5154,
			"max":[
				622.8278198242188,
				0,
				0
			],
			"min":[
				-13.041573524475098,
				-1891.48779296875,
				0
			],
			"type":"VEC3"
		},
		{
			"bufferView":1,
			"componentType":5126,
			"count":5154,
			"type":"VEC3"
		},
		{
			"bufferView":2,
			"componentType":5126,
			"count":5154,
			"type":"VEC2"
		},
		{
			"bufferView":3,
			"componentType":5123,
			"count":27612,
			"type":"SCALAR"
		}
	],
	"bufferViews":[
		{
			"buffer":0,
			"byteLength":61848,
			"byteOffset":0,
			"target":34962
		},
		{
			"buffer":0,
			"byteLength":61848,
			"byteOffset":61848,
			"target":34962
		},
		{
			"buffer":0,
			"byteLength":41232,
			"byteOffset":123696,
			"target":34962
		},
		{
			"buffer":0,
			"byteLength":55224,
			"byteOffset":164928,
			"target":34963
		}
	],
	"buffers":[
		{
			"byteLength":220152,
			"uri":"High-Line_2D.bin"
		}
	]
}
