{
	"asset":{
		"generator":"Khronos glTF Blender I/O v4.2.57",
		"version":"2.0"
	},
	"extensionsUsed":[
		"EXT_texture_webp"
	],
	"extensionsRequired":[
		"EXT_texture_webp"
	],
	"scene":0,
	"scenes":[
		{
			"name":"Scene",
			"nodes":[
				0
			]
		}
	],
	"nodes":[
		{
			"mesh":0,
			"name":"Aset_metal_M_tewscfuda_LOD5",
			"rotation":[
				0.7071068286895752,
				0,
				0,
				0.7071068286895752
			],
			"scale":[
				0.009999999776482582,
				0.009999999776482582,
				0.009999999776482582
			]
		}
	],
	"materials":[
		{
			"doubleSided":true,
			"name":"Material.001",
			"normalTexture":{
				"index":0
			},
			"pbrMetallicRoughness":{
				"baseColorTexture":{
					"index":1
				},
				"metallicFactor":0,
				"metallicRoughnessTexture":{
					"index":2
				}
			}
		}
	],
	"meshes":[
		{
			"name":"Aset_metal_M_tewscfuda_LOD5",
			"primitives":[
				{
					"attributes":{
						"POSITION":0,
						"NORMAL":1,
						"TEXCOORD_0":2
					},
					"indices":3,
					"material":0
				}
			]
		}
	],
	"textures":[
		{
			"extensions":{
				"EXT_texture_webp":{
					"source":0
				}
			},
			"sampler":0
		},
		{
			"extensions":{
				"EXT_texture_webp":{
					"source":1
				}
			},
			"sampler":0
		},
		{
			"extensions":{
				"EXT_texture_webp":{
					"source":2
				}
			},
			"sampler":0
		}
	],
	"images":[
		{
			"mimeType":"image/webp",
			"name":"tewscfuda_2K_Normal_LOD5",
			"uri":"tewscfuda_2K_Normal_LOD5.webp"
		},
		{
			"mimeType":"image/webp",
			"name":"tewscfuda_2K_Albedo_LOD5",
			"uri":"tewscfuda_2K_Albedo_LOD5.webp"
		},
		{
			"mimeType":"image/webp",
			"name":"tewscfuda_2K_Roughness",
			"uri":"tewscfuda_2K_Roughness.webp"
		}
	],
	"accessors":[
		{
			"bufferView":0,
			"componentType":5126,
			"count":87,
			"max":[
				32.381309509277344,
				34.95258712768555,
				-0.7037079930305481
			],
			"min":[
				-29.61868667602539,
				-33.97051239013672,
				-90.0343017578125
			],
			"type":"VEC3"
		},
		{
			"bufferView":1,
			"componentType":5126,
			"count":87,
			"type":"VEC3"
		},
		{
			"bufferView":2,
			"componentType":5126,
			"count":87,
			"type":"VEC2"
		},
		{
			"bufferView":3,
			"componentType":5123,
			"count":300,
			"type":"SCALAR"
		}
	],
	"bufferViews":[
		{
			"buffer":0,
			"byteLength":1044,
			"byteOffset":0,
			"target":34962
		},
		{
			"buffer":0,
			"byteLength":1044,
			"byteOffset":1044,
			"target":34962
		},
		{
			"buffer":0,
			"byteLength":696,
			"byteOffset":2088,
			"target":34962
		},
		{
			"buffer":0,
			"byteLength":600,
			"byteOffset":2784,
			"target":34963
		}
	],
	"samplers":[
		{
			"magFilter":9729,
			"minFilter":9987
		}
	],
	"buffers":[
		{
			"byteLength":3384,
			"uri":"test2.bin"
		}
	]
}
