{
	"asset":{
		"generator":"Khronos glTF Blender I/O v4.2.57",
		"version":"2.0"
	},
	"scene":0,
	"scenes":[
		{
			"name":"Scene",
			"nodes":[
				0,
				1
			]
		}
	],
	"nodes":[
		{
			"mesh":0,
			"name":"Mesh_0"
		},
		{
			"mesh":1,
			"name":"Mesh_0.001"
		}
	],
	"animations":[
		{
			"channels":[
				{
					"sampler":0,
					"target":{
						"node":1,
						"path":"translation"
					}
				},
				{
					"sampler":1,
					"target":{
						"node":1,
						"path":"rotation"
					}
				},
				{
					"sampler":2,
					"target":{
						"node":1,
						"path":"scale"
					}
				}
			],
			"name":"Mesh_0.001Action",
			"samplers":[
				{
					"input":8,
					"interpolation":"LINEAR",
					"output":9
				},
				{
					"input":10,
					"interpolation":"STEP",
					"output":11
				},
				{
					"input":10,
					"interpolation":"STEP",
					"output":12
				}
			]
		}
	],
	"materials":[
		{
			"name":"Material_0",
			"pbrMetallicRoughness":{
				"baseColorFactor":[
					0.7450980544090271,
					0.7450980544090271,
					0.7450980544090271,
					1
				]
			}
		},
		{
			"name":"Material_0.001",
			"pbrMetallicRoughness":{
				"baseColorFactor":[
					1,
					0.7490196228027344,
					1,
					1
				]
			}
		}
	],
	"meshes":[
		{
			"name":"Mesh_0",
			"primitives":[
				{
					"attributes":{
						"POSITION":0,
						"NORMAL":1,
						"TEXCOORD_0":2
					},
					"indices":3,
					"material":0
				}
			]
		},
		{
			"name":"Mesh_0.001",
			"primitives":[
				{
					"attributes":{
						"POSITION":4,
						"NORMAL":5,
						"TEXCOORD_0":6
					},
					"indices":7,
					"material":1
				}
			]
		}
	],
	"accessors":[
		{
			"bufferView":0,
			"componentType":5126,
			"count":4799,
			"max":[
				203.54539489746094,
				67.61284637451172,
				95.9120101928711
			],
			"min":[
				0,
				4.949549674987793,
				-53.42139434814453
			],
			"type":"VEC3"
		},
		{
			"bufferView":1,
			"componentType":5126,
			"count":4799,
			"type":"VEC3"
		},
		{
			"bufferView":2,
			"componentType":5126,
			"count":4799,
			"type":"VEC2"
		},
		{
			"bufferView":3,
			"componentType":5123,
			"count":9198,
			"type":"SCALAR"
		},
		{
			"bufferView":4,
			"componentType":5126,
			"count":351,
			"max":[
				172.5987548828125,
				1.0828671426815132e-15,
				75.779052734375
			],
			"min":[
				2.370995283126831,
				0,
				-25.01314926147461
			],
			"type":"VEC3"
		},
		{
			"bufferView":5,
			"componentType":5126,
			"count":351,
			"type":"VEC3"
		},
		{
			"bufferView":6,
			"componentType":5126,
			"count":351,
			"type":"VEC2"
		},
		{
			"bufferView":7,
			"componentType":5123,
			"count":765,
			"type":"SCALAR"
		},
		{
			"bufferView":8,
			"componentType":5126,
			"count":131,
			"max":[
				5.458333333333333
			],
			"min":[
				0.041666666666666664
			],
			"type":"SCALAR"
		},
		{
			"bufferView":9,
			"componentType":5126,
			"count":131,
			"type":"VEC3"
		},
		{
			"bufferView":10,
			"componentType":5126,
			"count":2,
			"max":[
				5.458333333333333
			],
			"min":[
				0.041666666666666664
			],
			"type":"SCALAR"
		},
		{
			"bufferView":11,
			"componentType":5126,
			"count":2,
			"type":"VEC4"
		},
		{
			"bufferView":12,
			"componentType":5126,
			"count":2,
			"type":"VEC3"
		}
	],
	"bufferViews":[
		{
			"buffer":0,
			"byteLength":57588,
			"byteOffset":0,
			"target":34962
		},
		{
			"buffer":0,
			"byteLength":57588,
			"byteOffset":57588,
			"target":34962
		},
		{
			"buffer":0,
			"byteLength":38392,
			"byteOffset":115176,
			"target":34962
		},
		{
			"buffer":0,
			"byteLength":18396,
			"byteOffset":153568,
			"target":34963
		},
		{
			"buffer":0,
			"byteLength":4212,
			"byteOffset":171964,
			"target":34962
		},
		{
			"buffer":0,
			"byteLength":4212,
			"byteOffset":176176,
			"target":34962
		},
		{
			"buffer":0,
			"byteLength":2808,
			"byteOffset":180388,
			"target":34962
		},
		{
			"buffer":0,
			"byteLength":1530,
			"byteOffset":183196,
			"target":34963
		},
		{
			"buffer":0,
			"byteLength":524,
			"byteOffset":184728
		},
		{
			"buffer":0,
			"byteLength":1572,
			"byteOffset":185252
		},
		{
			"buffer":0,
			"byteLength":8,
			"byteOffset":186824
		},
		{
			"buffer":0,
			"byteLength":32,
			"byteOffset":186832
		},
		{
			"buffer":0,
			"byteLength":24,
			"byteOffset":186864
		}
	],
	"buffers":[
		{
			"byteLength":186888,
			"uri":"light_wells.bin"
		}
	]
}
