<?xml version="1.0" encoding="UTF-8"?>
<svg id="Layer_1" data-name="Layer 1" xmlns="http://www.w3.org/2000/svg" xmlns:xlink="http://www.w3.org/1999/xlink" viewBox="0 0 537.14 107.05">
  <defs>
    <style>
      .cls-1 {
        stroke: #ffa866;
      }

      .cls-1, .cls-2, .cls-3, .cls-4 {
        fill: none;
      }

      .cls-5 {
        fill: #ffa866;
      }

      .cls-5, .cls-6, .cls-7, .cls-8, .cls-9, .cls-10, .cls-11 {
        stroke-width: 0px;
      }

      .cls-12 {
        mask: url(#mask);
      }

      .cls-6 {
        fill: #da9dff;
      }

      .cls-7 {
        fill: #ffa8cd;
      }

      .cls-8 {
        fill: #000;
      }

      .cls-9 {
        fill: #a1d7ff;
      }

      .cls-2 {
        stroke: #ffa8cd;
      }

      .cls-3 {
        stroke: #9af7a3;
      }

      .cls-10 {
        fill: #9af7a3;
      }

      .cls-11 {
        fill: #fff;
      }

      .cls-13 {
        mask: url(#mask-1);
      }

      .cls-4 {
        stroke: #e4de49;
      }
    </style>
    <mask id="mask" x="0" y="12.7" width="520.64" height="78.1" maskUnits="userSpaceOnUse">
      <g id="path-5-outside-1_2_130" data-name="path-5-outside-1 2 130">
        <rect class="cls-11" y="12.7" width="520.64" height="78.1"/>
        <path class="cls-8" d="M1.63,15.14h8.14v20.34h4.07v-12.2h8.14v12.2h4.07V15.14h8.14v24.41h-4.07v4.07h-8.14v-4.07h-8.14v4.07H5.69v-4.07H1.63V15.14ZM42.3,19.21h16.27v4.07h4.07v8.14h-16.27v8.14h16.27v4.07h-20.34v-4.07h-4.07v-16.27h4.07v-4.07ZM46.37,23.28v4.07h8.14v-4.07h-8.14ZM74.84,19.21h16.27v4.07h4.07v20.34h-20.34v-4.07h-4.07v-8.14h4.07v-4.07h12.2v-4.07h-12.2v-4.07ZM78.91,31.41v8.14h8.14v-8.14h-8.14ZM103.32,19.21h8.14v12.2h8.14v-12.2h8.14v12.2h-4.07v8.14h-4.07v4.07h-8.14v-4.07h-4.07v-8.14h-4.07v-12.2ZM143.99,15.14h8.14v4.07h-8.14v-4.07ZM139.92,23.28h12.2v16.27h4.07v4.07h-16.27v-4.07h4.07v-12.2h-4.07v-4.07ZM176.53,19.21h12.2v4.07h4.07v20.34h-8.14v-20.34h-4.07v4.07h-4.07v16.27h-8.14v-20.34h8.14v-4.07ZM205,19.21h20.34v24.41h-4.07v4.07h-16.27v-4.07h12.2v-4.07h-12.2v-4.07h-4.07v-12.2h4.07v-4.07ZM209.07,23.28v12.2h8.14v-12.2h-8.14ZM270.08,15.14h8.14v8.14h12.2v4.07h-12.2v12.2h12.2v4.07h-16.27v-4.07h-4.07V15.14ZM298.56,15.14h8.14v8.14h12.2v4.07h4.07v16.27h-8.14v-16.27h-4.07v4.07h-4.07v12.2h-8.14V15.14ZM335.16,19.21h16.27v4.07h4.07v8.14h-16.27v8.14h16.27v4.07h-20.34v-4.07h-4.07v-16.27h4.07v-4.07ZM339.23,23.28v4.07h8.14v-4.07h-8.14ZM1.63,55.82h24.41v4.07h4.07v20.34h-4.07v4.07H5.69v-24.41H1.63v-4.07ZM13.83,59.89v20.34h8.14v-20.34h-8.14ZM46.37,55.82h8.14v4.07h-8.14v-4.07ZM42.3,63.95h12.2v16.27h4.07v4.07h-16.27v-4.07h4.07v-12.2h-4.07v-4.07ZM74.84,59.89h20.34v24.41h-4.07v4.07h-16.27v-4.07h12.2v-4.07h-12.2v-4.07h-4.07v-12.2h4.07v-4.07ZM78.91,63.95v12.2h8.14v-12.2h-8.14ZM111.45,55.82h8.14v4.07h-8.14v-4.07ZM107.38,63.95h12.2v16.27h4.07v4.07h-16.27v-4.07h4.07v-12.2h-4.07v-4.07ZM139.92,55.82h8.14v8.14h12.2v4.07h-12.2v12.2h12.2v4.07h-16.27v-4.07h-4.07v-24.41ZM172.46,59.89h16.27v4.07h4.07v20.34h-20.34v-4.07h-4.07v-8.14h4.07v-4.07h12.2v-4.07h-12.2v-4.07ZM176.53,72.09v8.14h8.14v-8.14h-8.14ZM205,59.89h8.14v20.34h8.14v4.07h-12.2v-4.07h-4.07v-20.34ZM266.02,55.82h24.41v4.07h-8.14v24.41h-8.14v-24.41h-8.14v-4.07ZM302.62,59.89h16.27v4.07h4.07v20.34h-20.34v-4.07h-4.07v-8.14h4.07v-4.07h12.2v-4.07h-12.2v-4.07ZM306.69,72.09v8.14h8.14v-8.14h-8.14ZM331.1,59.89h20.34v4.07h4.07v12.2h-4.07v4.07h-12.2v8.14h-8.14v-28.47ZM339.23,63.95v12.2h8.14v-12.2h-8.14ZM367.7,59.89h16.27v4.07h4.07v8.14h-16.27v8.14h16.27v4.07h-20.34v-4.07h-4.07v-16.27h4.07v-4.07ZM371.77,63.95v4.07h8.14v-4.07h-8.14ZM400.24,59.89h16.27v4.07h-12.2v4.07h12.2v4.07h4.07v8.14h-4.07v4.07h-16.27v-4.07h-4.07v-4.07h8.14v4.07h8.14v-8.14h-12.2v-4.07h-4.07v-4.07h4.07v-4.07ZM432.78,55.82h8.14v8.14h12.2v4.07h-12.2v12.2h12.2v4.07h-16.27v-4.07h-4.07v-24.41ZM469.39,59.89h16.27v4.07h-8.14v4.07h-4.07v16.27h-8.14v-20.34h4.07v-4.07ZM497.86,59.89h8.14v12.2h4.07v-12.2h8.14v12.2h-4.07v8.14h-4.07v4.07h-12.2v-4.07h8.14v-4.07h-4.07v-4.07h-4.07v-12.2Z"/>
      </g>
    </mask>
    <mask id="mask-1" x="0" y="12.7" width="520.64" height="78.1" maskUnits="userSpaceOnUse">
      <g id="path-5-outside-1_2_130-2" data-name="path-5-outside-1 2 130">
        <rect class="cls-11" y="12.7" width="520.64" height="78.1"/>
        <path class="cls-8" d="M1.63,15.14h8.14v20.34h4.07v-12.2h8.14v12.2h4.07V15.14h8.14v24.41h-4.07v4.07h-8.14v-4.07h-8.14v4.07H5.69v-4.07H1.63V15.14ZM42.3,19.21h16.27v4.07h4.07v8.14h-16.27v8.14h16.27v4.07h-20.34v-4.07h-4.07v-16.27h4.07v-4.07ZM46.37,23.28v4.07h8.14v-4.07h-8.14ZM74.84,19.21h16.27v4.07h4.07v20.34h-20.34v-4.07h-4.07v-8.14h4.07v-4.07h12.2v-4.07h-12.2v-4.07ZM78.91,31.41v8.14h8.14v-8.14h-8.14ZM103.32,19.21h8.14v12.2h8.14v-12.2h8.14v12.2h-4.07v8.14h-4.07v4.07h-8.14v-4.07h-4.07v-8.14h-4.07v-12.2ZM143.99,15.14h8.14v4.07h-8.14v-4.07ZM139.92,23.28h12.2v16.27h4.07v4.07h-16.27v-4.07h4.07v-12.2h-4.07v-4.07ZM176.53,19.21h12.2v4.07h4.07v20.34h-8.14v-20.34h-4.07v4.07h-4.07v16.27h-8.14v-20.34h8.14v-4.07ZM205,19.21h20.34v24.41h-4.07v4.07h-16.27v-4.07h12.2v-4.07h-12.2v-4.07h-4.07v-12.2h4.07v-4.07ZM209.07,23.28v12.2h8.14v-12.2h-8.14ZM270.08,15.14h8.14v8.14h12.2v4.07h-12.2v12.2h12.2v4.07h-16.27v-4.07h-4.07V15.14ZM298.56,15.14h8.14v8.14h12.2v4.07h4.07v16.27h-8.14v-16.27h-4.07v4.07h-4.07v12.2h-8.14V15.14ZM335.16,19.21h16.27v4.07h4.07v8.14h-16.27v8.14h16.27v4.07h-20.34v-4.07h-4.07v-16.27h4.07v-4.07ZM339.23,23.28v4.07h8.14v-4.07h-8.14ZM1.63,55.82h24.41v4.07h4.07v20.34h-4.07v4.07H5.69v-24.41H1.63v-4.07ZM13.83,59.89v20.34h8.14v-20.34h-8.14ZM46.37,55.82h8.14v4.07h-8.14v-4.07ZM42.3,63.95h12.2v16.27h4.07v4.07h-16.27v-4.07h4.07v-12.2h-4.07v-4.07ZM74.84,59.89h20.34v24.41h-4.07v4.07h-16.27v-4.07h12.2v-4.07h-12.2v-4.07h-4.07v-12.2h4.07v-4.07ZM78.91,63.95v12.2h8.14v-12.2h-8.14ZM111.45,55.82h8.14v4.07h-8.14v-4.07ZM107.38,63.95h12.2v16.27h4.07v4.07h-16.27v-4.07h4.07v-12.2h-4.07v-4.07ZM139.92,55.82h8.14v8.14h12.2v4.07h-12.2v12.2h12.2v4.07h-16.27v-4.07h-4.07v-24.41ZM172.46,59.89h16.27v4.07h4.07v20.34h-20.34v-4.07h-4.07v-8.14h4.07v-4.07h12.2v-4.07h-12.2v-4.07ZM176.53,72.09v8.14h8.14v-8.14h-8.14ZM205,59.89h8.14v20.34h8.14v4.07h-12.2v-4.07h-4.07v-20.34ZM266.02,55.82h24.41v4.07h-8.14v24.41h-8.14v-24.41h-8.14v-4.07ZM302.62,59.89h16.27v4.07h4.07v20.34h-20.34v-4.07h-4.07v-8.14h4.07v-4.07h12.2v-4.07h-12.2v-4.07ZM306.69,72.09v8.14h8.14v-8.14h-8.14ZM331.1,59.89h20.34v4.07h4.07v12.2h-4.07v4.07h-12.2v8.14h-8.14v-28.47ZM339.23,63.95v12.2h8.14v-12.2h-8.14ZM367.7,59.89h16.27v4.07h4.07v8.14h-16.27v8.14h16.27v4.07h-20.34v-4.07h-4.07v-16.27h4.07v-4.07ZM371.77,63.95v4.07h8.14v-4.07h-8.14ZM400.24,59.89h16.27v4.07h-12.2v4.07h12.2v4.07h4.07v8.14h-4.07v4.07h-16.27v-4.07h-4.07v-4.07h8.14v4.07h8.14v-8.14h-12.2v-4.07h-4.07v-4.07h4.07v-4.07ZM432.78,55.82h8.14v8.14h12.2v4.07h-12.2v12.2h12.2v4.07h-16.27v-4.07h-4.07v-24.41ZM469.39,59.89h16.27v4.07h-8.14v4.07h-4.07v16.27h-8.14v-20.34h4.07v-4.07ZM497.86,59.89h8.14v12.2h4.07v-12.2h8.14v12.2h-4.07v8.14h-4.07v4.07h-12.2v-4.07h8.14v-4.07h-4.07v-4.07h-4.07v-12.2Z"/>
      </g>
    </mask>
  </defs>
  <path class="cls-4" d="M67.52,32.23c-2.71-10.58-3.74-31.73,13.83-31.73,21.96,0,26.84,8.14,32.54,14.64,5.69,6.51,4.07,30.91,30.91,34.17s34.17-.81,43.93,3.25c9.76,4.07,15.46,5.69,17.08.81"/>
  <path class="cls-4" d="M67.52,32.23c-2.71-10.58-3.74-31.73,13.83-31.73,21.96,0,26.84,8.14,32.54,14.64,5.69,6.51,4.07,30.91,30.91,34.17s34.17-.81,43.93,3.25c9.76,4.07,15.46,5.69,17.08.81"/>
  <path class="cls-2" d="M127.72,84.29c4.34,10.58,21.96,29.29,57.76,19.52,44.74-12.2,34.98-48.81,57.76-51.25,18.22-1.95,39.05-.81,47.18,0"/>
  <path class="cls-2" d="M127.72,84.29c4.34,10.58,21.96,29.29,57.76,19.52,44.74-12.2,34.98-48.81,57.76-51.25,18.22-1.95,39.05-.81,47.18,0"/>
  <path class="cls-1" d="M386.41,38.73c3.25-4.34,13.5-10.41,28.47,0,18.71,13.02,8.14,40.68,38.23,39.86s61.83-29.29,77.28-18.71c12.37,8.46,3.53,19.8-2.44,24.41"/>
  <path class="cls-1" d="M386.41,38.73c3.25-4.34,13.5-10.41,28.47,0,18.71,13.02,8.14,40.68,38.23,39.86s61.83-29.29,77.28-18.71c12.37,8.46,3.53,19.8-2.44,24.41"/>
  <path class="cls-3" d="M392.11,94.87c-3.25,5.97-13.83,16.11-30.1,8.95-20.34-8.95-24.41-45.56-31.73-48.81-5.86-2.6-15.46-1.08-19.52,0"/>
  <path class="cls-3" d="M392.11,94.87c-3.25,5.97-13.83,16.11-30.1,8.95-20.34-8.95-24.41-45.56-31.73-48.81-5.86-2.6-15.46-1.08-19.52,0"/>
  <path class="cls-11" d="M1.63,15.14h8.14v20.34h4.07v-12.2h8.14v12.2h4.07V15.14h8.14v24.41h-4.07v4.07h-8.14v-4.07h-8.14v4.07H5.69v-4.07H1.63V15.14ZM42.3,19.21h16.27v4.07h4.07v8.14h-16.27v8.14h16.27v4.07h-20.34v-4.07h-4.07v-16.27h4.07v-4.07ZM46.37,23.28v4.07h8.14v-4.07h-8.14ZM74.84,19.21h16.27v4.07h4.07v20.34h-20.34v-4.07h-4.07v-8.14h4.07v-4.07h12.2v-4.07h-12.2v-4.07ZM78.91,31.41v8.14h8.14v-8.14h-8.14ZM103.32,19.21h8.14v12.2h8.14v-12.2h8.14v12.2h-4.07v8.14h-4.07v4.07h-8.14v-4.07h-4.07v-8.14h-4.07v-12.2ZM143.99,15.14h8.14v4.07h-8.14v-4.07ZM139.92,23.28h12.2v16.27h4.07v4.07h-16.27v-4.07h4.07v-12.2h-4.07v-4.07ZM176.53,19.21h12.2v4.07h4.07v20.34h-8.14v-20.34h-4.07v4.07h-4.07v16.27h-8.14v-20.34h8.14v-4.07ZM205,19.21h20.34v24.41h-4.07v4.07h-16.27v-4.07h12.2v-4.07h-12.2v-4.07h-4.07v-12.2h4.07v-4.07ZM209.07,23.28v12.2h8.14v-12.2h-8.14ZM270.08,15.14h8.14v8.14h12.2v4.07h-12.2v12.2h12.2v4.07h-16.27v-4.07h-4.07V15.14ZM298.56,15.14h8.14v8.14h12.2v4.07h4.07v16.27h-8.14v-16.27h-4.07v4.07h-4.07v12.2h-8.14V15.14ZM335.16,19.21h16.27v4.07h4.07v8.14h-16.27v8.14h16.27v4.07h-20.34v-4.07h-4.07v-16.27h4.07v-4.07ZM339.23,23.28v4.07h8.14v-4.07h-8.14ZM1.63,55.82h24.41v4.07h4.07v20.34h-4.07v4.07H5.69v-24.41H1.63v-4.07ZM13.83,59.89v20.34h8.14v-20.34h-8.14ZM46.37,55.82h8.14v4.07h-8.14v-4.07ZM42.3,63.95h12.2v16.27h4.07v4.07h-16.27v-4.07h4.07v-12.2h-4.07v-4.07ZM74.84,59.89h20.34v24.41h-4.07v4.07h-16.27v-4.07h12.2v-4.07h-12.2v-4.07h-4.07v-12.2h4.07v-4.07ZM78.91,63.95v12.2h8.14v-12.2h-8.14ZM111.45,55.82h8.14v4.07h-8.14v-4.07ZM107.38,63.95h12.2v16.27h4.07v4.07h-16.27v-4.07h4.07v-12.2h-4.07v-4.07ZM139.92,55.82h8.14v8.14h12.2v4.07h-12.2v12.2h12.2v4.07h-16.27v-4.07h-4.07v-24.41ZM172.46,59.89h16.27v4.07h4.07v20.34h-20.34v-4.07h-4.07v-8.14h4.07v-4.07h12.2v-4.07h-12.2v-4.07ZM176.53,72.09v8.14h8.14v-8.14h-8.14ZM205,59.89h8.14v20.34h8.14v4.07h-12.2v-4.07h-4.07v-20.34ZM266.02,55.82h24.41v4.07h-8.14v24.41h-8.14v-24.41h-8.14v-4.07ZM302.62,59.89h16.27v4.07h4.07v20.34h-20.34v-4.07h-4.07v-8.14h4.07v-4.07h12.2v-4.07h-12.2v-4.07ZM306.69,72.09v8.14h8.14v-8.14h-8.14ZM331.1,59.89h20.34v4.07h4.07v12.2h-4.07v4.07h-12.2v8.14h-8.14v-28.47ZM339.23,63.95v12.2h8.14v-12.2h-8.14ZM367.7,59.89h16.27v4.07h4.07v8.14h-16.27v8.14h16.27v4.07h-20.34v-4.07h-4.07v-16.27h4.07v-4.07ZM371.77,63.95v4.07h8.14v-4.07h-8.14ZM400.24,59.89h16.27v4.07h-12.2v4.07h12.2v4.07h4.07v8.14h-4.07v4.07h-16.27v-4.07h-4.07v-4.07h8.14v4.07h8.14v-8.14h-12.2v-4.07h-4.07v-4.07h4.07v-4.07ZM432.78,55.82h8.14v8.14h12.2v4.07h-12.2v12.2h12.2v4.07h-16.27v-4.07h-4.07v-24.41ZM469.39,59.89h16.27v4.07h-8.14v4.07h-4.07v16.27h-8.14v-20.34h4.07v-4.07ZM497.86,59.89h8.14v12.2h4.07v-12.2h8.14v12.2h-4.07v8.14h-4.07v4.07h-12.2v-4.07h8.14v-4.07h-4.07v-4.07h-4.07v-12.2Z"/>
  <path class="cls-11" d="M1.63,15.14h8.14v20.34h4.07v-12.2h8.14v12.2h4.07V15.14h8.14v24.41h-4.07v4.07h-8.14v-4.07h-8.14v4.07H5.69v-4.07H1.63V15.14ZM42.3,19.21h16.27v4.07h4.07v8.14h-16.27v8.14h16.27v4.07h-20.34v-4.07h-4.07v-16.27h4.07v-4.07ZM46.37,23.28v4.07h8.14v-4.07h-8.14ZM74.84,19.21h16.27v4.07h4.07v20.34h-20.34v-4.07h-4.07v-8.14h4.07v-4.07h12.2v-4.07h-12.2v-4.07ZM78.91,31.41v8.14h8.14v-8.14h-8.14ZM103.32,19.21h8.14v12.2h8.14v-12.2h8.14v12.2h-4.07v8.14h-4.07v4.07h-8.14v-4.07h-4.07v-8.14h-4.07v-12.2ZM143.99,15.14h8.14v4.07h-8.14v-4.07ZM139.92,23.28h12.2v16.27h4.07v4.07h-16.27v-4.07h4.07v-12.2h-4.07v-4.07ZM176.53,19.21h12.2v4.07h4.07v20.34h-8.14v-20.34h-4.07v4.07h-4.07v16.27h-8.14v-20.34h8.14v-4.07ZM205,19.21h20.34v24.41h-4.07v4.07h-16.27v-4.07h12.2v-4.07h-12.2v-4.07h-4.07v-12.2h4.07v-4.07ZM209.07,23.28v12.2h8.14v-12.2h-8.14ZM270.08,15.14h8.14v8.14h12.2v4.07h-12.2v12.2h12.2v4.07h-16.27v-4.07h-4.07V15.14ZM298.56,15.14h8.14v8.14h12.2v4.07h4.07v16.27h-8.14v-16.27h-4.07v4.07h-4.07v12.2h-8.14V15.14ZM335.16,19.21h16.27v4.07h4.07v8.14h-16.27v8.14h16.27v4.07h-20.34v-4.07h-4.07v-16.27h4.07v-4.07ZM339.23,23.28v4.07h8.14v-4.07h-8.14ZM1.63,55.82h24.41v4.07h4.07v20.34h-4.07v4.07H5.69v-24.41H1.63v-4.07ZM13.83,59.89v20.34h8.14v-20.34h-8.14ZM46.37,55.82h8.14v4.07h-8.14v-4.07ZM42.3,63.95h12.2v16.27h4.07v4.07h-16.27v-4.07h4.07v-12.2h-4.07v-4.07ZM74.84,59.89h20.34v24.41h-4.07v4.07h-16.27v-4.07h12.2v-4.07h-12.2v-4.07h-4.07v-12.2h4.07v-4.07ZM78.91,63.95v12.2h8.14v-12.2h-8.14ZM111.45,55.82h8.14v4.07h-8.14v-4.07ZM107.38,63.95h12.2v16.27h4.07v4.07h-16.27v-4.07h4.07v-12.2h-4.07v-4.07ZM139.92,55.82h8.14v8.14h12.2v4.07h-12.2v12.2h12.2v4.07h-16.27v-4.07h-4.07v-24.41ZM172.46,59.89h16.27v4.07h4.07v20.34h-20.34v-4.07h-4.07v-8.14h4.07v-4.07h12.2v-4.07h-12.2v-4.07ZM176.53,72.09v8.14h8.14v-8.14h-8.14ZM205,59.89h8.14v20.34h8.14v4.07h-12.2v-4.07h-4.07v-20.34ZM266.02,55.82h24.41v4.07h-8.14v24.41h-8.14v-24.41h-8.14v-4.07ZM302.62,59.89h16.27v4.07h4.07v20.34h-20.34v-4.07h-4.07v-8.14h4.07v-4.07h12.2v-4.07h-12.2v-4.07ZM306.69,72.09v8.14h8.14v-8.14h-8.14ZM331.1,59.89h20.34v4.07h4.07v12.2h-4.07v4.07h-12.2v8.14h-8.14v-28.47ZM339.23,63.95v12.2h8.14v-12.2h-8.14ZM367.7,59.89h16.27v4.07h4.07v8.14h-16.27v8.14h16.27v4.07h-20.34v-4.07h-4.07v-16.27h4.07v-4.07ZM371.77,63.95v4.07h8.14v-4.07h-8.14ZM400.24,59.89h16.27v4.07h-12.2v4.07h12.2v4.07h4.07v8.14h-4.07v4.07h-16.27v-4.07h-4.07v-4.07h8.14v4.07h8.14v-8.14h-12.2v-4.07h-4.07v-4.07h4.07v-4.07ZM432.78,55.82h8.14v8.14h12.2v4.07h-12.2v12.2h12.2v4.07h-16.27v-4.07h-4.07v-24.41ZM469.39,59.89h16.27v4.07h-8.14v4.07h-4.07v16.27h-8.14v-20.34h4.07v-4.07ZM497.86,59.89h8.14v12.2h4.07v-12.2h8.14v12.2h-4.07v8.14h-4.07v4.07h-12.2v-4.07h8.14v-4.07h-4.07v-4.07h-4.07v-12.2Z"/>
  <g class="cls-12">
    <path class="cls-8" d="M1.63,15.14v-1.63H0v1.63h1.63ZM9.76,15.14h1.63v-1.63h-1.63v1.63ZM9.76,35.48h-1.63v1.63h1.63v-1.63ZM13.83,35.48v1.63h1.63v-1.63h-1.63ZM13.83,23.28v-1.63h-1.63v1.63h1.63ZM21.96,23.28h1.63v-1.63h-1.63v1.63ZM21.96,35.48h-1.63v1.63h1.63v-1.63ZM26.03,35.48v1.63h1.63v-1.63h-1.63ZM26.03,15.14v-1.63h-1.63v1.63h1.63ZM34.17,15.14h1.63v-1.63h-1.63v1.63ZM34.17,39.55v1.63h1.63v-1.63h-1.63ZM30.1,39.55v-1.63h-1.63v1.63h1.63ZM30.1,43.62v1.63h1.63v-1.63h-1.63ZM21.96,43.62h-1.63v1.63h1.63v-1.63ZM21.96,39.55h1.63v-1.63h-1.63v1.63ZM13.83,39.55v-1.63h-1.63v1.63h1.63ZM13.83,43.62v1.63h1.63v-1.63h-1.63ZM5.69,43.62h-1.63v1.63h1.63v-1.63ZM5.69,39.55h1.63v-1.63h-1.63v1.63ZM1.63,39.55H0v1.63h1.63v-1.63ZM1.63,16.77h8.14v-3.25H1.63v3.25ZM8.14,15.14v20.34h3.25V15.14h-3.25ZM9.76,37.11h4.07v-3.25h-4.07v3.25ZM15.46,35.48v-12.2h-3.25v12.2h3.25ZM13.83,24.91h8.14v-3.25h-8.14v3.25ZM20.34,23.28v12.2h3.25v-12.2h-3.25ZM21.96,37.11h4.07v-3.25h-4.07v3.25ZM27.66,35.48V15.14h-3.25v20.34h3.25ZM26.03,16.77h8.14v-3.25h-8.14v3.25ZM32.54,15.14v24.41h3.25V15.14h-3.25ZM34.17,37.92h-4.07v3.25h4.07v-3.25ZM28.47,39.55v4.07h3.25v-4.07h-3.25ZM30.1,41.99h-8.14v3.25h8.14v-3.25ZM23.59,43.62v-4.07h-3.25v4.07h3.25ZM21.96,37.92h-8.14v3.25h8.14v-3.25ZM12.2,39.55v4.07h3.25v-4.07h-3.25ZM13.83,41.99H5.69v3.25h8.14v-3.25ZM7.32,43.62v-4.07h-3.25v4.07h3.25ZM5.69,37.92H1.63v3.25h4.07v-3.25ZM3.25,39.55V15.14H0v24.41h3.25ZM42.3,19.21v-1.63h-1.63v1.63h1.63ZM58.57,19.21h1.63v-1.63h-1.63v1.63ZM58.57,23.28h-1.63v1.63h1.63v-1.63ZM62.64,23.28h1.63v-1.63h-1.63v1.63ZM62.64,31.41v1.63h1.63v-1.63h-1.63ZM46.37,31.41v-1.63h-1.63v1.63h1.63ZM46.37,39.55h-1.63v1.63h1.63v-1.63ZM62.64,39.55h1.63v-1.63h-1.63v1.63ZM62.64,43.62v1.63h1.63v-1.63h-1.63ZM42.3,43.62h-1.63v1.63h1.63v-1.63ZM42.3,39.55h1.63v-1.63h-1.63v1.63ZM38.23,39.55h-1.63v1.63h1.63v-1.63ZM38.23,23.28v-1.63h-1.63v1.63h1.63ZM42.3,23.28v1.63h1.63v-1.63h-1.63ZM46.37,23.28v-1.63h-1.63v1.63h1.63ZM46.37,27.35h-1.63v1.63h1.63v-1.63ZM54.5,27.35v1.63h1.63v-1.63h-1.63ZM54.5,23.28h1.63v-1.63h-1.63v1.63ZM42.3,20.84h16.27v-3.25h-16.27v3.25ZM56.95,19.21v4.07h3.25v-4.07h-3.25ZM58.57,24.91h4.07v-3.25h-4.07v3.25ZM61.01,23.28v8.14h3.25v-8.14h-3.25ZM62.64,29.79h-16.27v3.25h16.27v-3.25ZM44.74,31.41v8.14h3.25v-8.14h-3.25ZM46.37,41.18h16.27v-3.25h-16.27v3.25ZM61.01,39.55v4.07h3.25v-4.07h-3.25ZM62.64,41.99h-20.34v3.25h20.34v-3.25ZM43.93,43.62v-4.07h-3.25v4.07h3.25ZM42.3,37.92h-4.07v3.25h4.07v-3.25ZM39.86,39.55v-16.27h-3.25v16.27h3.25ZM38.23,24.91h4.07v-3.25h-4.07v3.25ZM43.93,23.28v-4.07h-3.25v4.07h3.25ZM44.74,23.28v4.07h3.25v-4.07h-3.25ZM46.37,28.97h8.14v-3.25h-8.14v3.25ZM56.13,27.35v-4.07h-3.25v4.07h3.25ZM54.5,21.65h-8.14v3.25h8.14v-3.25ZM74.84,19.21v-1.63h-1.63v1.63h1.63ZM91.11,19.21h1.63v-1.63h-1.63v1.63ZM91.11,23.28h-1.63v1.63h1.63v-1.63ZM95.18,23.28h1.63v-1.63h-1.63v1.63ZM95.18,43.62v1.63h1.63v-1.63h-1.63ZM74.84,43.62h-1.63v1.63h1.63v-1.63ZM74.84,39.55h1.63v-1.63h-1.63v1.63ZM70.77,39.55h-1.63v1.63h1.63v-1.63ZM70.77,31.41v-1.63h-1.63v1.63h1.63ZM74.84,31.41v1.63h1.63v-1.63h-1.63ZM74.84,27.35v-1.63h-1.63v1.63h1.63ZM87.05,27.35v1.63h1.63v-1.63h-1.63ZM87.05,23.28h1.63v-1.63h-1.63v1.63ZM74.84,23.28h-1.63v1.63h1.63v-1.63ZM78.91,31.41v-1.63h-1.63v1.63h1.63ZM78.91,39.55h-1.63v1.63h1.63v-1.63ZM87.05,39.55v1.63h1.63v-1.63h-1.63ZM87.05,31.41h1.63v-1.63h-1.63v1.63ZM74.84,20.84h16.27v-3.25h-16.27v3.25ZM89.49,19.21v4.07h3.25v-4.07h-3.25ZM91.11,24.91h4.07v-3.25h-4.07v3.25ZM93.55,23.28v20.34h3.25v-20.34h-3.25ZM95.18,41.99h-20.34v3.25h20.34v-3.25ZM76.47,43.62v-4.07h-3.25v4.07h3.25ZM74.84,37.92h-4.07v3.25h4.07v-3.25ZM72.4,39.55v-8.14h-3.25v8.14h3.25ZM70.77,33.04h4.07v-3.25h-4.07v3.25ZM76.47,31.41v-4.07h-3.25v4.07h3.25ZM74.84,28.97h12.2v-3.25h-12.2v3.25ZM88.67,27.35v-4.07h-3.25v4.07h3.25ZM87.05,21.65h-12.2v3.25h12.2v-3.25ZM76.47,23.28v-4.07h-3.25v4.07h3.25ZM77.28,31.41v8.14h3.25v-8.14h-3.25ZM78.91,41.18h8.14v-3.25h-8.14v3.25ZM88.67,39.55v-8.14h-3.25v8.14h3.25ZM87.05,29.79h-8.14v3.25h8.14v-3.25ZM103.32,19.21v-1.63h-1.63v1.63h1.63ZM111.45,19.21h1.63v-1.63h-1.63v1.63ZM111.45,31.41h-1.63v1.63h1.63v-1.63ZM119.59,31.41v1.63h1.63v-1.63h-1.63ZM119.59,19.21v-1.63h-1.63v1.63h1.63ZM127.72,19.21h1.63v-1.63h-1.63v1.63ZM127.72,31.41v1.63h1.63v-1.63h-1.63ZM123.65,31.41v-1.63h-1.63v1.63h1.63ZM123.65,39.55v1.63h1.63v-1.63h-1.63ZM119.59,39.55v-1.63h-1.63v1.63h1.63ZM119.59,43.62v1.63h1.63v-1.63h-1.63ZM111.45,43.62h-1.63v1.63h1.63v-1.63ZM111.45,39.55h1.63v-1.63h-1.63v1.63ZM107.38,39.55h-1.63v1.63h1.63v-1.63ZM107.38,31.41h1.63v-1.63h-1.63v1.63ZM103.32,31.41h-1.63v1.63h1.63v-1.63ZM103.32,20.84h8.14v-3.25h-8.14v3.25ZM109.82,19.21v12.2h3.25v-12.2h-3.25ZM111.45,33.04h8.14v-3.25h-8.14v3.25ZM121.21,31.41v-12.2h-3.25v12.2h3.25ZM119.59,20.84h8.14v-3.25h-8.14v3.25ZM126.09,19.21v12.2h3.25v-12.2h-3.25ZM127.72,29.79h-4.07v3.25h4.07v-3.25ZM122.03,31.41v8.14h3.25v-8.14h-3.25ZM123.65,37.92h-4.07v3.25h4.07v-3.25ZM117.96,39.55v4.07h3.25v-4.07h-3.25ZM119.59,41.99h-8.14v3.25h8.14v-3.25ZM113.08,43.62v-4.07h-3.25v4.07h3.25ZM111.45,37.92h-4.07v3.25h4.07v-3.25ZM109.01,39.55v-8.14h-3.25v8.14h3.25ZM107.38,29.79h-4.07v3.25h4.07v-3.25ZM104.94,31.41v-12.2h-3.25v12.2h3.25ZM143.99,15.14v-1.63h-1.63v1.63h1.63ZM152.13,15.14h1.63v-1.63h-1.63v1.63ZM152.13,19.21v1.63h1.63v-1.63h-1.63ZM143.99,19.21h-1.63v1.63h1.63v-1.63ZM139.92,23.28v-1.63h-1.63v1.63h1.63ZM152.13,23.28h1.63v-1.63h-1.63v1.63ZM152.13,39.55h-1.63v1.63h1.63v-1.63ZM156.19,39.55h1.63v-1.63h-1.63v1.63ZM156.19,43.62v1.63h1.63v-1.63h-1.63ZM139.92,43.62h-1.63v1.63h1.63v-1.63ZM139.92,39.55v-1.63h-1.63v1.63h1.63ZM143.99,39.55v1.63h1.63v-1.63h-1.63ZM143.99,27.35h1.63v-1.63h-1.63v1.63ZM139.92,27.35h-1.63v1.63h1.63v-1.63ZM143.99,16.77h8.14v-3.25h-8.14v3.25ZM150.5,15.14v4.07h3.25v-4.07h-3.25ZM152.13,17.58h-8.14v3.25h8.14v-3.25ZM145.62,19.21v-4.07h-3.25v4.07h3.25ZM139.92,24.91h12.2v-3.25h-12.2v3.25ZM150.5,23.28v16.27h3.25v-16.27h-3.25ZM152.13,41.18h4.07v-3.25h-4.07v3.25ZM154.57,39.55v4.07h3.25v-4.07h-3.25ZM156.19,41.99h-16.27v3.25h16.27v-3.25ZM141.55,43.62v-4.07h-3.25v4.07h3.25ZM139.92,41.18h4.07v-3.25h-4.07v3.25ZM145.62,39.55v-12.2h-3.25v12.2h3.25ZM143.99,25.72h-4.07v3.25h4.07v-3.25ZM141.55,27.35v-4.07h-3.25v4.07h3.25ZM176.53,19.21v-1.63h-1.63v1.63h1.63ZM188.73,19.21h1.63v-1.63h-1.63v1.63ZM188.73,23.28h-1.63v1.63h1.63v-1.63ZM192.8,23.28h1.63v-1.63h-1.63v1.63ZM192.8,43.62v1.63h1.63v-1.63h-1.63ZM184.67,43.62h-1.63v1.63h1.63v-1.63ZM184.67,23.28h1.63v-1.63h-1.63v1.63ZM180.6,23.28v-1.63h-1.63v1.63h1.63ZM180.6,27.35v1.63h1.63v-1.63h-1.63ZM176.53,27.35v-1.63h-1.63v1.63h1.63ZM176.53,43.62v1.63h1.63v-1.63h-1.63ZM168.4,43.62h-1.63v1.63h1.63v-1.63ZM168.4,23.28v-1.63h-1.63v1.63h1.63ZM176.53,23.28v1.63h1.63v-1.63h-1.63ZM176.53,20.84h12.2v-3.25h-12.2v3.25ZM187.11,19.21v4.07h3.25v-4.07h-3.25ZM188.73,24.91h4.07v-3.25h-4.07v3.25ZM191.17,23.28v20.34h3.25v-20.34h-3.25ZM192.8,41.99h-8.14v3.25h8.14v-3.25ZM186.29,43.62v-20.34h-3.25v20.34h3.25ZM184.67,21.65h-4.07v3.25h4.07v-3.25ZM178.97,23.28v4.07h3.25v-4.07h-3.25ZM180.6,25.72h-4.07v3.25h4.07v-3.25ZM174.9,27.35v16.27h3.25v-16.27h-3.25ZM176.53,41.99h-8.14v3.25h8.14v-3.25ZM170.02,43.62v-20.34h-3.25v20.34h3.25ZM168.4,24.91h8.14v-3.25h-8.14v3.25ZM178.16,23.28v-4.07h-3.25v4.07h3.25ZM205,19.21v-1.63h-1.63v1.63h1.63ZM225.34,19.21h1.63v-1.63h-1.63v1.63ZM225.34,43.62v1.63h1.63v-1.63h-1.63ZM221.27,43.62v-1.63h-1.63v1.63h1.63ZM221.27,47.68v1.63h1.63v-1.63h-1.63ZM205,47.68h-1.63v1.63h1.63v-1.63ZM205,43.62v-1.63h-1.63v1.63h1.63ZM217.21,43.62v1.63h1.63v-1.63h-1.63ZM217.21,39.55h1.63v-1.63h-1.63v1.63ZM205,39.55h-1.63v1.63h1.63v-1.63ZM205,35.48h1.63v-1.63h-1.63v1.63ZM200.94,35.48h-1.63v1.63h1.63v-1.63ZM200.94,23.28v-1.63h-1.63v1.63h1.63ZM205,23.28v1.63h1.63v-1.63h-1.63ZM209.07,23.28v-1.63h-1.63v1.63h1.63ZM209.07,35.48h-1.63v1.63h1.63v-1.63ZM217.21,35.48v1.63h1.63v-1.63h-1.63ZM217.21,23.28h1.63v-1.63h-1.63v1.63ZM205,20.84h20.34v-3.25h-20.34v3.25ZM223.71,19.21v24.41h3.25v-24.41h-3.25ZM225.34,41.99h-4.07v3.25h4.07v-3.25ZM219.65,43.62v4.07h3.25v-4.07h-3.25ZM221.27,46.06h-16.27v3.25h16.27v-3.25ZM206.63,47.68v-4.07h-3.25v4.07h3.25ZM205,45.24h12.2v-3.25h-12.2v3.25ZM218.83,43.62v-4.07h-3.25v4.07h3.25ZM217.21,37.92h-12.2v3.25h12.2v-3.25ZM206.63,39.55v-4.07h-3.25v4.07h3.25ZM205,33.85h-4.07v3.25h4.07v-3.25ZM202.56,35.48v-12.2h-3.25v12.2h3.25ZM200.94,24.91h4.07v-3.25h-4.07v3.25ZM206.63,23.28v-4.07h-3.25v4.07h3.25ZM207.44,23.28v12.2h3.25v-12.2h-3.25ZM209.07,37.11h8.14v-3.25h-8.14v3.25ZM218.83,35.48v-12.2h-3.25v12.2h3.25ZM217.21,21.65h-8.14v3.25h8.14v-3.25ZM270.08,15.14v-1.63h-1.63v1.63h1.63ZM278.22,15.14h1.63v-1.63h-1.63v1.63ZM278.22,23.28h-1.63v1.63h1.63v-1.63ZM290.42,23.28h1.63v-1.63h-1.63v1.63ZM290.42,27.35v1.63h1.63v-1.63h-1.63ZM278.22,27.35v-1.63h-1.63v1.63h1.63ZM278.22,39.55h-1.63v1.63h1.63v-1.63ZM290.42,39.55h1.63v-1.63h-1.63v1.63ZM290.42,43.62v1.63h1.63v-1.63h-1.63ZM274.15,43.62h-1.63v1.63h1.63v-1.63ZM274.15,39.55h1.63v-1.63h-1.63v1.63ZM270.08,39.55h-1.63v1.63h1.63v-1.63ZM270.08,16.77h8.14v-3.25h-8.14v3.25ZM276.59,15.14v8.14h3.25v-8.14h-3.25ZM278.22,24.91h12.2v-3.25h-12.2v3.25ZM288.79,23.28v4.07h3.25v-4.07h-3.25ZM290.42,25.72h-12.2v3.25h12.2v-3.25ZM276.59,27.35v12.2h3.25v-12.2h-3.25ZM278.22,41.18h12.2v-3.25h-12.2v3.25ZM288.79,39.55v4.07h3.25v-4.07h-3.25ZM290.42,41.99h-16.27v3.25h16.27v-3.25ZM275.78,43.62v-4.07h-3.25v4.07h3.25ZM274.15,37.92h-4.07v3.25h4.07v-3.25ZM271.71,39.55V15.14h-3.25v24.41h3.25ZM298.56,15.14v-1.63h-1.63v1.63h1.63ZM306.69,15.14h1.63v-1.63h-1.63v1.63ZM306.69,23.28h-1.63v1.63h1.63v-1.63ZM318.89,23.28h1.63v-1.63h-1.63v1.63ZM318.89,27.35h-1.63v1.63h1.63v-1.63ZM322.96,27.35h1.63v-1.63h-1.63v1.63ZM322.96,43.62v1.63h1.63v-1.63h-1.63ZM314.83,43.62h-1.63v1.63h1.63v-1.63ZM314.83,27.35h1.63v-1.63h-1.63v1.63ZM310.76,27.35v-1.63h-1.63v1.63h1.63ZM310.76,31.41v1.63h1.63v-1.63h-1.63ZM306.69,31.41v-1.63h-1.63v1.63h1.63ZM306.69,43.62v1.63h1.63v-1.63h-1.63ZM298.56,43.62h-1.63v1.63h1.63v-1.63ZM298.56,16.77h8.14v-3.25h-8.14v3.25ZM305.06,15.14v8.14h3.25v-8.14h-3.25ZM306.69,24.91h12.2v-3.25h-12.2v3.25ZM317.27,23.28v4.07h3.25v-4.07h-3.25ZM318.89,28.97h4.07v-3.25h-4.07v3.25ZM321.33,27.35v16.27h3.25v-16.27h-3.25ZM322.96,41.99h-8.14v3.25h8.14v-3.25ZM316.45,43.62v-16.27h-3.25v16.27h3.25ZM314.83,25.72h-4.07v3.25h4.07v-3.25ZM309.13,27.35v4.07h3.25v-4.07h-3.25ZM310.76,29.79h-4.07v3.25h4.07v-3.25ZM305.06,31.41v12.2h3.25v-12.2h-3.25ZM306.69,41.99h-8.14v3.25h8.14v-3.25ZM300.18,43.62V15.14h-3.25v28.47h3.25ZM335.16,19.21v-1.63h-1.63v1.63h1.63ZM351.43,19.21h1.63v-1.63h-1.63v1.63ZM351.43,23.28h-1.63v1.63h1.63v-1.63ZM355.5,23.28h1.63v-1.63h-1.63v1.63ZM355.5,31.41v1.63h1.63v-1.63h-1.63ZM339.23,31.41v-1.63h-1.63v1.63h1.63ZM339.23,39.55h-1.63v1.63h1.63v-1.63ZM355.5,39.55h1.63v-1.63h-1.63v1.63ZM355.5,43.62v1.63h1.63v-1.63h-1.63ZM335.16,43.62h-1.63v1.63h1.63v-1.63ZM335.16,39.55h1.63v-1.63h-1.63v1.63ZM331.1,39.55h-1.63v1.63h1.63v-1.63ZM331.1,23.28v-1.63h-1.63v1.63h1.63ZM335.16,23.28v1.63h1.63v-1.63h-1.63ZM339.23,23.28v-1.63h-1.63v1.63h1.63ZM339.23,27.35h-1.63v1.63h1.63v-1.63ZM347.37,27.35v1.63h1.63v-1.63h-1.63ZM347.37,23.28h1.63v-1.63h-1.63v1.63ZM335.16,20.84h16.27v-3.25h-16.27v3.25ZM349.81,19.21v4.07h3.25v-4.07h-3.25ZM351.43,24.91h4.07v-3.25h-4.07v3.25ZM353.87,23.28v8.14h3.25v-8.14h-3.25ZM355.5,29.79h-16.27v3.25h16.27v-3.25ZM337.6,31.41v8.14h3.25v-8.14h-3.25ZM339.23,41.18h16.27v-3.25h-16.27v3.25ZM353.87,39.55v4.07h3.25v-4.07h-3.25ZM355.5,41.99h-20.34v3.25h20.34v-3.25ZM336.79,43.62v-4.07h-3.25v4.07h3.25ZM335.16,37.92h-4.07v3.25h4.07v-3.25ZM332.72,39.55v-16.27h-3.25v16.27h3.25ZM331.1,24.91h4.07v-3.25h-4.07v3.25ZM336.79,23.28v-4.07h-3.25v4.07h3.25ZM337.6,23.28v4.07h3.25v-4.07h-3.25ZM339.23,28.97h8.14v-3.25h-8.14v3.25ZM348.99,27.35v-4.07h-3.25v4.07h3.25ZM347.37,21.65h-8.14v3.25h8.14v-3.25ZM1.63,55.82v-1.63H0v1.63h1.63ZM26.03,55.82h1.63v-1.63h-1.63v1.63ZM26.03,59.89h-1.63v1.63h1.63v-1.63ZM30.1,59.89h1.63v-1.63h-1.63v1.63ZM30.1,80.22v1.63h1.63v-1.63h-1.63ZM26.03,80.22v-1.63h-1.63v1.63h1.63ZM26.03,84.29v1.63h1.63v-1.63h-1.63ZM5.69,84.29h-1.63v1.63h1.63v-1.63ZM5.69,59.89h1.63v-1.63h-1.63v1.63ZM1.63,59.89H0v1.63h1.63v-1.63ZM13.83,59.89v-1.63h-1.63v1.63h1.63ZM13.83,80.22h-1.63v1.63h1.63v-1.63ZM21.96,80.22v1.63h1.63v-1.63h-1.63ZM21.96,59.89h1.63v-1.63h-1.63v1.63ZM1.63,57.45h24.41v-3.25H1.63v3.25ZM24.41,55.82v4.07h3.25v-4.07h-3.25ZM26.03,61.51h4.07v-3.25h-4.07v3.25ZM28.47,59.89v20.34h3.25v-20.34h-3.25ZM30.1,78.6h-4.07v3.25h4.07v-3.25ZM24.41,80.22v4.07h3.25v-4.07h-3.25ZM26.03,82.66H5.69v3.25h20.34v-3.25ZM7.32,84.29v-24.41h-3.25v24.41h3.25ZM5.69,58.26H1.63v3.25h4.07v-3.25ZM3.25,59.89v-4.07H0v4.07h3.25ZM12.2,59.89v20.34h3.25v-20.34h-3.25ZM13.83,81.85h8.14v-3.25h-8.14v3.25ZM23.59,80.22v-20.34h-3.25v20.34h3.25ZM21.96,58.26h-8.14v3.25h8.14v-3.25ZM46.37,55.82v-1.63h-1.63v1.63h1.63ZM54.5,55.82h1.63v-1.63h-1.63v1.63ZM54.5,59.89v1.63h1.63v-1.63h-1.63ZM46.37,59.89h-1.63v1.63h1.63v-1.63ZM42.3,63.95v-1.63h-1.63v1.63h1.63ZM54.5,63.95h1.63v-1.63h-1.63v1.63ZM54.5,80.22h-1.63v1.63h1.63v-1.63ZM58.57,80.22h1.63v-1.63h-1.63v1.63ZM58.57,84.29v1.63h1.63v-1.63h-1.63ZM42.3,84.29h-1.63v1.63h1.63v-1.63ZM42.3,80.22v-1.63h-1.63v1.63h1.63ZM46.37,80.22v1.63h1.63v-1.63h-1.63ZM46.37,68.02h1.63v-1.63h-1.63v1.63ZM42.3,68.02h-1.63v1.63h1.63v-1.63ZM46.37,57.45h8.14v-3.25h-8.14v3.25ZM52.88,55.82v4.07h3.25v-4.07h-3.25ZM54.5,58.26h-8.14v3.25h8.14v-3.25ZM48,59.89v-4.07h-3.25v4.07h3.25ZM42.3,65.58h12.2v-3.25h-12.2v3.25ZM52.88,63.95v16.27h3.25v-16.27h-3.25ZM54.5,81.85h4.07v-3.25h-4.07v3.25ZM56.95,80.22v4.07h3.25v-4.07h-3.25ZM58.57,82.66h-16.27v3.25h16.27v-3.25ZM43.93,84.29v-4.07h-3.25v4.07h3.25ZM42.3,81.85h4.07v-3.25h-4.07v3.25ZM48,80.22v-12.2h-3.25v12.2h3.25ZM46.37,66.39h-4.07v3.25h4.07v-3.25ZM43.93,68.02v-4.07h-3.25v4.07h3.25ZM74.84,59.89v-1.63h-1.63v1.63h1.63ZM95.18,59.89h1.63v-1.63h-1.63v1.63ZM95.18,84.29v1.63h1.63v-1.63h-1.63ZM91.11,84.29v-1.63h-1.63v1.63h1.63ZM91.11,88.36v1.63h1.63v-1.63h-1.63ZM74.84,88.36h-1.63v1.63h1.63v-1.63ZM74.84,84.29v-1.63h-1.63v1.63h1.63ZM87.05,84.29v1.63h1.63v-1.63h-1.63ZM87.05,80.22h1.63v-1.63h-1.63v1.63ZM74.84,80.22h-1.63v1.63h1.63v-1.63ZM74.84,76.16h1.63v-1.63h-1.63v1.63ZM70.77,76.16h-1.63v1.63h1.63v-1.63ZM70.77,63.95v-1.63h-1.63v1.63h1.63ZM74.84,63.95v1.63h1.63v-1.63h-1.63ZM78.91,63.95v-1.63h-1.63v1.63h1.63ZM78.91,76.16h-1.63v1.63h1.63v-1.63ZM87.05,76.16v1.63h1.63v-1.63h-1.63ZM87.05,63.95h1.63v-1.63h-1.63v1.63ZM74.84,61.51h20.34v-3.25h-20.34v3.25ZM93.55,59.89v24.41h3.25v-24.41h-3.25ZM95.18,82.66h-4.07v3.25h4.07v-3.25ZM89.49,84.29v4.07h3.25v-4.07h-3.25ZM91.11,86.73h-16.27v3.25h16.27v-3.25ZM76.47,88.36v-4.07h-3.25v4.07h3.25ZM74.84,85.92h12.2v-3.25h-12.2v3.25ZM88.67,84.29v-4.07h-3.25v4.07h3.25ZM87.05,78.6h-12.2v3.25h12.2v-3.25ZM76.47,80.22v-4.07h-3.25v4.07h3.25ZM74.84,74.53h-4.07v3.25h4.07v-3.25ZM72.4,76.16v-12.2h-3.25v12.2h3.25ZM70.77,65.58h4.07v-3.25h-4.07v3.25ZM76.47,63.95v-4.07h-3.25v4.07h3.25ZM77.28,63.95v12.2h3.25v-12.2h-3.25ZM78.91,77.78h8.14v-3.25h-8.14v3.25ZM88.67,76.16v-12.2h-3.25v12.2h3.25ZM87.05,62.33h-8.14v3.25h8.14v-3.25ZM111.45,55.82v-1.63h-1.63v1.63h1.63ZM119.59,55.82h1.63v-1.63h-1.63v1.63ZM119.59,59.89v1.63h1.63v-1.63h-1.63ZM111.45,59.89h-1.63v1.63h1.63v-1.63ZM107.38,63.95v-1.63h-1.63v1.63h1.63ZM119.59,63.95h1.63v-1.63h-1.63v1.63ZM119.59,80.22h-1.63v1.63h1.63v-1.63ZM123.65,80.22h1.63v-1.63h-1.63v1.63ZM123.65,84.29v1.63h1.63v-1.63h-1.63ZM107.38,84.29h-1.63v1.63h1.63v-1.63ZM107.38,80.22v-1.63h-1.63v1.63h1.63ZM111.45,80.22v1.63h1.63v-1.63h-1.63ZM111.45,68.02h1.63v-1.63h-1.63v1.63ZM107.38,68.02h-1.63v1.63h1.63v-1.63ZM111.45,57.45h8.14v-3.25h-8.14v3.25ZM117.96,55.82v4.07h3.25v-4.07h-3.25ZM119.59,58.26h-8.14v3.25h8.14v-3.25ZM113.08,59.89v-4.07h-3.25v4.07h3.25ZM107.38,65.58h12.2v-3.25h-12.2v3.25ZM117.96,63.95v16.27h3.25v-16.27h-3.25ZM119.59,81.85h4.07v-3.25h-4.07v3.25ZM122.03,80.22v4.07h3.25v-4.07h-3.25ZM123.65,82.66h-16.27v3.25h16.27v-3.25ZM109.01,84.29v-4.07h-3.25v4.07h3.25ZM107.38,81.85h4.07v-3.25h-4.07v3.25ZM113.08,80.22v-12.2h-3.25v12.2h3.25ZM111.45,66.39h-4.07v3.25h4.07v-3.25ZM109.01,68.02v-4.07h-3.25v4.07h3.25ZM139.92,55.82v-1.63h-1.63v1.63h1.63ZM148.06,55.82h1.63v-1.63h-1.63v1.63ZM148.06,63.95h-1.63v1.63h1.63v-1.63ZM160.26,63.95h1.63v-1.63h-1.63v1.63ZM160.26,68.02v1.63h1.63v-1.63h-1.63ZM148.06,68.02v-1.63h-1.63v1.63h1.63ZM148.06,80.22h-1.63v1.63h1.63v-1.63ZM160.26,80.22h1.63v-1.63h-1.63v1.63ZM160.26,84.29v1.63h1.63v-1.63h-1.63ZM143.99,84.29h-1.63v1.63h1.63v-1.63ZM143.99,80.22h1.63v-1.63h-1.63v1.63ZM139.92,80.22h-1.63v1.63h1.63v-1.63ZM139.92,57.45h8.14v-3.25h-8.14v3.25ZM146.43,55.82v8.14h3.25v-8.14h-3.25ZM148.06,65.58h12.2v-3.25h-12.2v3.25ZM158.63,63.95v4.07h3.25v-4.07h-3.25ZM160.26,66.39h-12.2v3.25h12.2v-3.25ZM146.43,68.02v12.2h3.25v-12.2h-3.25ZM148.06,81.85h12.2v-3.25h-12.2v3.25ZM158.63,80.22v4.07h3.25v-4.07h-3.25ZM160.26,82.66h-16.27v3.25h16.27v-3.25ZM145.62,84.29v-4.07h-3.25v4.07h3.25ZM143.99,78.6h-4.07v3.25h4.07v-3.25ZM141.55,80.22v-24.41h-3.25v24.41h3.25ZM172.46,59.89v-1.63h-1.63v1.63h1.63ZM188.73,59.89h1.63v-1.63h-1.63v1.63ZM188.73,63.95h-1.63v1.63h1.63v-1.63ZM192.8,63.95h1.63v-1.63h-1.63v1.63ZM192.8,84.29v1.63h1.63v-1.63h-1.63ZM172.46,84.29h-1.63v1.63h1.63v-1.63ZM172.46,80.22h1.63v-1.63h-1.63v1.63ZM168.4,80.22h-1.63v1.63h1.63v-1.63ZM168.4,72.09v-1.63h-1.63v1.63h1.63ZM172.46,72.09v1.63h1.63v-1.63h-1.63ZM172.46,68.02v-1.63h-1.63v1.63h1.63ZM184.67,68.02v1.63h1.63v-1.63h-1.63ZM184.67,63.95h1.63v-1.63h-1.63v1.63ZM172.46,63.95h-1.63v1.63h1.63v-1.63ZM176.53,72.09v-1.63h-1.63v1.63h1.63ZM176.53,80.22h-1.63v1.63h1.63v-1.63ZM184.67,80.22v1.63h1.63v-1.63h-1.63ZM184.67,72.09h1.63v-1.63h-1.63v1.63ZM172.46,61.51h16.27v-3.25h-16.27v3.25ZM187.11,59.89v4.07h3.25v-4.07h-3.25ZM188.73,65.58h4.07v-3.25h-4.07v3.25ZM191.17,63.95v20.34h3.25v-20.34h-3.25ZM192.8,82.66h-20.34v3.25h20.34v-3.25ZM174.09,84.29v-4.07h-3.25v4.07h3.25ZM172.46,78.6h-4.07v3.25h4.07v-3.25ZM170.02,80.22v-8.14h-3.25v8.14h3.25ZM168.4,73.72h4.07v-3.25h-4.07v3.25ZM174.09,72.09v-4.07h-3.25v4.07h3.25ZM172.46,69.65h12.2v-3.25h-12.2v3.25ZM186.29,68.02v-4.07h-3.25v4.07h3.25ZM184.67,62.33h-12.2v3.25h12.2v-3.25ZM174.09,63.95v-4.07h-3.25v4.07h3.25ZM174.9,72.09v8.14h3.25v-8.14h-3.25ZM176.53,81.85h8.14v-3.25h-8.14v3.25ZM186.29,80.22v-8.14h-3.25v8.14h3.25ZM184.67,70.46h-8.14v3.25h8.14v-3.25ZM205,59.89v-1.63h-1.63v1.63h1.63ZM213.14,59.89h1.63v-1.63h-1.63v1.63ZM213.14,80.22h-1.63v1.63h1.63v-1.63ZM221.27,80.22h1.63v-1.63h-1.63v1.63ZM221.27,84.29v1.63h1.63v-1.63h-1.63ZM209.07,84.29h-1.63v1.63h1.63v-1.63ZM209.07,80.22h1.63v-1.63h-1.63v1.63ZM205,80.22h-1.63v1.63h1.63v-1.63ZM205,61.51h8.14v-3.25h-8.14v3.25ZM211.51,59.89v20.34h3.25v-20.34h-3.25ZM213.14,81.85h8.14v-3.25h-8.14v3.25ZM219.65,80.22v4.07h3.25v-4.07h-3.25ZM221.27,82.66h-12.2v3.25h12.2v-3.25ZM210.7,84.29v-4.07h-3.25v4.07h3.25ZM209.07,78.6h-4.07v3.25h4.07v-3.25ZM206.63,80.22v-20.34h-3.25v20.34h3.25ZM266.02,55.82v-1.63h-1.63v1.63h1.63ZM290.42,55.82h1.63v-1.63h-1.63v1.63ZM290.42,59.89v1.63h1.63v-1.63h-1.63ZM282.29,59.89v-1.63h-1.63v1.63h1.63ZM282.29,84.29v1.63h1.63v-1.63h-1.63ZM274.15,84.29h-1.63v1.63h1.63v-1.63ZM274.15,59.89h1.63v-1.63h-1.63v1.63ZM266.02,59.89h-1.63v1.63h1.63v-1.63ZM266.02,57.45h24.41v-3.25h-24.41v3.25ZM288.79,55.82v4.07h3.25v-4.07h-3.25ZM290.42,58.26h-8.14v3.25h8.14v-3.25ZM280.66,59.89v24.41h3.25v-24.41h-3.25ZM282.29,82.66h-8.14v3.25h8.14v-3.25ZM275.78,84.29v-24.41h-3.25v24.41h3.25ZM274.15,58.26h-8.14v3.25h8.14v-3.25ZM267.64,59.89v-4.07h-3.25v4.07h3.25ZM302.62,59.89v-1.63h-1.63v1.63h1.63ZM318.89,59.89h1.63v-1.63h-1.63v1.63ZM318.89,63.95h-1.63v1.63h1.63v-1.63ZM322.96,63.95h1.63v-1.63h-1.63v1.63ZM322.96,84.29v1.63h1.63v-1.63h-1.63ZM302.62,84.29h-1.63v1.63h1.63v-1.63ZM302.62,80.22h1.63v-1.63h-1.63v1.63ZM298.56,80.22h-1.63v1.63h1.63v-1.63ZM298.56,72.09v-1.63h-1.63v1.63h1.63ZM302.62,72.09v1.63h1.63v-1.63h-1.63ZM302.62,68.02v-1.63h-1.63v1.63h1.63ZM314.83,68.02v1.63h1.63v-1.63h-1.63ZM314.83,63.95h1.63v-1.63h-1.63v1.63ZM302.62,63.95h-1.63v1.63h1.63v-1.63ZM306.69,72.09v-1.63h-1.63v1.63h1.63ZM306.69,80.22h-1.63v1.63h1.63v-1.63ZM314.83,80.22v1.63h1.63v-1.63h-1.63ZM314.83,72.09h1.63v-1.63h-1.63v1.63ZM302.62,61.51h16.27v-3.25h-16.27v3.25ZM317.27,59.89v4.07h3.25v-4.07h-3.25ZM318.89,65.58h4.07v-3.25h-4.07v3.25ZM321.33,63.95v20.34h3.25v-20.34h-3.25ZM322.96,82.66h-20.34v3.25h20.34v-3.25ZM304.25,84.29v-4.07h-3.25v4.07h3.25ZM302.62,78.6h-4.07v3.25h4.07v-3.25ZM300.18,80.22v-8.14h-3.25v8.14h3.25ZM298.56,73.72h4.07v-3.25h-4.07v3.25ZM304.25,72.09v-4.07h-3.25v4.07h3.25ZM302.62,69.65h12.2v-3.25h-12.2v3.25ZM316.45,68.02v-4.07h-3.25v4.07h3.25ZM314.83,62.33h-12.2v3.25h12.2v-3.25ZM304.25,63.95v-4.07h-3.25v4.07h3.25ZM305.06,72.09v8.14h3.25v-8.14h-3.25ZM306.69,81.85h8.14v-3.25h-8.14v3.25ZM316.45,80.22v-8.14h-3.25v8.14h3.25ZM314.83,70.46h-8.14v3.25h8.14v-3.25ZM331.1,59.89v-1.63h-1.63v1.63h1.63ZM351.43,59.89h1.63v-1.63h-1.63v1.63ZM351.43,63.95h-1.63v1.63h1.63v-1.63ZM355.5,63.95h1.63v-1.63h-1.63v1.63ZM355.5,76.16v1.63h1.63v-1.63h-1.63ZM351.43,76.16v-1.63h-1.63v1.63h1.63ZM351.43,80.22v1.63h1.63v-1.63h-1.63ZM339.23,80.22v-1.63h-1.63v1.63h1.63ZM339.23,88.36v1.63h1.63v-1.63h-1.63ZM331.1,88.36h-1.63v1.63h1.63v-1.63ZM339.23,63.95v-1.63h-1.63v1.63h1.63ZM339.23,76.16h-1.63v1.63h1.63v-1.63ZM347.37,76.16v1.63h1.63v-1.63h-1.63ZM347.37,63.95h1.63v-1.63h-1.63v1.63ZM331.1,61.51h20.34v-3.25h-20.34v3.25ZM349.81,59.89v4.07h3.25v-4.07h-3.25ZM351.43,65.58h4.07v-3.25h-4.07v3.25ZM353.87,63.95v12.2h3.25v-12.2h-3.25ZM355.5,74.53h-4.07v3.25h4.07v-3.25ZM349.81,76.16v4.07h3.25v-4.07h-3.25ZM351.43,78.6h-12.2v3.25h12.2v-3.25ZM337.6,80.22v8.14h3.25v-8.14h-3.25ZM339.23,86.73h-8.14v3.25h8.14v-3.25ZM332.72,88.36v-28.47h-3.25v28.47h3.25ZM337.6,63.95v12.2h3.25v-12.2h-3.25ZM339.23,77.78h8.14v-3.25h-8.14v3.25ZM348.99,76.16v-12.2h-3.25v12.2h3.25ZM347.37,62.33h-8.14v3.25h8.14v-3.25ZM367.7,59.89v-1.63h-1.63v1.63h1.63ZM383.97,59.89h1.63v-1.63h-1.63v1.63ZM383.97,63.95h-1.63v1.63h1.63v-1.63ZM388.04,63.95h1.63v-1.63h-1.63v1.63ZM388.04,72.09v1.63h1.63v-1.63h-1.63ZM371.77,72.09v-1.63h-1.63v1.63h1.63ZM371.77,80.22h-1.63v1.63h1.63v-1.63ZM388.04,80.22h1.63v-1.63h-1.63v1.63ZM388.04,84.29v1.63h1.63v-1.63h-1.63ZM367.7,84.29h-1.63v1.63h1.63v-1.63ZM367.7,80.22h1.63v-1.63h-1.63v1.63ZM363.64,80.22h-1.63v1.63h1.63v-1.63ZM363.64,63.95v-1.63h-1.63v1.63h1.63ZM367.7,63.95v1.63h1.63v-1.63h-1.63ZM371.77,63.95v-1.63h-1.63v1.63h1.63ZM371.77,68.02h-1.63v1.63h1.63v-1.63ZM379.91,68.02v1.63h1.63v-1.63h-1.63ZM379.91,63.95h1.63v-1.63h-1.63v1.63ZM367.7,61.51h16.27v-3.25h-16.27v3.25ZM382.35,59.89v4.07h3.25v-4.07h-3.25ZM383.97,65.58h4.07v-3.25h-4.07v3.25ZM386.41,63.95v8.14h3.25v-8.14h-3.25ZM388.04,70.46h-16.27v3.25h16.27v-3.25ZM370.14,72.09v8.14h3.25v-8.14h-3.25ZM371.77,81.85h16.27v-3.25h-16.27v3.25ZM386.41,80.22v4.07h3.25v-4.07h-3.25ZM388.04,82.66h-20.34v3.25h20.34v-3.25ZM369.33,84.29v-4.07h-3.25v4.07h3.25ZM367.7,78.6h-4.07v3.25h4.07v-3.25ZM365.26,80.22v-16.27h-3.25v16.27h3.25ZM363.64,65.58h4.07v-3.25h-4.07v3.25ZM369.33,63.95v-4.07h-3.25v4.07h3.25ZM370.14,63.95v4.07h3.25v-4.07h-3.25ZM371.77,69.65h8.14v-3.25h-8.14v3.25ZM381.53,68.02v-4.07h-3.25v4.07h3.25ZM379.91,62.33h-8.14v3.25h8.14v-3.25ZM400.24,59.89v-1.63h-1.63v1.63h1.63ZM416.51,59.89h1.63v-1.63h-1.63v1.63ZM416.51,63.95v1.63h1.63v-1.63h-1.63ZM404.31,63.95v-1.63h-1.63v1.63h1.63ZM404.31,68.02h-1.63v1.63h1.63v-1.63ZM416.51,68.02h1.63v-1.63h-1.63v1.63ZM416.51,72.09h-1.63v1.63h1.63v-1.63ZM420.58,72.09h1.63v-1.63h-1.63v1.63ZM420.58,80.22v1.63h1.63v-1.63h-1.63ZM416.51,80.22v-1.63h-1.63v1.63h1.63ZM416.51,84.29v1.63h1.63v-1.63h-1.63ZM400.24,84.29h-1.63v1.63h1.63v-1.63ZM400.24,80.22h1.63v-1.63h-1.63v1.63ZM396.18,80.22h-1.63v1.63h1.63v-1.63ZM396.18,76.16v-1.63h-1.63v1.63h1.63ZM404.31,76.16h1.63v-1.63h-1.63v1.63ZM404.31,80.22h-1.63v1.63h1.63v-1.63ZM412.45,80.22v1.63h1.63v-1.63h-1.63ZM412.45,72.09h1.63v-1.63h-1.63v1.63ZM400.24,72.09h-1.63v1.63h1.63v-1.63ZM400.24,68.02h1.63v-1.63h-1.63v1.63ZM396.18,68.02h-1.63v1.63h1.63v-1.63ZM396.18,63.95v-1.63h-1.63v1.63h1.63ZM400.24,63.95v1.63h1.63v-1.63h-1.63ZM400.24,61.51h16.27v-3.25h-16.27v3.25ZM414.89,59.89v4.07h3.25v-4.07h-3.25ZM416.51,62.33h-12.2v3.25h12.2v-3.25ZM402.68,63.95v4.07h3.25v-4.07h-3.25ZM404.31,69.65h12.2v-3.25h-12.2v3.25ZM414.89,68.02v4.07h3.25v-4.07h-3.25ZM416.51,73.72h4.07v-3.25h-4.07v3.25ZM418.95,72.09v8.14h3.25v-8.14h-3.25ZM420.58,78.6h-4.07v3.25h4.07v-3.25ZM414.89,80.22v4.07h3.25v-4.07h-3.25ZM416.51,82.66h-16.27v3.25h16.27v-3.25ZM401.87,84.29v-4.07h-3.25v4.07h3.25ZM400.24,78.6h-4.07v3.25h4.07v-3.25ZM397.8,80.22v-4.07h-3.25v4.07h3.25ZM396.18,77.78h8.14v-3.25h-8.14v3.25ZM402.68,76.16v4.07h3.25v-4.07h-3.25ZM404.31,81.85h8.14v-3.25h-8.14v3.25ZM414.07,80.22v-8.14h-3.25v8.14h3.25ZM412.45,70.46h-12.2v3.25h12.2v-3.25ZM401.87,72.09v-4.07h-3.25v4.07h3.25ZM400.24,66.39h-4.07v3.25h4.07v-3.25ZM397.8,68.02v-4.07h-3.25v4.07h3.25ZM396.18,65.58h4.07v-3.25h-4.07v3.25ZM401.87,63.95v-4.07h-3.25v4.07h3.25ZM432.78,55.82v-1.63h-1.63v1.63h1.63ZM440.92,55.82h1.63v-1.63h-1.63v1.63ZM440.92,63.95h-1.63v1.63h1.63v-1.63ZM453.12,63.95h1.63v-1.63h-1.63v1.63ZM453.12,68.02v1.63h1.63v-1.63h-1.63ZM440.92,68.02v-1.63h-1.63v1.63h1.63ZM440.92,80.22h-1.63v1.63h1.63v-1.63ZM453.12,80.22h1.63v-1.63h-1.63v1.63ZM453.12,84.29v1.63h1.63v-1.63h-1.63ZM436.85,84.29h-1.63v1.63h1.63v-1.63ZM436.85,80.22h1.63v-1.63h-1.63v1.63ZM432.78,80.22h-1.63v1.63h1.63v-1.63ZM432.78,57.45h8.14v-3.25h-8.14v3.25ZM439.29,55.82v8.14h3.25v-8.14h-3.25ZM440.92,65.58h12.2v-3.25h-12.2v3.25ZM451.5,63.95v4.07h3.25v-4.07h-3.25ZM453.12,66.39h-12.2v3.25h12.2v-3.25ZM439.29,68.02v12.2h3.25v-12.2h-3.25ZM440.92,81.85h12.2v-3.25h-12.2v3.25ZM451.5,80.22v4.07h3.25v-4.07h-3.25ZM453.12,82.66h-16.27v3.25h16.27v-3.25ZM438.48,84.29v-4.07h-3.25v4.07h3.25ZM436.85,78.6h-4.07v3.25h4.07v-3.25ZM434.41,80.22v-24.41h-3.25v24.41h3.25ZM469.39,59.89v-1.63h-1.63v1.63h1.63ZM485.66,59.89h1.63v-1.63h-1.63v1.63ZM485.66,63.95v1.63h1.63v-1.63h-1.63ZM477.53,63.95v-1.63h-1.63v1.63h1.63ZM477.53,68.02v1.63h1.63v-1.63h-1.63ZM473.46,68.02v-1.63h-1.63v1.63h1.63ZM473.46,84.29v1.63h1.63v-1.63h-1.63ZM465.32,84.29h-1.63v1.63h1.63v-1.63ZM465.32,63.95v-1.63h-1.63v1.63h1.63ZM469.39,63.95v1.63h1.63v-1.63h-1.63ZM469.39,61.51h16.27v-3.25h-16.27v3.25ZM484.04,59.89v4.07h3.25v-4.07h-3.25ZM485.66,62.33h-8.14v3.25h8.14v-3.25ZM475.9,63.95v4.07h3.25v-4.07h-3.25ZM477.53,66.39h-4.07v3.25h4.07v-3.25ZM471.83,68.02v16.27h3.25v-16.27h-3.25ZM473.46,82.66h-8.14v3.25h8.14v-3.25ZM466.95,84.29v-20.34h-3.25v20.34h3.25ZM465.32,65.58h4.07v-3.25h-4.07v3.25ZM471.02,63.95v-4.07h-3.25v4.07h3.25ZM497.86,59.89v-1.63h-1.63v1.63h1.63ZM506,59.89h1.63v-1.63h-1.63v1.63ZM506,72.09h-1.63v1.63h1.63v-1.63ZM510.07,72.09v1.63h1.63v-1.63h-1.63ZM510.07,59.89v-1.63h-1.63v1.63h1.63ZM518.2,59.89h1.63v-1.63h-1.63v1.63ZM518.2,72.09v1.63h1.63v-1.63h-1.63ZM514.14,72.09v-1.63h-1.63v1.63h1.63ZM514.14,80.22v1.63h1.63v-1.63h-1.63ZM510.07,80.22v-1.63h-1.63v1.63h1.63ZM510.07,84.29v1.63h1.63v-1.63h-1.63ZM497.86,84.29h-1.63v1.63h1.63v-1.63ZM497.86,80.22v-1.63h-1.63v1.63h1.63ZM506,80.22v1.63h1.63v-1.63h-1.63ZM506,76.16h1.63v-1.63h-1.63v1.63ZM501.93,76.16h-1.63v1.63h1.63v-1.63ZM501.93,72.09h1.63v-1.63h-1.63v1.63ZM497.86,72.09h-1.63v1.63h1.63v-1.63ZM497.86,61.51h8.14v-3.25h-8.14v3.25ZM504.37,59.89v12.2h3.25v-12.2h-3.25ZM506,73.72h4.07v-3.25h-4.07v3.25ZM511.69,72.09v-12.2h-3.25v12.2h3.25ZM510.07,61.51h8.14v-3.25h-8.14v3.25ZM516.58,59.89v12.2h3.25v-12.2h-3.25ZM518.2,70.46h-4.07v3.25h4.07v-3.25ZM512.51,72.09v8.14h3.25v-8.14h-3.25ZM514.14,78.6h-4.07v3.25h4.07v-3.25ZM508.44,80.22v4.07h3.25v-4.07h-3.25ZM510.07,82.66h-12.2v3.25h12.2v-3.25ZM499.49,84.29v-4.07h-3.25v4.07h3.25ZM497.86,81.85h8.14v-3.25h-8.14v3.25ZM507.63,80.22v-4.07h-3.25v4.07h3.25ZM506,74.53h-4.07v3.25h4.07v-3.25ZM503.56,76.16v-4.07h-3.25v4.07h3.25ZM501.93,70.46h-4.07v3.25h4.07v-3.25ZM499.49,72.09v-12.2h-3.25v12.2h3.25Z"/>
  </g>
  <g class="cls-13">
    <path class="cls-8" d="M1.63,15.14v-1.63H0v1.63h1.63ZM9.76,15.14h1.63v-1.63h-1.63v1.63ZM9.76,35.48h-1.63v1.63h1.63v-1.63ZM13.83,35.48v1.63h1.63v-1.63h-1.63ZM13.83,23.28v-1.63h-1.63v1.63h1.63ZM21.96,23.28h1.63v-1.63h-1.63v1.63ZM21.96,35.48h-1.63v1.63h1.63v-1.63ZM26.03,35.48v1.63h1.63v-1.63h-1.63ZM26.03,15.14v-1.63h-1.63v1.63h1.63ZM34.17,15.14h1.63v-1.63h-1.63v1.63ZM34.17,39.55v1.63h1.63v-1.63h-1.63ZM30.1,39.55v-1.63h-1.63v1.63h1.63ZM30.1,43.62v1.63h1.63v-1.63h-1.63ZM21.96,43.62h-1.63v1.63h1.63v-1.63ZM21.96,39.55h1.63v-1.63h-1.63v1.63ZM13.83,39.55v-1.63h-1.63v1.63h1.63ZM13.83,43.62v1.63h1.63v-1.63h-1.63ZM5.69,43.62h-1.63v1.63h1.63v-1.63ZM5.69,39.55h1.63v-1.63h-1.63v1.63ZM1.63,39.55H0v1.63h1.63v-1.63ZM1.63,16.77h8.14v-3.25H1.63v3.25ZM8.14,15.14v20.34h3.25V15.14h-3.25ZM9.76,37.11h4.07v-3.25h-4.07v3.25ZM15.46,35.48v-12.2h-3.25v12.2h3.25ZM13.83,24.91h8.14v-3.25h-8.14v3.25ZM20.34,23.28v12.2h3.25v-12.2h-3.25ZM21.96,37.11h4.07v-3.25h-4.07v3.25ZM27.66,35.48V15.14h-3.25v20.34h3.25ZM26.03,16.77h8.14v-3.25h-8.14v3.25ZM32.54,15.14v24.41h3.25V15.14h-3.25ZM34.17,37.92h-4.07v3.25h4.07v-3.25ZM28.47,39.55v4.07h3.25v-4.07h-3.25ZM30.1,41.99h-8.14v3.25h8.14v-3.25ZM23.59,43.62v-4.07h-3.25v4.07h3.25ZM21.96,37.92h-8.14v3.25h8.14v-3.25ZM12.2,39.55v4.07h3.25v-4.07h-3.25ZM13.83,41.99H5.69v3.25h8.14v-3.25ZM7.32,43.62v-4.07h-3.25v4.07h3.25ZM5.69,37.92H1.63v3.25h4.07v-3.25ZM3.25,39.55V15.14H0v24.41h3.25ZM42.3,19.21v-1.63h-1.63v1.63h1.63ZM58.57,19.21h1.63v-1.63h-1.63v1.63ZM58.57,23.28h-1.63v1.63h1.63v-1.63ZM62.64,23.28h1.63v-1.63h-1.63v1.63ZM62.64,31.41v1.63h1.63v-1.63h-1.63ZM46.37,31.41v-1.63h-1.63v1.63h1.63ZM46.37,39.55h-1.63v1.63h1.63v-1.63ZM62.64,39.55h1.63v-1.63h-1.63v1.63ZM62.64,43.62v1.63h1.63v-1.63h-1.63ZM42.3,43.62h-1.63v1.63h1.63v-1.63ZM42.3,39.55h1.63v-1.63h-1.63v1.63ZM38.23,39.55h-1.63v1.63h1.63v-1.63ZM38.23,23.28v-1.63h-1.63v1.63h1.63ZM42.3,23.28v1.63h1.63v-1.63h-1.63ZM46.37,23.28v-1.63h-1.63v1.63h1.63ZM46.37,27.35h-1.63v1.63h1.63v-1.63ZM54.5,27.35v1.63h1.63v-1.63h-1.63ZM54.5,23.28h1.63v-1.63h-1.63v1.63ZM42.3,20.84h16.27v-3.25h-16.27v3.25ZM56.95,19.21v4.07h3.25v-4.07h-3.25ZM58.57,24.91h4.07v-3.25h-4.07v3.25ZM61.01,23.28v8.14h3.25v-8.14h-3.25ZM62.64,29.79h-16.27v3.25h16.27v-3.25ZM44.74,31.41v8.14h3.25v-8.14h-3.25ZM46.37,41.18h16.27v-3.25h-16.27v3.25ZM61.01,39.55v4.07h3.25v-4.07h-3.25ZM62.64,41.99h-20.34v3.25h20.34v-3.25ZM43.93,43.62v-4.07h-3.25v4.07h3.25ZM42.3,37.92h-4.07v3.25h4.07v-3.25ZM39.86,39.55v-16.27h-3.25v16.27h3.25ZM38.23,24.91h4.07v-3.25h-4.07v3.25ZM43.93,23.28v-4.07h-3.25v4.07h3.25ZM44.74,23.28v4.07h3.25v-4.07h-3.25ZM46.37,28.97h8.14v-3.25h-8.14v3.25ZM56.13,27.35v-4.07h-3.25v4.07h3.25ZM54.5,21.65h-8.14v3.25h8.14v-3.25ZM74.84,19.21v-1.63h-1.63v1.63h1.63ZM91.11,19.21h1.63v-1.63h-1.63v1.63ZM91.11,23.28h-1.63v1.63h1.63v-1.63ZM95.18,23.28h1.63v-1.63h-1.63v1.63ZM95.18,43.62v1.63h1.63v-1.63h-1.63ZM74.84,43.62h-1.63v1.63h1.63v-1.63ZM74.84,39.55h1.63v-1.63h-1.63v1.63ZM70.77,39.55h-1.63v1.63h1.63v-1.63ZM70.77,31.41v-1.63h-1.63v1.63h1.63ZM74.84,31.41v1.63h1.63v-1.63h-1.63ZM74.84,27.35v-1.63h-1.63v1.63h1.63ZM87.05,27.35v1.63h1.63v-1.63h-1.63ZM87.05,23.28h1.63v-1.63h-1.63v1.63ZM74.84,23.28h-1.63v1.63h1.63v-1.63ZM78.91,31.41v-1.63h-1.63v1.63h1.63ZM78.91,39.55h-1.63v1.63h1.63v-1.63ZM87.05,39.55v1.63h1.63v-1.63h-1.63ZM87.05,31.41h1.63v-1.63h-1.63v1.63ZM74.84,20.84h16.27v-3.25h-16.27v3.25ZM89.49,19.21v4.07h3.25v-4.07h-3.25ZM91.11,24.91h4.07v-3.25h-4.07v3.25ZM93.55,23.28v20.34h3.25v-20.34h-3.25ZM95.18,41.99h-20.34v3.25h20.34v-3.25ZM76.47,43.62v-4.07h-3.25v4.07h3.25ZM74.84,37.92h-4.07v3.25h4.07v-3.25ZM72.4,39.55v-8.14h-3.25v8.14h3.25ZM70.77,33.04h4.07v-3.25h-4.07v3.25ZM76.47,31.41v-4.07h-3.25v4.07h3.25ZM74.84,28.97h12.2v-3.25h-12.2v3.25ZM88.67,27.35v-4.07h-3.25v4.07h3.25ZM87.05,21.65h-12.2v3.25h12.2v-3.25ZM76.47,23.28v-4.07h-3.25v4.07h3.25ZM77.28,31.41v8.14h3.25v-8.14h-3.25ZM78.91,41.18h8.14v-3.25h-8.14v3.25ZM88.67,39.55v-8.14h-3.25v8.14h3.25ZM87.05,29.79h-8.14v3.25h8.14v-3.25ZM103.32,19.21v-1.63h-1.63v1.63h1.63ZM111.45,19.21h1.63v-1.63h-1.63v1.63ZM111.45,31.41h-1.63v1.63h1.63v-1.63ZM119.59,31.41v1.63h1.63v-1.63h-1.63ZM119.59,19.21v-1.63h-1.63v1.63h1.63ZM127.72,19.21h1.63v-1.63h-1.63v1.63ZM127.72,31.41v1.63h1.63v-1.63h-1.63ZM123.65,31.41v-1.63h-1.63v1.63h1.63ZM123.65,39.55v1.63h1.63v-1.63h-1.63ZM119.59,39.55v-1.63h-1.63v1.63h1.63ZM119.59,43.62v1.63h1.63v-1.63h-1.63ZM111.45,43.62h-1.63v1.63h1.63v-1.63ZM111.45,39.55h1.63v-1.63h-1.63v1.63ZM107.38,39.55h-1.63v1.63h1.63v-1.63ZM107.38,31.41h1.63v-1.63h-1.63v1.63ZM103.32,31.41h-1.63v1.63h1.63v-1.63ZM103.32,20.84h8.14v-3.25h-8.14v3.25ZM109.82,19.21v12.2h3.25v-12.2h-3.25ZM111.45,33.04h8.14v-3.25h-8.14v3.25ZM121.21,31.41v-12.2h-3.25v12.2h3.25ZM119.59,20.84h8.14v-3.25h-8.14v3.25ZM126.09,19.21v12.2h3.25v-12.2h-3.25ZM127.72,29.79h-4.07v3.25h4.07v-3.25ZM122.03,31.41v8.14h3.25v-8.14h-3.25ZM123.65,37.92h-4.07v3.25h4.07v-3.25ZM117.96,39.55v4.07h3.25v-4.07h-3.25ZM119.59,41.99h-8.14v3.25h8.14v-3.25ZM113.08,43.62v-4.07h-3.25v4.07h3.25ZM111.45,37.92h-4.07v3.25h4.07v-3.25ZM109.01,39.55v-8.14h-3.25v8.14h3.25ZM107.38,29.79h-4.07v3.25h4.07v-3.25ZM104.94,31.41v-12.2h-3.25v12.2h3.25ZM143.99,15.14v-1.63h-1.63v1.63h1.63ZM152.13,15.14h1.63v-1.63h-1.63v1.63ZM152.13,19.21v1.63h1.63v-1.63h-1.63ZM143.99,19.21h-1.63v1.63h1.63v-1.63ZM139.92,23.28v-1.63h-1.63v1.63h1.63ZM152.13,23.28h1.63v-1.63h-1.63v1.63ZM152.13,39.55h-1.63v1.63h1.63v-1.63ZM156.19,39.55h1.63v-1.63h-1.63v1.63ZM156.19,43.62v1.63h1.63v-1.63h-1.63ZM139.92,43.62h-1.63v1.63h1.63v-1.63ZM139.92,39.55v-1.63h-1.63v1.63h1.63ZM143.99,39.55v1.63h1.63v-1.63h-1.63ZM143.99,27.35h1.63v-1.63h-1.63v1.63ZM139.92,27.35h-1.63v1.63h1.63v-1.63ZM143.99,16.77h8.14v-3.25h-8.14v3.25ZM150.5,15.14v4.07h3.25v-4.07h-3.25ZM152.13,17.58h-8.14v3.25h8.14v-3.25ZM145.62,19.21v-4.07h-3.25v4.07h3.25ZM139.92,24.91h12.2v-3.25h-12.2v3.25ZM150.5,23.28v16.27h3.25v-16.27h-3.25ZM152.13,41.18h4.07v-3.25h-4.07v3.25ZM154.57,39.55v4.07h3.25v-4.07h-3.25ZM156.19,41.99h-16.27v3.25h16.27v-3.25ZM141.55,43.62v-4.07h-3.25v4.07h3.25ZM139.92,41.18h4.07v-3.25h-4.07v3.25ZM145.62,39.55v-12.2h-3.25v12.2h3.25ZM143.99,25.72h-4.07v3.25h4.07v-3.25ZM141.55,27.35v-4.07h-3.25v4.07h3.25ZM176.53,19.21v-1.63h-1.63v1.63h1.63ZM188.73,19.21h1.63v-1.63h-1.63v1.63ZM188.73,23.28h-1.63v1.63h1.63v-1.63ZM192.8,23.28h1.63v-1.63h-1.63v1.63ZM192.8,43.62v1.63h1.63v-1.63h-1.63ZM184.67,43.62h-1.63v1.63h1.63v-1.63ZM184.67,23.28h1.63v-1.63h-1.63v1.63ZM180.6,23.28v-1.63h-1.63v1.63h1.63ZM180.6,27.35v1.63h1.63v-1.63h-1.63ZM176.53,27.35v-1.63h-1.63v1.63h1.63ZM176.53,43.62v1.63h1.63v-1.63h-1.63ZM168.4,43.62h-1.63v1.63h1.63v-1.63ZM168.4,23.28v-1.63h-1.63v1.63h1.63ZM176.53,23.28v1.63h1.63v-1.63h-1.63ZM176.53,20.84h12.2v-3.25h-12.2v3.25ZM187.11,19.21v4.07h3.25v-4.07h-3.25ZM188.73,24.91h4.07v-3.25h-4.07v3.25ZM191.17,23.28v20.34h3.25v-20.34h-3.25ZM192.8,41.99h-8.14v3.25h8.14v-3.25ZM186.29,43.62v-20.34h-3.25v20.34h3.25ZM184.67,21.65h-4.07v3.25h4.07v-3.25ZM178.97,23.28v4.07h3.25v-4.07h-3.25ZM180.6,25.72h-4.07v3.25h4.07v-3.25ZM174.9,27.35v16.27h3.25v-16.27h-3.25ZM176.53,41.99h-8.14v3.25h8.14v-3.25ZM170.02,43.62v-20.34h-3.25v20.34h3.25ZM168.4,24.91h8.14v-3.25h-8.14v3.25ZM178.16,23.28v-4.07h-3.25v4.07h3.25ZM205,19.21v-1.63h-1.63v1.63h1.63ZM225.34,19.21h1.63v-1.63h-1.63v1.63ZM225.34,43.62v1.63h1.63v-1.63h-1.63ZM221.27,43.62v-1.63h-1.63v1.63h1.63ZM221.27,47.68v1.63h1.63v-1.63h-1.63ZM205,47.68h-1.63v1.63h1.63v-1.63ZM205,43.62v-1.63h-1.63v1.63h1.63ZM217.21,43.62v1.63h1.63v-1.63h-1.63ZM217.21,39.55h1.63v-1.63h-1.63v1.63ZM205,39.55h-1.63v1.63h1.63v-1.63ZM205,35.48h1.63v-1.63h-1.63v1.63ZM200.94,35.48h-1.63v1.63h1.63v-1.63ZM200.94,23.28v-1.63h-1.63v1.63h1.63ZM205,23.28v1.63h1.63v-1.63h-1.63ZM209.07,23.28v-1.63h-1.63v1.63h1.63ZM209.07,35.48h-1.63v1.63h1.63v-1.63ZM217.21,35.48v1.63h1.63v-1.63h-1.63ZM217.21,23.28h1.63v-1.63h-1.63v1.63ZM205,20.84h20.34v-3.25h-20.34v3.25ZM223.71,19.21v24.41h3.25v-24.41h-3.25ZM225.34,41.99h-4.07v3.25h4.07v-3.25ZM219.65,43.62v4.07h3.25v-4.07h-3.25ZM221.27,46.06h-16.27v3.25h16.27v-3.25ZM206.63,47.68v-4.07h-3.25v4.07h3.25ZM205,45.24h12.2v-3.25h-12.2v3.25ZM218.83,43.62v-4.07h-3.25v4.07h3.25ZM217.21,37.92h-12.2v3.25h12.2v-3.25ZM206.63,39.55v-4.07h-3.25v4.07h3.25ZM205,33.85h-4.07v3.25h4.07v-3.25ZM202.56,35.48v-12.2h-3.25v12.2h3.25ZM200.94,24.91h4.07v-3.25h-4.07v3.25ZM206.63,23.28v-4.07h-3.25v4.07h3.25ZM207.44,23.28v12.2h3.25v-12.2h-3.25ZM209.07,37.11h8.14v-3.25h-8.14v3.25ZM218.83,35.48v-12.2h-3.25v12.2h3.25ZM217.21,21.65h-8.14v3.25h8.14v-3.25ZM270.08,15.14v-1.63h-1.63v1.63h1.63ZM278.22,15.14h1.63v-1.63h-1.63v1.63ZM278.22,23.28h-1.63v1.63h1.63v-1.63ZM290.42,23.28h1.63v-1.63h-1.63v1.63ZM290.42,27.35v1.63h1.63v-1.63h-1.63ZM278.22,27.35v-1.63h-1.63v1.63h1.63ZM278.22,39.55h-1.63v1.63h1.63v-1.63ZM290.42,39.55h1.63v-1.63h-1.63v1.63ZM290.42,43.62v1.63h1.63v-1.63h-1.63ZM274.15,43.62h-1.63v1.63h1.63v-1.63ZM274.15,39.55h1.63v-1.63h-1.63v1.63ZM270.08,39.55h-1.63v1.63h1.63v-1.63ZM270.08,16.77h8.14v-3.25h-8.14v3.25ZM276.59,15.14v8.14h3.25v-8.14h-3.25ZM278.22,24.91h12.2v-3.25h-12.2v3.25ZM288.79,23.28v4.07h3.25v-4.07h-3.25ZM290.42,25.72h-12.2v3.25h12.2v-3.25ZM276.59,27.35v12.2h3.25v-12.2h-3.25ZM278.22,41.18h12.2v-3.25h-12.2v3.25ZM288.79,39.55v4.07h3.25v-4.07h-3.25ZM290.42,41.99h-16.27v3.25h16.27v-3.25ZM275.78,43.62v-4.07h-3.25v4.07h3.25ZM274.15,37.92h-4.07v3.25h4.07v-3.25ZM271.71,39.55V15.14h-3.25v24.41h3.25ZM298.56,15.14v-1.63h-1.63v1.63h1.63ZM306.69,15.14h1.63v-1.63h-1.63v1.63ZM306.69,23.28h-1.63v1.63h1.63v-1.63ZM318.89,23.28h1.63v-1.63h-1.63v1.63ZM318.89,27.35h-1.63v1.63h1.63v-1.63ZM322.96,27.35h1.63v-1.63h-1.63v1.63ZM322.96,43.62v1.63h1.63v-1.63h-1.63ZM314.83,43.62h-1.63v1.63h1.63v-1.63ZM314.83,27.35h1.63v-1.63h-1.63v1.63ZM310.76,27.35v-1.63h-1.63v1.63h1.63ZM310.76,31.41v1.63h1.63v-1.63h-1.63ZM306.69,31.41v-1.63h-1.63v1.63h1.63ZM306.69,43.62v1.63h1.63v-1.63h-1.63ZM298.56,43.62h-1.63v1.63h1.63v-1.63ZM298.56,16.77h8.14v-3.25h-8.14v3.25ZM305.06,15.14v8.14h3.25v-8.14h-3.25ZM306.69,24.91h12.2v-3.25h-12.2v3.25ZM317.27,23.28v4.07h3.25v-4.07h-3.25ZM318.89,28.97h4.07v-3.25h-4.07v3.25ZM321.33,27.35v16.27h3.25v-16.27h-3.25ZM322.96,41.99h-8.14v3.25h8.14v-3.25ZM316.45,43.62v-16.27h-3.25v16.27h3.25ZM314.83,25.72h-4.07v3.25h4.07v-3.25ZM309.13,27.35v4.07h3.25v-4.07h-3.25ZM310.76,29.79h-4.07v3.25h4.07v-3.25ZM305.06,31.41v12.2h3.25v-12.2h-3.25ZM306.69,41.99h-8.14v3.25h8.14v-3.25ZM300.18,43.62V15.14h-3.25v28.47h3.25ZM335.16,19.21v-1.63h-1.63v1.63h1.63ZM351.43,19.21h1.63v-1.63h-1.63v1.63ZM351.43,23.28h-1.63v1.63h1.63v-1.63ZM355.5,23.28h1.63v-1.63h-1.63v1.63ZM355.5,31.41v1.63h1.63v-1.63h-1.63ZM339.23,31.41v-1.63h-1.63v1.63h1.63ZM339.23,39.55h-1.63v1.63h1.63v-1.63ZM355.5,39.55h1.63v-1.63h-1.63v1.63ZM355.5,43.62v1.63h1.63v-1.63h-1.63ZM335.16,43.62h-1.63v1.63h1.63v-1.63ZM335.16,39.55h1.63v-1.63h-1.63v1.63ZM331.1,39.55h-1.63v1.63h1.63v-1.63ZM331.1,23.28v-1.63h-1.63v1.63h1.63ZM335.16,23.28v1.63h1.63v-1.63h-1.63ZM339.23,23.28v-1.63h-1.63v1.63h1.63ZM339.23,27.35h-1.63v1.63h1.63v-1.63ZM347.37,27.35v1.63h1.63v-1.63h-1.63ZM347.37,23.28h1.63v-1.63h-1.63v1.63ZM335.16,20.84h16.27v-3.25h-16.27v3.25ZM349.81,19.21v4.07h3.25v-4.07h-3.25ZM351.43,24.91h4.07v-3.25h-4.07v3.25ZM353.87,23.28v8.14h3.25v-8.14h-3.25ZM355.5,29.79h-16.27v3.25h16.27v-3.25ZM337.6,31.41v8.14h3.25v-8.14h-3.25ZM339.23,41.18h16.27v-3.25h-16.27v3.25ZM353.87,39.55v4.07h3.25v-4.07h-3.25ZM355.5,41.99h-20.34v3.25h20.34v-3.25ZM336.79,43.62v-4.07h-3.25v4.07h3.25ZM335.16,37.92h-4.07v3.25h4.07v-3.25ZM332.72,39.55v-16.27h-3.25v16.27h3.25ZM331.1,24.91h4.07v-3.25h-4.07v3.25ZM336.79,23.28v-4.07h-3.25v4.07h3.25ZM337.6,23.28v4.07h3.25v-4.07h-3.25ZM339.23,28.97h8.14v-3.25h-8.14v3.25ZM348.99,27.35v-4.07h-3.25v4.07h3.25ZM347.37,21.65h-8.14v3.25h8.14v-3.25ZM1.63,55.82v-1.63H0v1.63h1.63ZM26.03,55.82h1.63v-1.63h-1.63v1.63ZM26.03,59.89h-1.63v1.63h1.63v-1.63ZM30.1,59.89h1.63v-1.63h-1.63v1.63ZM30.1,80.22v1.63h1.63v-1.63h-1.63ZM26.03,80.22v-1.63h-1.63v1.63h1.63ZM26.03,84.29v1.63h1.63v-1.63h-1.63ZM5.69,84.29h-1.63v1.63h1.63v-1.63ZM5.69,59.89h1.63v-1.63h-1.63v1.63ZM1.63,59.89H0v1.63h1.63v-1.63ZM13.83,59.89v-1.63h-1.63v1.63h1.63ZM13.83,80.22h-1.63v1.63h1.63v-1.63ZM21.96,80.22v1.63h1.63v-1.63h-1.63ZM21.96,59.89h1.63v-1.63h-1.63v1.63ZM1.63,57.45h24.41v-3.25H1.63v3.25ZM24.41,55.82v4.07h3.25v-4.07h-3.25ZM26.03,61.51h4.07v-3.25h-4.07v3.25ZM28.47,59.89v20.34h3.25v-20.34h-3.25ZM30.1,78.6h-4.07v3.25h4.07v-3.25ZM24.41,80.22v4.07h3.25v-4.07h-3.25ZM26.03,82.66H5.69v3.25h20.34v-3.25ZM7.32,84.29v-24.41h-3.25v24.41h3.25ZM5.69,58.26H1.63v3.25h4.07v-3.25ZM3.25,59.89v-4.07H0v4.07h3.25ZM12.2,59.89v20.34h3.25v-20.34h-3.25ZM13.83,81.85h8.14v-3.25h-8.14v3.25ZM23.59,80.22v-20.34h-3.25v20.34h3.25ZM21.96,58.26h-8.14v3.25h8.14v-3.25ZM46.37,55.82v-1.63h-1.63v1.63h1.63ZM54.5,55.82h1.63v-1.63h-1.63v1.63ZM54.5,59.89v1.63h1.63v-1.63h-1.63ZM46.37,59.89h-1.63v1.63h1.63v-1.63ZM42.3,63.95v-1.63h-1.63v1.63h1.63ZM54.5,63.95h1.63v-1.63h-1.63v1.63ZM54.5,80.22h-1.63v1.63h1.63v-1.63ZM58.57,80.22h1.63v-1.63h-1.63v1.63ZM58.57,84.29v1.63h1.63v-1.63h-1.63ZM42.3,84.29h-1.63v1.63h1.63v-1.63ZM42.3,80.22v-1.63h-1.63v1.63h1.63ZM46.37,80.22v1.63h1.63v-1.63h-1.63ZM46.37,68.02h1.63v-1.63h-1.63v1.63ZM42.3,68.02h-1.63v1.63h1.63v-1.63ZM46.37,57.45h8.14v-3.25h-8.14v3.25ZM52.88,55.82v4.07h3.25v-4.07h-3.25ZM54.5,58.26h-8.14v3.25h8.14v-3.25ZM48,59.89v-4.07h-3.25v4.07h3.25ZM42.3,65.58h12.2v-3.25h-12.2v3.25ZM52.88,63.95v16.27h3.25v-16.27h-3.25ZM54.5,81.85h4.07v-3.25h-4.07v3.25ZM56.95,80.22v4.07h3.25v-4.07h-3.25ZM58.57,82.66h-16.27v3.25h16.27v-3.25ZM43.93,84.29v-4.07h-3.25v4.07h3.25ZM42.3,81.85h4.07v-3.25h-4.07v3.25ZM48,80.22v-12.2h-3.25v12.2h3.25ZM46.37,66.39h-4.07v3.25h4.07v-3.25ZM43.93,68.02v-4.07h-3.25v4.07h3.25ZM74.84,59.89v-1.63h-1.63v1.63h1.63ZM95.18,59.89h1.63v-1.63h-1.63v1.63ZM95.18,84.29v1.63h1.63v-1.63h-1.63ZM91.11,84.29v-1.63h-1.63v1.63h1.63ZM91.11,88.36v1.63h1.63v-1.63h-1.63ZM74.84,88.36h-1.63v1.63h1.63v-1.63ZM74.84,84.29v-1.63h-1.63v1.63h1.63ZM87.05,84.29v1.63h1.63v-1.63h-1.63ZM87.05,80.22h1.63v-1.63h-1.63v1.63ZM74.84,80.22h-1.63v1.63h1.63v-1.63ZM74.84,76.16h1.63v-1.63h-1.63v1.63ZM70.77,76.16h-1.63v1.63h1.63v-1.63ZM70.77,63.95v-1.63h-1.63v1.63h1.63ZM74.84,63.95v1.63h1.63v-1.63h-1.63ZM78.91,63.95v-1.63h-1.63v1.63h1.63ZM78.91,76.16h-1.63v1.63h1.63v-1.63ZM87.05,76.16v1.63h1.63v-1.63h-1.63ZM87.05,63.95h1.63v-1.63h-1.63v1.63ZM74.84,61.51h20.34v-3.25h-20.34v3.25ZM93.55,59.89v24.41h3.25v-24.41h-3.25ZM95.18,82.66h-4.07v3.25h4.07v-3.25ZM89.49,84.29v4.07h3.25v-4.07h-3.25ZM91.11,86.73h-16.27v3.25h16.27v-3.25ZM76.47,88.36v-4.07h-3.25v4.07h3.25ZM74.84,85.92h12.2v-3.25h-12.2v3.25ZM88.67,84.29v-4.07h-3.25v4.07h3.25ZM87.05,78.6h-12.2v3.25h12.2v-3.25ZM76.47,80.22v-4.07h-3.25v4.07h3.25ZM74.84,74.53h-4.07v3.25h4.07v-3.25ZM72.4,76.16v-12.2h-3.25v12.2h3.25ZM70.77,65.58h4.07v-3.25h-4.07v3.25ZM76.47,63.95v-4.07h-3.25v4.07h3.25ZM77.28,63.95v12.2h3.25v-12.2h-3.25ZM78.91,77.78h8.14v-3.25h-8.14v3.25ZM88.67,76.16v-12.2h-3.25v12.2h3.25ZM87.05,62.33h-8.14v3.25h8.14v-3.25ZM111.45,55.82v-1.63h-1.63v1.63h1.63ZM119.59,55.82h1.63v-1.63h-1.63v1.63ZM119.59,59.89v1.63h1.63v-1.63h-1.63ZM111.45,59.89h-1.63v1.63h1.63v-1.63ZM107.38,63.95v-1.63h-1.63v1.63h1.63ZM119.59,63.95h1.63v-1.63h-1.63v1.63ZM119.59,80.22h-1.63v1.63h1.63v-1.63ZM123.65,80.22h1.63v-1.63h-1.63v1.63ZM123.65,84.29v1.63h1.63v-1.63h-1.63ZM107.38,84.29h-1.63v1.63h1.63v-1.63ZM107.38,80.22v-1.63h-1.63v1.63h1.63ZM111.45,80.22v1.63h1.63v-1.63h-1.63ZM111.45,68.02h1.63v-1.63h-1.63v1.63ZM107.38,68.02h-1.63v1.63h1.63v-1.63ZM111.45,57.45h8.14v-3.25h-8.14v3.25ZM117.96,55.82v4.07h3.25v-4.07h-3.25ZM119.59,58.26h-8.14v3.25h8.14v-3.25ZM113.08,59.89v-4.07h-3.25v4.07h3.25ZM107.38,65.58h12.2v-3.25h-12.2v3.25ZM117.96,63.95v16.27h3.25v-16.27h-3.25ZM119.59,81.85h4.07v-3.25h-4.07v3.25ZM122.03,80.22v4.07h3.25v-4.07h-3.25ZM123.65,82.66h-16.27v3.25h16.27v-3.25ZM109.01,84.29v-4.07h-3.25v4.07h3.25ZM107.38,81.85h4.07v-3.25h-4.07v3.25ZM113.08,80.22v-12.2h-3.25v12.2h3.25ZM111.45,66.39h-4.07v3.25h4.07v-3.25ZM109.01,68.02v-4.07h-3.25v4.07h3.25ZM139.92,55.82v-1.63h-1.63v1.63h1.63ZM148.06,55.82h1.63v-1.63h-1.63v1.63ZM148.06,63.95h-1.63v1.63h1.63v-1.63ZM160.26,63.95h1.63v-1.63h-1.63v1.63ZM160.26,68.02v1.63h1.63v-1.63h-1.63ZM148.06,68.02v-1.63h-1.63v1.63h1.63ZM148.06,80.22h-1.63v1.63h1.63v-1.63ZM160.26,80.22h1.63v-1.63h-1.63v1.63ZM160.26,84.29v1.63h1.63v-1.63h-1.63ZM143.99,84.29h-1.63v1.63h1.63v-1.63ZM143.99,80.22h1.63v-1.63h-1.63v1.63ZM139.92,80.22h-1.63v1.63h1.63v-1.63ZM139.92,57.45h8.14v-3.25h-8.14v3.25ZM146.43,55.82v8.14h3.25v-8.14h-3.25ZM148.06,65.58h12.2v-3.25h-12.2v3.25ZM158.63,63.95v4.07h3.25v-4.07h-3.25ZM160.26,66.39h-12.2v3.25h12.2v-3.25ZM146.43,68.02v12.2h3.25v-12.2h-3.25ZM148.06,81.85h12.2v-3.25h-12.2v3.25ZM158.63,80.22v4.07h3.25v-4.07h-3.25ZM160.26,82.66h-16.27v3.25h16.27v-3.25ZM145.62,84.29v-4.07h-3.25v4.07h3.25ZM143.99,78.6h-4.07v3.25h4.07v-3.25ZM141.55,80.22v-24.41h-3.25v24.41h3.25ZM172.46,59.89v-1.63h-1.63v1.63h1.63ZM188.73,59.89h1.63v-1.63h-1.63v1.63ZM188.73,63.95h-1.63v1.63h1.63v-1.63ZM192.8,63.95h1.63v-1.63h-1.63v1.63ZM192.8,84.29v1.63h1.63v-1.63h-1.63ZM172.46,84.29h-1.63v1.63h1.63v-1.63ZM172.46,80.22h1.63v-1.63h-1.63v1.63ZM168.4,80.22h-1.63v1.63h1.63v-1.63ZM168.4,72.09v-1.63h-1.63v1.63h1.63ZM172.46,72.09v1.63h1.63v-1.63h-1.63ZM172.46,68.02v-1.63h-1.63v1.63h1.63ZM184.67,68.02v1.63h1.63v-1.63h-1.63ZM184.67,63.95h1.63v-1.63h-1.63v1.63ZM172.46,63.95h-1.63v1.63h1.63v-1.63ZM176.53,72.09v-1.63h-1.63v1.63h1.63ZM176.53,80.22h-1.63v1.63h1.63v-1.63ZM184.67,80.22v1.63h1.63v-1.63h-1.63ZM184.67,72.09h1.63v-1.63h-1.63v1.63ZM172.46,61.51h16.27v-3.25h-16.27v3.25ZM187.11,59.89v4.07h3.25v-4.07h-3.25ZM188.73,65.58h4.07v-3.25h-4.07v3.25ZM191.17,63.95v20.34h3.25v-20.34h-3.25ZM192.8,82.66h-20.34v3.25h20.34v-3.25ZM174.09,84.29v-4.07h-3.25v4.07h3.25ZM172.46,78.6h-4.07v3.25h4.07v-3.25ZM170.02,80.22v-8.14h-3.25v8.14h3.25ZM168.4,73.72h4.07v-3.25h-4.07v3.25ZM174.09,72.09v-4.07h-3.25v4.07h3.25ZM172.46,69.65h12.2v-3.25h-12.2v3.25ZM186.29,68.02v-4.07h-3.25v4.07h3.25ZM184.67,62.33h-12.2v3.25h12.2v-3.25ZM174.09,63.95v-4.07h-3.25v4.07h3.25ZM174.9,72.09v8.14h3.25v-8.14h-3.25ZM176.53,81.85h8.14v-3.25h-8.14v3.25ZM186.29,80.22v-8.14h-3.25v8.14h3.25ZM184.67,70.46h-8.14v3.25h8.14v-3.25ZM205,59.89v-1.63h-1.63v1.63h1.63ZM213.14,59.89h1.63v-1.63h-1.63v1.63ZM213.14,80.22h-1.63v1.63h1.63v-1.63ZM221.27,80.22h1.63v-1.63h-1.63v1.63ZM221.27,84.29v1.63h1.63v-1.63h-1.63ZM209.07,84.29h-1.63v1.63h1.63v-1.63ZM209.07,80.22h1.63v-1.63h-1.63v1.63ZM205,80.22h-1.63v1.63h1.63v-1.63ZM205,61.51h8.14v-3.25h-8.14v3.25ZM211.51,59.89v20.34h3.25v-20.34h-3.25ZM213.14,81.85h8.14v-3.25h-8.14v3.25ZM219.65,80.22v4.07h3.25v-4.07h-3.25ZM221.27,82.66h-12.2v3.25h12.2v-3.25ZM210.7,84.29v-4.07h-3.25v4.07h3.25ZM209.07,78.6h-4.07v3.25h4.07v-3.25ZM206.63,80.22v-20.34h-3.25v20.34h3.25ZM266.02,55.82v-1.63h-1.63v1.63h1.63ZM290.42,55.82h1.63v-1.63h-1.63v1.63ZM290.42,59.89v1.63h1.63v-1.63h-1.63ZM282.29,59.89v-1.63h-1.63v1.63h1.63ZM282.29,84.29v1.63h1.63v-1.63h-1.63ZM274.15,84.29h-1.63v1.63h1.63v-1.63ZM274.15,59.89h1.63v-1.63h-1.63v1.63ZM266.02,59.89h-1.63v1.63h1.63v-1.63ZM266.02,57.45h24.41v-3.25h-24.41v3.25ZM288.79,55.82v4.07h3.25v-4.07h-3.25ZM290.42,58.26h-8.14v3.25h8.14v-3.25ZM280.66,59.89v24.41h3.25v-24.41h-3.25ZM282.29,82.66h-8.14v3.25h8.14v-3.25ZM275.78,84.29v-24.41h-3.25v24.41h3.25ZM274.15,58.26h-8.14v3.25h8.14v-3.25ZM267.64,59.89v-4.07h-3.25v4.07h3.25ZM302.62,59.89v-1.63h-1.63v1.63h1.63ZM318.89,59.89h1.63v-1.63h-1.63v1.63ZM318.89,63.95h-1.63v1.63h1.63v-1.63ZM322.96,63.95h1.63v-1.63h-1.63v1.63ZM322.96,84.29v1.63h1.63v-1.63h-1.63ZM302.62,84.29h-1.63v1.63h1.63v-1.63ZM302.62,80.22h1.63v-1.63h-1.63v1.63ZM298.56,80.22h-1.63v1.63h1.63v-1.63ZM298.56,72.09v-1.63h-1.63v1.63h1.63ZM302.62,72.09v1.63h1.63v-1.63h-1.63ZM302.62,68.02v-1.63h-1.63v1.63h1.63ZM314.83,68.02v1.63h1.63v-1.63h-1.63ZM314.83,63.95h1.63v-1.63h-1.63v1.63ZM302.62,63.95h-1.63v1.63h1.63v-1.63ZM306.69,72.09v-1.63h-1.63v1.63h1.63ZM306.69,80.22h-1.63v1.63h1.63v-1.63ZM314.83,80.22v1.63h1.63v-1.63h-1.63ZM314.83,72.09h1.63v-1.63h-1.63v1.63ZM302.62,61.51h16.27v-3.25h-16.27v3.25ZM317.27,59.89v4.07h3.25v-4.07h-3.25ZM318.89,65.58h4.07v-3.25h-4.07v3.25ZM321.33,63.95v20.34h3.25v-20.34h-3.25ZM322.96,82.66h-20.34v3.25h20.34v-3.25ZM304.25,84.29v-4.07h-3.25v4.07h3.25ZM302.62,78.6h-4.07v3.25h4.07v-3.25ZM300.18,80.22v-8.14h-3.25v8.14h3.25ZM298.56,73.72h4.07v-3.25h-4.07v3.25ZM304.25,72.09v-4.07h-3.25v4.07h3.25ZM302.62,69.65h12.2v-3.25h-12.2v3.25ZM316.45,68.02v-4.07h-3.25v4.07h3.25ZM314.83,62.33h-12.2v3.25h12.2v-3.25ZM304.25,63.95v-4.07h-3.25v4.07h3.25ZM305.06,72.09v8.14h3.25v-8.14h-3.25ZM306.69,81.85h8.14v-3.25h-8.14v3.25ZM316.45,80.22v-8.14h-3.25v8.14h3.25ZM314.83,70.46h-8.14v3.25h8.14v-3.25ZM331.1,59.89v-1.63h-1.63v1.63h1.63ZM351.43,59.89h1.63v-1.63h-1.63v1.63ZM351.43,63.95h-1.63v1.63h1.63v-1.63ZM355.5,63.95h1.63v-1.63h-1.63v1.63ZM355.5,76.16v1.63h1.63v-1.63h-1.63ZM351.43,76.16v-1.63h-1.63v1.63h1.63ZM351.43,80.22v1.63h1.63v-1.63h-1.63ZM339.23,80.22v-1.63h-1.63v1.63h1.63ZM339.23,88.36v1.63h1.63v-1.63h-1.63ZM331.1,88.36h-1.63v1.63h1.63v-1.63ZM339.23,63.95v-1.63h-1.63v1.63h1.63ZM339.23,76.16h-1.63v1.63h1.63v-1.63ZM347.37,76.16v1.63h1.63v-1.63h-1.63ZM347.37,63.95h1.63v-1.63h-1.63v1.63ZM331.1,61.51h20.34v-3.25h-20.34v3.25ZM349.81,59.89v4.07h3.25v-4.07h-3.25ZM351.43,65.58h4.07v-3.25h-4.07v3.25ZM353.87,63.95v12.2h3.25v-12.2h-3.25ZM355.5,74.53h-4.07v3.25h4.07v-3.25ZM349.81,76.16v4.07h3.25v-4.07h-3.25ZM351.43,78.6h-12.2v3.25h12.2v-3.25ZM337.6,80.22v8.14h3.25v-8.14h-3.25ZM339.23,86.73h-8.14v3.25h8.14v-3.25ZM332.72,88.36v-28.47h-3.25v28.47h3.25ZM337.6,63.95v12.2h3.25v-12.2h-3.25ZM339.23,77.78h8.14v-3.25h-8.14v3.25ZM348.99,76.16v-12.2h-3.25v12.2h3.25ZM347.37,62.33h-8.14v3.25h8.14v-3.25ZM367.7,59.89v-1.63h-1.63v1.63h1.63ZM383.97,59.89h1.63v-1.63h-1.63v1.63ZM383.97,63.95h-1.63v1.63h1.63v-1.63ZM388.04,63.95h1.63v-1.63h-1.63v1.63ZM388.04,72.09v1.63h1.63v-1.63h-1.63ZM371.77,72.09v-1.63h-1.63v1.63h1.63ZM371.77,80.22h-1.63v1.63h1.63v-1.63ZM388.04,80.22h1.63v-1.63h-1.63v1.63ZM388.04,84.29v1.63h1.63v-1.63h-1.63ZM367.7,84.29h-1.63v1.63h1.63v-1.63ZM367.7,80.22h1.63v-1.63h-1.63v1.63ZM363.64,80.22h-1.63v1.63h1.63v-1.63ZM363.64,63.95v-1.63h-1.63v1.63h1.63ZM367.7,63.95v1.63h1.63v-1.63h-1.63ZM371.77,63.95v-1.63h-1.63v1.63h1.63ZM371.77,68.02h-1.63v1.63h1.63v-1.63ZM379.91,68.02v1.63h1.63v-1.63h-1.63ZM379.91,63.95h1.63v-1.63h-1.63v1.63ZM367.7,61.51h16.27v-3.25h-16.27v3.25ZM382.35,59.89v4.07h3.25v-4.07h-3.25ZM383.97,65.58h4.07v-3.25h-4.07v3.25ZM386.41,63.95v8.14h3.25v-8.14h-3.25ZM388.04,70.46h-16.27v3.25h16.27v-3.25ZM370.14,72.09v8.14h3.25v-8.14h-3.25ZM371.77,81.85h16.27v-3.25h-16.27v3.25ZM386.41,80.22v4.07h3.25v-4.07h-3.25ZM388.04,82.66h-20.34v3.25h20.34v-3.25ZM369.33,84.29v-4.07h-3.25v4.07h3.25ZM367.7,78.6h-4.07v3.25h4.07v-3.25ZM365.26,80.22v-16.27h-3.25v16.27h3.25ZM363.64,65.58h4.07v-3.25h-4.07v3.25ZM369.33,63.95v-4.07h-3.25v4.07h3.25ZM370.14,63.95v4.07h3.25v-4.07h-3.25ZM371.77,69.65h8.14v-3.25h-8.14v3.25ZM381.53,68.02v-4.07h-3.25v4.07h3.25ZM379.91,62.33h-8.14v3.25h8.14v-3.25ZM400.24,59.89v-1.63h-1.63v1.63h1.63ZM416.51,59.89h1.63v-1.63h-1.63v1.63ZM416.51,63.95v1.63h1.63v-1.63h-1.63ZM404.31,63.95v-1.63h-1.63v1.63h1.63ZM404.31,68.02h-1.63v1.63h1.63v-1.63ZM416.51,68.02h1.63v-1.63h-1.63v1.63ZM416.51,72.09h-1.63v1.63h1.63v-1.63ZM420.58,72.09h1.63v-1.63h-1.63v1.63ZM420.58,80.22v1.63h1.63v-1.63h-1.63ZM416.51,80.22v-1.63h-1.63v1.63h1.63ZM416.51,84.29v1.63h1.63v-1.63h-1.63ZM400.24,84.29h-1.63v1.63h1.63v-1.63ZM400.24,80.22h1.63v-1.63h-1.63v1.63ZM396.18,80.22h-1.63v1.63h1.63v-1.63ZM396.18,76.16v-1.63h-1.63v1.63h1.63ZM404.31,76.16h1.63v-1.63h-1.63v1.63ZM404.31,80.22h-1.63v1.63h1.63v-1.63ZM412.45,80.22v1.63h1.63v-1.63h-1.63ZM412.45,72.09h1.63v-1.63h-1.63v1.63ZM400.24,72.09h-1.63v1.63h1.63v-1.63ZM400.24,68.02h1.63v-1.63h-1.63v1.63ZM396.18,68.02h-1.63v1.63h1.63v-1.63ZM396.18,63.95v-1.63h-1.63v1.63h1.63ZM400.24,63.95v1.63h1.63v-1.63h-1.63ZM400.24,61.51h16.27v-3.25h-16.27v3.25ZM414.89,59.89v4.07h3.25v-4.07h-3.25ZM416.51,62.33h-12.2v3.25h12.2v-3.25ZM402.68,63.95v4.07h3.25v-4.07h-3.25ZM404.31,69.65h12.2v-3.25h-12.2v3.25ZM414.89,68.02v4.07h3.25v-4.07h-3.25ZM416.51,73.72h4.07v-3.25h-4.07v3.25ZM418.95,72.09v8.14h3.25v-8.14h-3.25ZM420.58,78.6h-4.07v3.25h4.07v-3.25ZM414.89,80.22v4.07h3.25v-4.07h-3.25ZM416.51,82.66h-16.27v3.25h16.27v-3.25ZM401.87,84.29v-4.07h-3.25v4.07h3.25ZM400.24,78.6h-4.07v3.25h4.07v-3.25ZM397.8,80.22v-4.07h-3.25v4.07h3.25ZM396.18,77.78h8.14v-3.25h-8.14v3.25ZM402.68,76.16v4.07h3.25v-4.07h-3.25ZM404.31,81.85h8.14v-3.25h-8.14v3.25ZM414.07,80.22v-8.14h-3.25v8.14h3.25ZM412.45,70.46h-12.2v3.25h12.2v-3.25ZM401.87,72.09v-4.07h-3.25v4.07h3.25ZM400.24,66.39h-4.07v3.25h4.07v-3.25ZM397.8,68.02v-4.07h-3.25v4.07h3.25ZM396.18,65.58h4.07v-3.25h-4.07v3.25ZM401.87,63.95v-4.07h-3.25v4.07h3.25ZM432.78,55.82v-1.63h-1.63v1.63h1.63ZM440.92,55.82h1.63v-1.63h-1.63v1.63ZM440.92,63.95h-1.63v1.63h1.63v-1.63ZM453.12,63.95h1.63v-1.63h-1.63v1.63ZM453.12,68.02v1.63h1.63v-1.63h-1.63ZM440.92,68.02v-1.63h-1.63v1.63h1.63ZM440.92,80.22h-1.63v1.63h1.63v-1.63ZM453.12,80.22h1.63v-1.63h-1.63v1.63ZM453.12,84.29v1.63h1.63v-1.63h-1.63ZM436.85,84.29h-1.63v1.63h1.63v-1.63ZM436.85,80.22h1.63v-1.63h-1.63v1.63ZM432.78,80.22h-1.63v1.63h1.63v-1.63ZM432.78,57.45h8.14v-3.25h-8.14v3.25ZM439.29,55.82v8.14h3.25v-8.14h-3.25ZM440.92,65.58h12.2v-3.25h-12.2v3.25ZM451.5,63.95v4.07h3.25v-4.07h-3.25ZM453.12,66.39h-12.2v3.25h12.2v-3.25ZM439.29,68.02v12.2h3.25v-12.2h-3.25ZM440.92,81.85h12.2v-3.25h-12.2v3.25ZM451.5,80.22v4.07h3.25v-4.07h-3.25ZM453.12,82.66h-16.27v3.25h16.27v-3.25ZM438.48,84.29v-4.07h-3.25v4.07h3.25ZM436.85,78.6h-4.07v3.25h4.07v-3.25ZM434.41,80.22v-24.41h-3.25v24.41h3.25ZM469.39,59.89v-1.63h-1.63v1.63h1.63ZM485.66,59.89h1.63v-1.63h-1.63v1.63ZM485.66,63.95v1.63h1.63v-1.63h-1.63ZM477.53,63.95v-1.63h-1.63v1.63h1.63ZM477.53,68.02v1.63h1.63v-1.63h-1.63ZM473.46,68.02v-1.63h-1.63v1.63h1.63ZM473.46,84.29v1.63h1.63v-1.63h-1.63ZM465.32,84.29h-1.63v1.63h1.63v-1.63ZM465.32,63.95v-1.63h-1.63v1.63h1.63ZM469.39,63.95v1.63h1.63v-1.63h-1.63ZM469.39,61.51h16.27v-3.25h-16.27v3.25ZM484.04,59.89v4.07h3.25v-4.07h-3.25ZM485.66,62.33h-8.14v3.25h8.14v-3.25ZM475.9,63.95v4.07h3.25v-4.07h-3.25ZM477.53,66.39h-4.07v3.25h4.07v-3.25ZM471.83,68.02v16.27h3.25v-16.27h-3.25ZM473.46,82.66h-8.14v3.25h8.14v-3.25ZM466.95,84.29v-20.34h-3.25v20.34h3.25ZM465.32,65.58h4.07v-3.25h-4.07v3.25ZM471.02,63.95v-4.07h-3.25v4.07h3.25ZM497.86,59.89v-1.63h-1.63v1.63h1.63ZM506,59.89h1.63v-1.63h-1.63v1.63ZM506,72.09h-1.63v1.63h1.63v-1.63ZM510.07,72.09v1.63h1.63v-1.63h-1.63ZM510.07,59.89v-1.63h-1.63v1.63h1.63ZM518.2,59.89h1.63v-1.63h-1.63v1.63ZM518.2,72.09v1.63h1.63v-1.63h-1.63ZM514.14,72.09v-1.63h-1.63v1.63h1.63ZM514.14,80.22v1.63h1.63v-1.63h-1.63ZM510.07,80.22v-1.63h-1.63v1.63h1.63ZM510.07,84.29v1.63h1.63v-1.63h-1.63ZM497.86,84.29h-1.63v1.63h1.63v-1.63ZM497.86,80.22v-1.63h-1.63v1.63h1.63ZM506,80.22v1.63h1.63v-1.63h-1.63ZM506,76.16h1.63v-1.63h-1.63v1.63ZM501.93,76.16h-1.63v1.63h1.63v-1.63ZM501.93,72.09h1.63v-1.63h-1.63v1.63ZM497.86,72.09h-1.63v1.63h1.63v-1.63ZM497.86,61.51h8.14v-3.25h-8.14v3.25ZM504.37,59.89v12.2h3.25v-12.2h-3.25ZM506,73.72h4.07v-3.25h-4.07v3.25ZM511.69,72.09v-12.2h-3.25v12.2h3.25ZM510.07,61.51h8.14v-3.25h-8.14v3.25ZM516.58,59.89v12.2h3.25v-12.2h-3.25ZM518.2,70.46h-4.07v3.25h4.07v-3.25ZM512.51,72.09v8.14h3.25v-8.14h-3.25ZM514.14,78.6h-4.07v3.25h4.07v-3.25ZM508.44,80.22v4.07h3.25v-4.07h-3.25ZM510.07,82.66h-12.2v3.25h12.2v-3.25ZM499.49,84.29v-4.07h-3.25v4.07h3.25ZM497.86,81.85h8.14v-3.25h-8.14v3.25ZM507.63,80.22v-4.07h-3.25v4.07h3.25ZM506,74.53h-4.07v3.25h4.07v-3.25ZM503.56,76.16v-4.07h-3.25v4.07h3.25ZM501.93,70.46h-4.07v3.25h4.07v-3.25ZM499.49,72.09v-12.2h-3.25v12.2h3.25Z"/>
  </g>
  <circle class="cls-6" cx="207.44" cy="42.8" r="10.58"/>
  <circle class="cls-6" cx="207.44" cy="42.8" r="10.58"/>
  <circle class="cls-6" cx="516.58" cy="85.1" r="10.58"/>
  <circle class="cls-6" cx="516.58" cy="85.1" r="10.58"/>
  <circle class="cls-7" cx="391.3" cy="83.48" r="10.58"/>
  <circle class="cls-7" cx="391.3" cy="83.48" r="10.58"/>
  <circle class="cls-9" cx="69.15" cy="42.8" r="10.58"/>
  <circle class="cls-9" cx="69.15" cy="42.8" r="10.58"/>
  <circle class="cls-10" cx="126.09" cy="73.72" r="10.58"/>
  <circle class="cls-10" cx="126.09" cy="73.72" r="10.58"/>
  <circle class="cls-10" cx="375.03" cy="39.55" r="10.58"/>
  <circle class="cls-10" cx="375.03" cy="39.55" r="10.58"/>
  <circle class="cls-5" cx="300.18" cy="54.19" r="10.58"/>
  <circle class="cls-5" cx="300.18" cy="54.19" r="10.58"/>
</svg>