<svg width="339" height="177" viewBox="0 0 339 177" fill="none" xmlns="http://www.w3.org/2000/svg">
<path d="M40.501 20.5C38.8343 14 38.201 1 49.001 1C62.501 1 65.5 6 69 10C72.5 14 71.5 29 88 31C104.5 33 109 30.5 115 33C121 35.5 124.5 36.5 125.5 33.5" stroke="#E4DE49"/>
<path d="M77.5 52.5C80.1667 59 91 70.5 113 64.5C140.5 57 134.5 34.5 148.5 33C159.7 31.8 172.5 32.5 177.5 33" stroke="#FFA8CD"/>
<path d="M236.5 24.5001C238.5 21.8334 244.8 18.1001 254 24.5001C265.5 32.5001 259 49.5 277.5 49C296 48.5 315.5 31 325 37.5C332.6 42.7 327.167 49.6667 323.5 52.5" stroke="#FFA866"/>
<path d="M240 59.0001C238 62.6668 231.5 68.9001 221.5 64.5001C209 59.0001 206.5 36.5001 202 34.5001C198.4 32.9001 192.5 33.8335 190 34.5001" stroke="#9AF7A3"/>
<mask id="path-5-outside-1_2_130" maskUnits="userSpaceOnUse" x="-1" y="8.5" width="320" height="48" fill="black">
<rect fill="white" x="-1" y="8.5" width="320" height="48"/>
<path d="M0 10H5V22.5H7.5V15H12.5V22.5H15V10H20V25H17.5V27.5H12.5V25H7.5V27.5H2.5V25H0V10ZM25 12.5H35V15H37.5V20H27.5V25H37.5V27.5H25V25H22.5V15H25V12.5ZM27.5 15V17.5H32.5V15H27.5ZM45 12.5H55V15H57.5V27.5H45V25H42.5V20H45V17.5H52.5V15H45V12.5ZM47.5 20V25H52.5V20H47.5ZM62.5 12.5H67.5V20H72.5V12.5H77.5V20H75V25H72.5V27.5H67.5V25H65V20H62.5V12.5ZM87.5 10H92.5V12.5H87.5V10ZM85 15H92.5V25H95V27.5H85V25H87.5V17.5H85V15ZM107.5 12.5H115V15H117.5V27.5H112.5V15H110V17.5H107.5V27.5H102.5V15H107.5V12.5ZM125 12.5H137.5V27.5H135V30H125V27.5H132.5V25H125V22.5H122.5V15H125V12.5ZM127.5 15V22.5H132.5V15H127.5ZM165 10H170V15H177.5V17.5H170V25H177.5V27.5H167.5V25H165V10ZM182.5 10H187.5V15H195V17.5H197.5V27.5H192.5V17.5H190V20H187.5V27.5H182.5V10ZM205 12.5H215V15H217.5V20H207.5V25H217.5V27.5H205V25H202.5V15H205V12.5ZM207.5 15V17.5H212.5V15H207.5ZM0 35H15V37.5H17.5V50H15V52.5H2.5V37.5H0V35ZM7.5 37.5V50H12.5V37.5H7.5ZM27.5 35H32.5V37.5H27.5V35ZM25 40H32.5V50H35V52.5H25V50H27.5V42.5H25V40ZM45 37.5H57.5V52.5H55V55H45V52.5H52.5V50H45V47.5H42.5V40H45V37.5ZM47.5 40V47.5H52.5V40H47.5ZM67.5 35H72.5V37.5H67.5V35ZM65 40H72.5V50H75V52.5H65V50H67.5V42.5H65V40ZM85 35H90V40H97.5V42.5H90V50H97.5V52.5H87.5V50H85V35ZM105 37.5H115V40H117.5V52.5H105V50H102.5V45H105V42.5H112.5V40H105V37.5ZM107.5 45V50H112.5V45H107.5ZM125 37.5H130V50H135V52.5H127.5V50H125V37.5ZM162.5 35H177.5V37.5H172.5V52.5H167.5V37.5H162.5V35ZM185 37.5H195V40H197.5V52.5H185V50H182.5V45H185V42.5H192.5V40H185V37.5ZM187.5 45V50H192.5V45H187.5ZM202.5 37.5H215V40H217.5V47.5H215V50H207.5V55H202.5V37.5ZM207.5 40V47.5H212.5V40H207.5ZM225 37.5H235V40H237.5V45H227.5V50H237.5V52.5H225V50H222.5V40H225V37.5ZM227.5 40V42.5H232.5V40H227.5ZM245 37.5H255V40H247.5V42.5H255V45H257.5V50H255V52.5H245V50H242.5V47.5H247.5V50H252.5V45H245V42.5H242.5V40H245V37.5ZM265 35H270V40H277.5V42.5H270V50H277.5V52.5H267.5V50H265V35ZM287.5 37.5H297.5V40H292.5V42.5H290V52.5H285V40H287.5V37.5ZM305 37.5H310V45H312.5V37.5H317.5V45H315V50H312.5V52.5H305V50H310V47.5H307.5V45H305V37.5Z"/>
</mask>
<path d="M0 10H5V22.5H7.5V15H12.5V22.5H15V10H20V25H17.5V27.5H12.5V25H7.5V27.5H2.5V25H0V10ZM25 12.5H35V15H37.5V20H27.5V25H37.5V27.5H25V25H22.5V15H25V12.5ZM27.5 15V17.5H32.5V15H27.5ZM45 12.5H55V15H57.5V27.5H45V25H42.5V20H45V17.5H52.5V15H45V12.5ZM47.5 20V25H52.5V20H47.5ZM62.5 12.5H67.5V20H72.5V12.5H77.5V20H75V25H72.5V27.5H67.5V25H65V20H62.5V12.5ZM87.5 10H92.5V12.5H87.5V10ZM85 15H92.5V25H95V27.5H85V25H87.5V17.5H85V15ZM107.5 12.5H115V15H117.5V27.5H112.5V15H110V17.5H107.5V27.5H102.5V15H107.5V12.5ZM125 12.5H137.5V27.5H135V30H125V27.5H132.5V25H125V22.5H122.5V15H125V12.5ZM127.5 15V22.5H132.5V15H127.5ZM165 10H170V15H177.5V17.5H170V25H177.5V27.5H167.5V25H165V10ZM182.5 10H187.5V15H195V17.5H197.5V27.5H192.5V17.5H190V20H187.5V27.5H182.5V10ZM205 12.5H215V15H217.5V20H207.5V25H217.5V27.5H205V25H202.5V15H205V12.5ZM207.5 15V17.5H212.5V15H207.5ZM0 35H15V37.5H17.5V50H15V52.5H2.5V37.5H0V35ZM7.5 37.5V50H12.5V37.5H7.5ZM27.5 35H32.5V37.5H27.5V35ZM25 40H32.5V50H35V52.5H25V50H27.5V42.5H25V40ZM45 37.5H57.5V52.5H55V55H45V52.5H52.5V50H45V47.5H42.5V40H45V37.5ZM47.5 40V47.5H52.5V40H47.5ZM67.5 35H72.5V37.5H67.5V35ZM65 40H72.5V50H75V52.5H65V50H67.5V42.5H65V40ZM85 35H90V40H97.5V42.5H90V50H97.5V52.5H87.5V50H85V35ZM105 37.5H115V40H117.5V52.5H105V50H102.5V45H105V42.5H112.5V40H105V37.5ZM107.5 45V50H112.5V45H107.5ZM125 37.5H130V50H135V52.5H127.5V50H125V37.5ZM162.5 35H177.5V37.5H172.5V52.5H167.5V37.5H162.5V35ZM185 37.5H195V40H197.5V52.5H185V50H182.5V45H185V42.5H192.5V40H185V37.5ZM187.5 45V50H192.5V45H187.5ZM202.5 37.5H215V40H217.5V47.5H215V50H207.5V55H202.5V37.5ZM207.5 40V47.5H212.5V40H207.5ZM225 37.5H235V40H237.5V45H227.5V50H237.5V52.5H225V50H222.5V40H225V37.5ZM227.5 40V42.5H232.5V40H227.5ZM245 37.5H255V40H247.5V42.5H255V45H257.5V50H255V52.5H245V50H242.5V47.5H247.5V50H252.5V45H245V42.5H242.5V40H245V37.5ZM265 35H270V40H277.5V42.5H270V50H277.5V52.5H267.5V50H265V35ZM287.5 37.5H297.5V40H292.5V42.5H290V52.5H285V40H287.5V37.5ZM305 37.5H310V45H312.5V37.5H317.5V45H315V50H312.5V52.5H305V50H310V47.5H307.5V45H305V37.5Z" fill="white"/>
<path d="M0 10V9H-1V10H0ZM5 10H6V9H5V10ZM5 22.5H4V23.5H5V22.5ZM7.5 22.5V23.5H8.5V22.5H7.5ZM7.5 15V14H6.5V15H7.5ZM12.5 15H13.5V14H12.5V15ZM12.5 22.5H11.5V23.5H12.5V22.5ZM15 22.5V23.5H16V22.5H15ZM15 10V9H14V10H15ZM20 10H21V9H20V10ZM20 25V26H21V25H20ZM17.5 25V24H16.5V25H17.5ZM17.5 27.5V28.5H18.5V27.5H17.5ZM12.5 27.5H11.5V28.5H12.5V27.5ZM12.5 25H13.5V24H12.5V25ZM7.5 25V24H6.5V25H7.5ZM7.5 27.5V28.5H8.5V27.5H7.5ZM2.5 27.5H1.5V28.5H2.5V27.5ZM2.5 25H3.5V24H2.5V25ZM0 25H-1V26H0V25ZM0 11H5V9H0V11ZM4 10V22.5H6V10H4ZM5 23.5H7.5V21.5H5V23.5ZM8.5 22.5V15H6.5V22.5H8.5ZM7.5 16H12.5V14H7.5V16ZM11.5 15V22.5H13.5V15H11.5ZM12.5 23.5H15V21.5H12.5V23.5ZM16 22.5V10H14V22.5H16ZM15 11H20V9H15V11ZM19 10V25H21V10H19ZM20 24H17.5V26H20V24ZM16.5 25V27.5H18.5V25H16.5ZM17.5 26.5H12.5V28.5H17.5V26.5ZM13.5 27.5V25H11.5V27.5H13.5ZM12.5 24H7.5V26H12.5V24ZM6.5 25V27.5H8.5V25H6.5ZM7.5 26.5H2.5V28.5H7.5V26.5ZM3.5 27.5V25H1.5V27.5H3.5ZM2.5 24H0V26H2.5V24ZM1 25V10H-1V25H1ZM25 12.5V11.5H24V12.5H25ZM35 12.5H36V11.5H35V12.5ZM35 15H34V16H35V15ZM37.5 15H38.5V14H37.5V15ZM37.5 20V21H38.5V20H37.5ZM27.5 20V19H26.5V20H27.5ZM27.5 25H26.5V26H27.5V25ZM37.5 25H38.5V24H37.5V25ZM37.5 27.5V28.5H38.5V27.5H37.5ZM25 27.5H24V28.5H25V27.5ZM25 25H26V24H25V25ZM22.5 25H21.5V26H22.5V25ZM22.5 15V14H21.5V15H22.5ZM25 15V16H26V15H25ZM27.5 15V14H26.5V15H27.5ZM27.5 17.5H26.5V18.5H27.5V17.5ZM32.5 17.5V18.5H33.5V17.5H32.5ZM32.5 15H33.5V14H32.5V15ZM25 13.5H35V11.5H25V13.5ZM34 12.5V15H36V12.5H34ZM35 16H37.5V14H35V16ZM36.5 15V20H38.5V15H36.5ZM37.5 19H27.5V21H37.5V19ZM26.5 20V25H28.5V20H26.5ZM27.5 26H37.5V24H27.5V26ZM36.5 25V27.5H38.5V25H36.5ZM37.5 26.5H25V28.5H37.5V26.5ZM26 27.5V25H24V27.5H26ZM25 24H22.5V26H25V24ZM23.5 25V15H21.5V25H23.5ZM22.5 16H25V14H22.5V16ZM26 15V12.5H24V15H26ZM26.5 15V17.5H28.5V15H26.5ZM27.5 18.5H32.5V16.5H27.5V18.5ZM33.5 17.5V15H31.5V17.5H33.5ZM32.5 14H27.5V16H32.5V14ZM45 12.5V11.5H44V12.5H45ZM55 12.5H56V11.5H55V12.5ZM55 15H54V16H55V15ZM57.5 15H58.5V14H57.5V15ZM57.5 27.5V28.5H58.5V27.5H57.5ZM45 27.5H44V28.5H45V27.5ZM45 25H46V24H45V25ZM42.5 25H41.5V26H42.5V25ZM42.5 20V19H41.5V20H42.5ZM45 20V21H46V20H45ZM45 17.5V16.5H44V17.5H45ZM52.5 17.5V18.5H53.5V17.5H52.5ZM52.5 15H53.5V14H52.5V15ZM45 15H44V16H45V15ZM47.5 20V19H46.5V20H47.5ZM47.5 25H46.5V26H47.5V25ZM52.5 25V26H53.5V25H52.5ZM52.5 20H53.5V19H52.5V20ZM45 13.5H55V11.5H45V13.5ZM54 12.5V15H56V12.5H54ZM55 16H57.5V14H55V16ZM56.5 15V27.5H58.5V15H56.5ZM57.5 26.5H45V28.5H57.5V26.5ZM46 27.5V25H44V27.5H46ZM45 24H42.5V26H45V24ZM43.5 25V20H41.5V25H43.5ZM42.5 21H45V19H42.5V21ZM46 20V17.5H44V20H46ZM45 18.5H52.5V16.5H45V18.5ZM53.5 17.5V15H51.5V17.5H53.5ZM52.5 14H45V16H52.5V14ZM46 15V12.5H44V15H46ZM46.5 20V25H48.5V20H46.5ZM47.5 26H52.5V24H47.5V26ZM53.5 25V20H51.5V25H53.5ZM52.5 19H47.5V21H52.5V19ZM62.5 12.5V11.5H61.5V12.5H62.5ZM67.5 12.5H68.5V11.5H67.5V12.5ZM67.5 20H66.5V21H67.5V20ZM72.5 20V21H73.5V20H72.5ZM72.5 12.5V11.5H71.5V12.5H72.5ZM77.5 12.5H78.5V11.5H77.5V12.5ZM77.5 20V21H78.5V20H77.5ZM75 20V19H74V20H75ZM75 25V26H76V25H75ZM72.5 25V24H71.5V25H72.5ZM72.5 27.5V28.5H73.5V27.5H72.5ZM67.5 27.5H66.5V28.5H67.5V27.5ZM67.5 25H68.5V24H67.5V25ZM65 25H64V26H65V25ZM65 20H66V19H65V20ZM62.5 20H61.5V21H62.5V20ZM62.5 13.5H67.5V11.5H62.5V13.5ZM66.5 12.5V20H68.5V12.5H66.5ZM67.5 21H72.5V19H67.5V21ZM73.5 20V12.5H71.5V20H73.5ZM72.5 13.5H77.5V11.5H72.5V13.5ZM76.5 12.5V20H78.5V12.5H76.5ZM77.5 19H75V21H77.5V19ZM74 20V25H76V20H74ZM75 24H72.5V26H75V24ZM71.5 25V27.5H73.5V25H71.5ZM72.5 26.5H67.5V28.5H72.5V26.5ZM68.5 27.5V25H66.5V27.5H68.5ZM67.5 24H65V26H67.5V24ZM66 25V20H64V25H66ZM65 19H62.5V21H65V19ZM63.5 20V12.5H61.5V20H63.5ZM87.5 10V9H86.5V10H87.5ZM92.5 10H93.5V9H92.5V10ZM92.5 12.5V13.5H93.5V12.5H92.5ZM87.5 12.5H86.5V13.5H87.5V12.5ZM85 15V14H84V15H85ZM92.5 15H93.5V14H92.5V15ZM92.5 25H91.5V26H92.5V25ZM95 25H96V24H95V25ZM95 27.5V28.5H96V27.5H95ZM85 27.5H84V28.5H85V27.5ZM85 25V24H84V25H85ZM87.5 25V26H88.5V25H87.5ZM87.5 17.5H88.5V16.5H87.5V17.5ZM85 17.5H84V18.5H85V17.5ZM87.5 11H92.5V9H87.5V11ZM91.5 10V12.5H93.5V10H91.5ZM92.5 11.5H87.5V13.5H92.5V11.5ZM88.5 12.5V10H86.5V12.5H88.5ZM85 16H92.5V14H85V16ZM91.5 15V25H93.5V15H91.5ZM92.5 26H95V24H92.5V26ZM94 25V27.5H96V25H94ZM95 26.5H85V28.5H95V26.5ZM86 27.5V25H84V27.5H86ZM85 26H87.5V24H85V26ZM88.5 25V17.5H86.5V25H88.5ZM87.5 16.5H85V18.5H87.5V16.5ZM86 17.5V15H84V17.5H86ZM107.5 12.5V11.5H106.5V12.5H107.5ZM115 12.5H116V11.5H115V12.5ZM115 15H114V16H115V15ZM117.5 15H118.5V14H117.5V15ZM117.5 27.5V28.5H118.5V27.5H117.5ZM112.5 27.5H111.5V28.5H112.5V27.5ZM112.5 15H113.5V14H112.5V15ZM110 15V14H109V15H110ZM110 17.5V18.5H111V17.5H110ZM107.5 17.5V16.5H106.5V17.5H107.5ZM107.5 27.5V28.5H108.5V27.5H107.5ZM102.5 27.5H101.5V28.5H102.5V27.5ZM102.5 15V14H101.5V15H102.5ZM107.5 15V16H108.5V15H107.5ZM107.5 13.5H115V11.5H107.5V13.5ZM114 12.5V15H116V12.5H114ZM115 16H117.5V14H115V16ZM116.5 15V27.5H118.5V15H116.5ZM117.5 26.5H112.5V28.5H117.5V26.5ZM113.5 27.5V15H111.5V27.5H113.5ZM112.5 14H110V16H112.5V14ZM109 15V17.5H111V15H109ZM110 16.5H107.5V18.5H110V16.5ZM106.5 17.5V27.5H108.5V17.5H106.5ZM107.5 26.5H102.5V28.5H107.5V26.5ZM103.5 27.5V15H101.5V27.5H103.5ZM102.5 16H107.5V14H102.5V16ZM108.5 15V12.5H106.5V15H108.5ZM125 12.5V11.5H124V12.5H125ZM137.5 12.5H138.5V11.5H137.5V12.5ZM137.5 27.5V28.5H138.5V27.5H137.5ZM135 27.5V26.5H134V27.5H135ZM135 30V31H136V30H135ZM125 30H124V31H125V30ZM125 27.5V26.5H124V27.5H125ZM132.5 27.5V28.5H133.5V27.5H132.5ZM132.5 25H133.5V24H132.5V25ZM125 25H124V26H125V25ZM125 22.5H126V21.5H125V22.5ZM122.5 22.5H121.5V23.5H122.5V22.5ZM122.5 15V14H121.5V15H122.5ZM125 15V16H126V15H125ZM127.5 15V14H126.5V15H127.5ZM127.5 22.5H126.5V23.5H127.5V22.5ZM132.5 22.5V23.5H133.5V22.5H132.5ZM132.5 15H133.5V14H132.5V15ZM125 13.5H137.5V11.5H125V13.5ZM136.5 12.5V27.5H138.5V12.5H136.5ZM137.5 26.5H135V28.5H137.5V26.5ZM134 27.5V30H136V27.5H134ZM135 29H125V31H135V29ZM126 30V27.5H124V30H126ZM125 28.5H132.5V26.5H125V28.5ZM133.5 27.5V25H131.5V27.5H133.5ZM132.5 24H125V26H132.5V24ZM126 25V22.5H124V25H126ZM125 21.5H122.5V23.5H125V21.5ZM123.5 22.5V15H121.5V22.5H123.5ZM122.5 16H125V14H122.5V16ZM126 15V12.5H124V15H126ZM126.5 15V22.5H128.5V15H126.5ZM127.5 23.5H132.5V21.5H127.5V23.5ZM133.5 22.5V15H131.5V22.5H133.5ZM132.5 14H127.5V16H132.5V14ZM165 10V9H164V10H165ZM170 10H171V9H170V10ZM170 15H169V16H170V15ZM177.5 15H178.5V14H177.5V15ZM177.5 17.5V18.5H178.5V17.5H177.5ZM170 17.5V16.5H169V17.5H170ZM170 25H169V26H170V25ZM177.5 25H178.5V24H177.5V25ZM177.5 27.5V28.5H178.5V27.5H177.5ZM167.5 27.5H166.5V28.5H167.5V27.5ZM167.5 25H168.5V24H167.5V25ZM165 25H164V26H165V25ZM165 11H170V9H165V11ZM169 10V15H171V10H169ZM170 16H177.5V14H170V16ZM176.5 15V17.5H178.5V15H176.5ZM177.5 16.5H170V18.5H177.5V16.5ZM169 17.5V25H171V17.5H169ZM170 26H177.5V24H170V26ZM176.5 25V27.5H178.5V25H176.5ZM177.5 26.5H167.5V28.5H177.5V26.5ZM168.5 27.5V25H166.5V27.5H168.5ZM167.5 24H165V26H167.5V24ZM166 25V10H164V25H166ZM182.5 10V9H181.5V10H182.5ZM187.5 10H188.5V9H187.5V10ZM187.5 15H186.5V16H187.5V15ZM195 15H196V14H195V15ZM195 17.5H194V18.5H195V17.5ZM197.5 17.5H198.5V16.5H197.5V17.5ZM197.5 27.5V28.5H198.5V27.5H197.5ZM192.5 27.5H191.5V28.5H192.5V27.5ZM192.5 17.5H193.5V16.5H192.5V17.5ZM190 17.5V16.5H189V17.5H190ZM190 20V21H191V20H190ZM187.5 20V19H186.5V20H187.5ZM187.5 27.5V28.5H188.5V27.5H187.5ZM182.5 27.5H181.5V28.5H182.5V27.5ZM182.5 11H187.5V9H182.5V11ZM186.5 10V15H188.5V10H186.5ZM187.5 16H195V14H187.5V16ZM194 15V17.5H196V15H194ZM195 18.5H197.5V16.5H195V18.5ZM196.5 17.5V27.5H198.5V17.5H196.5ZM197.5 26.5H192.5V28.5H197.5V26.5ZM193.5 27.5V17.5H191.5V27.5H193.5ZM192.5 16.5H190V18.5H192.5V16.5ZM189 17.5V20H191V17.5H189ZM190 19H187.5V21H190V19ZM186.5 20V27.5H188.5V20H186.5ZM187.5 26.5H182.5V28.5H187.5V26.5ZM183.5 27.5V10H181.5V27.5H183.5ZM205 12.5V11.5H204V12.5H205ZM215 12.5H216V11.5H215V12.5ZM215 15H214V16H215V15ZM217.5 15H218.5V14H217.5V15ZM217.5 20V21H218.5V20H217.5ZM207.5 20V19H206.5V20H207.5ZM207.5 25H206.5V26H207.5V25ZM217.5 25H218.5V24H217.5V25ZM217.5 27.5V28.5H218.5V27.5H217.5ZM205 27.5H204V28.5H205V27.5ZM205 25H206V24H205V25ZM202.5 25H201.5V26H202.5V25ZM202.5 15V14H201.5V15H202.5ZM205 15V16H206V15H205ZM207.5 15V14H206.5V15H207.5ZM207.5 17.5H206.5V18.5H207.5V17.5ZM212.5 17.5V18.5H213.5V17.5H212.5ZM212.5 15H213.5V14H212.5V15ZM205 13.5H215V11.5H205V13.5ZM214 12.5V15H216V12.5H214ZM215 16H217.5V14H215V16ZM216.5 15V20H218.5V15H216.5ZM217.5 19H207.5V21H217.5V19ZM206.5 20V25H208.5V20H206.5ZM207.5 26H217.5V24H207.5V26ZM216.5 25V27.5H218.5V25H216.5ZM217.5 26.5H205V28.5H217.5V26.5ZM206 27.5V25H204V27.5H206ZM205 24H202.5V26H205V24ZM203.5 25V15H201.5V25H203.5ZM202.5 16H205V14H202.5V16ZM206 15V12.5H204V15H206ZM206.5 15V17.5H208.5V15H206.5ZM207.5 18.5H212.5V16.5H207.5V18.5ZM213.5 17.5V15H211.5V17.5H213.5ZM212.5 14H207.5V16H212.5V14ZM0 35V34H-1V35H0ZM15 35H16V34H15V35ZM15 37.5H14V38.5H15V37.5ZM17.5 37.5H18.5V36.5H17.5V37.5ZM17.5 50V51H18.5V50H17.5ZM15 50V49H14V50H15ZM15 52.5V53.5H16V52.5H15ZM2.5 52.5H1.5V53.5H2.5V52.5ZM2.5 37.5H3.5V36.5H2.5V37.5ZM0 37.5H-1V38.5H0V37.5ZM7.5 37.5V36.5H6.5V37.5H7.5ZM7.5 50H6.5V51H7.5V50ZM12.5 50V51H13.5V50H12.5ZM12.5 37.5H13.5V36.5H12.5V37.5ZM0 36H15V34H0V36ZM14 35V37.5H16V35H14ZM15 38.5H17.5V36.5H15V38.5ZM16.5 37.5V50H18.5V37.5H16.5ZM17.5 49H15V51H17.5V49ZM14 50V52.5H16V50H14ZM15 51.5H2.5V53.5H15V51.5ZM3.5 52.5V37.5H1.5V52.5H3.5ZM2.5 36.5H0V38.5H2.5V36.5ZM1 37.5V35H-1V37.5H1ZM6.5 37.5V50H8.5V37.5H6.5ZM7.5 51H12.5V49H7.5V51ZM13.5 50V37.5H11.5V50H13.5ZM12.5 36.5H7.5V38.5H12.5V36.5ZM27.5 35V34H26.5V35H27.5ZM32.5 35H33.5V34H32.5V35ZM32.5 37.5V38.5H33.5V37.5H32.5ZM27.5 37.5H26.5V38.5H27.5V37.5ZM25 40V39H24V40H25ZM32.5 40H33.5V39H32.5V40ZM32.5 50H31.5V51H32.5V50ZM35 50H36V49H35V50ZM35 52.5V53.5H36V52.5H35ZM25 52.5H24V53.5H25V52.5ZM25 50V49H24V50H25ZM27.5 50V51H28.5V50H27.5ZM27.5 42.5H28.5V41.5H27.5V42.5ZM25 42.5H24V43.5H25V42.5ZM27.5 36H32.5V34H27.5V36ZM31.5 35V37.5H33.5V35H31.5ZM32.5 36.5H27.5V38.5H32.5V36.5ZM28.5 37.5V35H26.5V37.5H28.5ZM25 41H32.5V39H25V41ZM31.5 40V50H33.5V40H31.5ZM32.5 51H35V49H32.5V51ZM34 50V52.5H36V50H34ZM35 51.5H25V53.5H35V51.5ZM26 52.5V50H24V52.5H26ZM25 51H27.5V49H25V51ZM28.5 50V42.5H26.5V50H28.5ZM27.5 41.5H25V43.5H27.5V41.5ZM26 42.5V40H24V42.5H26ZM45 37.5V36.5H44V37.5H45ZM57.5 37.5H58.5V36.5H57.5V37.5ZM57.5 52.5V53.5H58.5V52.5H57.5ZM55 52.5V51.5H54V52.5H55ZM55 55V56H56V55H55ZM45 55H44V56H45V55ZM45 52.5V51.5H44V52.5H45ZM52.5 52.5V53.5H53.5V52.5H52.5ZM52.5 50H53.5V49H52.5V50ZM45 50H44V51H45V50ZM45 47.5H46V46.5H45V47.5ZM42.5 47.5H41.5V48.5H42.5V47.5ZM42.5 40V39H41.5V40H42.5ZM45 40V41H46V40H45ZM47.5 40V39H46.5V40H47.5ZM47.5 47.5H46.5V48.5H47.5V47.5ZM52.5 47.5V48.5H53.5V47.5H52.5ZM52.5 40H53.5V39H52.5V40ZM45 38.5H57.5V36.5H45V38.5ZM56.5 37.5V52.5H58.5V37.5H56.5ZM57.5 51.5H55V53.5H57.5V51.5ZM54 52.5V55H56V52.5H54ZM55 54H45V56H55V54ZM46 55V52.5H44V55H46ZM45 53.5H52.5V51.5H45V53.5ZM53.5 52.5V50H51.5V52.5H53.5ZM52.5 49H45V51H52.5V49ZM46 50V47.5H44V50H46ZM45 46.5H42.5V48.5H45V46.5ZM43.5 47.5V40H41.5V47.5H43.5ZM42.5 41H45V39H42.5V41ZM46 40V37.5H44V40H46ZM46.5 40V47.5H48.5V40H46.5ZM47.5 48.5H52.5V46.5H47.5V48.5ZM53.5 47.5V40H51.5V47.5H53.5ZM52.5 39H47.5V41H52.5V39ZM67.5 35V34H66.5V35H67.5ZM72.5 35H73.5V34H72.5V35ZM72.5 37.5V38.5H73.5V37.5H72.5ZM67.5 37.5H66.5V38.5H67.5V37.5ZM65 40V39H64V40H65ZM72.5 40H73.5V39H72.5V40ZM72.5 50H71.5V51H72.5V50ZM75 50H76V49H75V50ZM75 52.5V53.5H76V52.5H75ZM65 52.5H64V53.5H65V52.5ZM65 50V49H64V50H65ZM67.5 50V51H68.5V50H67.5ZM67.5 42.5H68.5V41.5H67.5V42.5ZM65 42.5H64V43.5H65V42.5ZM67.5 36H72.5V34H67.5V36ZM71.5 35V37.5H73.5V35H71.5ZM72.5 36.5H67.5V38.5H72.5V36.5ZM68.5 37.5V35H66.5V37.5H68.5ZM65 41H72.5V39H65V41ZM71.5 40V50H73.5V40H71.5ZM72.5 51H75V49H72.5V51ZM74 50V52.5H76V50H74ZM75 51.5H65V53.5H75V51.5ZM66 52.5V50H64V52.5H66ZM65 51H67.5V49H65V51ZM68.5 50V42.5H66.5V50H68.5ZM67.5 41.5H65V43.5H67.5V41.5ZM66 42.5V40H64V42.5H66ZM85 35V34H84V35H85ZM90 35H91V34H90V35ZM90 40H89V41H90V40ZM97.5 40H98.5V39H97.5V40ZM97.5 42.5V43.5H98.5V42.5H97.5ZM90 42.5V41.5H89V42.5H90ZM90 50H89V51H90V50ZM97.5 50H98.5V49H97.5V50ZM97.5 52.5V53.5H98.5V52.5H97.5ZM87.5 52.5H86.5V53.5H87.5V52.5ZM87.5 50H88.5V49H87.5V50ZM85 50H84V51H85V50ZM85 36H90V34H85V36ZM89 35V40H91V35H89ZM90 41H97.5V39H90V41ZM96.5 40V42.5H98.5V40H96.5ZM97.5 41.5H90V43.5H97.5V41.5ZM89 42.5V50H91V42.5H89ZM90 51H97.5V49H90V51ZM96.5 50V52.5H98.5V50H96.5ZM97.5 51.5H87.5V53.5H97.5V51.5ZM88.5 52.5V50H86.5V52.5H88.5ZM87.5 49H85V51H87.5V49ZM86 50V35H84V50H86ZM105 37.5V36.5H104V37.5H105ZM115 37.5H116V36.5H115V37.5ZM115 40H114V41H115V40ZM117.5 40H118.5V39H117.5V40ZM117.5 52.5V53.5H118.5V52.5H117.5ZM105 52.5H104V53.5H105V52.5ZM105 50H106V49H105V50ZM102.5 50H101.5V51H102.5V50ZM102.5 45V44H101.5V45H102.5ZM105 45V46H106V45H105ZM105 42.5V41.5H104V42.5H105ZM112.5 42.5V43.5H113.5V42.5H112.5ZM112.5 40H113.5V39H112.5V40ZM105 40H104V41H105V40ZM107.5 45V44H106.5V45H107.5ZM107.5 50H106.5V51H107.5V50ZM112.5 50V51H113.5V50H112.5ZM112.5 45H113.5V44H112.5V45ZM105 38.5H115V36.5H105V38.5ZM114 37.5V40H116V37.5H114ZM115 41H117.5V39H115V41ZM116.5 40V52.5H118.5V40H116.5ZM117.5 51.5H105V53.5H117.5V51.5ZM106 52.5V50H104V52.5H106ZM105 49H102.5V51H105V49ZM103.5 50V45H101.5V50H103.5ZM102.5 46H105V44H102.5V46ZM106 45V42.5H104V45H106ZM105 43.5H112.5V41.5H105V43.5ZM113.5 42.5V40H111.5V42.5H113.5ZM112.5 39H105V41H112.5V39ZM106 40V37.5H104V40H106ZM106.5 45V50H108.5V45H106.5ZM107.5 51H112.5V49H107.5V51ZM113.5 50V45H111.5V50H113.5ZM112.5 44H107.5V46H112.5V44ZM125 37.5V36.5H124V37.5H125ZM130 37.5H131V36.5H130V37.5ZM130 50H129V51H130V50ZM135 50H136V49H135V50ZM135 52.5V53.5H136V52.5H135ZM127.5 52.5H126.5V53.5H127.5V52.5ZM127.5 50H128.5V49H127.5V50ZM125 50H124V51H125V50ZM125 38.5H130V36.5H125V38.5ZM129 37.5V50H131V37.5H129ZM130 51H135V49H130V51ZM134 50V52.5H136V50H134ZM135 51.5H127.5V53.5H135V51.5ZM128.5 52.5V50H126.5V52.5H128.5ZM127.5 49H125V51H127.5V49ZM126 50V37.5H124V50H126ZM162.5 35V34H161.5V35H162.5ZM177.5 35H178.5V34H177.5V35ZM177.5 37.5V38.5H178.5V37.5H177.5ZM172.5 37.5V36.5H171.5V37.5H172.5ZM172.5 52.5V53.5H173.5V52.5H172.5ZM167.5 52.5H166.5V53.5H167.5V52.5ZM167.5 37.5H168.5V36.5H167.5V37.5ZM162.5 37.5H161.5V38.5H162.5V37.5ZM162.5 36H177.5V34H162.5V36ZM176.5 35V37.5H178.5V35H176.5ZM177.5 36.5H172.5V38.5H177.5V36.5ZM171.5 37.5V52.5H173.5V37.5H171.5ZM172.5 51.5H167.5V53.5H172.5V51.5ZM168.5 52.5V37.5H166.5V52.5H168.5ZM167.5 36.5H162.5V38.5H167.5V36.5ZM163.5 37.5V35H161.5V37.5H163.5ZM185 37.5V36.5H184V37.5H185ZM195 37.5H196V36.5H195V37.5ZM195 40H194V41H195V40ZM197.5 40H198.5V39H197.5V40ZM197.5 52.5V53.5H198.5V52.5H197.5ZM185 52.5H184V53.5H185V52.5ZM185 50H186V49H185V50ZM182.5 50H181.5V51H182.5V50ZM182.5 45V44H181.5V45H182.5ZM185 45V46H186V45H185ZM185 42.5V41.5H184V42.5H185ZM192.5 42.5V43.5H193.5V42.5H192.5ZM192.5 40H193.5V39H192.5V40ZM185 40H184V41H185V40ZM187.5 45V44H186.5V45H187.5ZM187.5 50H186.5V51H187.5V50ZM192.5 50V51H193.5V50H192.5ZM192.5 45H193.5V44H192.5V45ZM185 38.5H195V36.5H185V38.5ZM194 37.5V40H196V37.5H194ZM195 41H197.5V39H195V41ZM196.5 40V52.5H198.5V40H196.5ZM197.5 51.5H185V53.5H197.5V51.5ZM186 52.5V50H184V52.5H186ZM185 49H182.5V51H185V49ZM183.5 50V45H181.5V50H183.5ZM182.5 46H185V44H182.5V46ZM186 45V42.5H184V45H186ZM185 43.5H192.5V41.5H185V43.5ZM193.5 42.5V40H191.5V42.5H193.5ZM192.5 39H185V41H192.5V39ZM186 40V37.5H184V40H186ZM186.5 45V50H188.5V45H186.5ZM187.5 51H192.5V49H187.5V51ZM193.5 50V45H191.5V50H193.5ZM192.5 44H187.5V46H192.5V44ZM202.5 37.5V36.5H201.5V37.5H202.5ZM215 37.5H216V36.5H215V37.5ZM215 40H214V41H215V40ZM217.5 40H218.5V39H217.5V40ZM217.5 47.5V48.5H218.5V47.5H217.5ZM215 47.5V46.5H214V47.5H215ZM215 50V51H216V50H215ZM207.5 50V49H206.5V50H207.5ZM207.5 55V56H208.5V55H207.5ZM202.5 55H201.5V56H202.5V55ZM207.5 40V39H206.5V40H207.5ZM207.5 47.5H206.5V48.5H207.5V47.5ZM212.5 47.5V48.5H213.5V47.5H212.5ZM212.5 40H213.5V39H212.5V40ZM202.5 38.5H215V36.5H202.5V38.5ZM214 37.5V40H216V37.5H214ZM215 41H217.5V39H215V41ZM216.5 40V47.5H218.5V40H216.5ZM217.5 46.5H215V48.5H217.5V46.5ZM214 47.5V50H216V47.5H214ZM215 49H207.5V51H215V49ZM206.5 50V55H208.5V50H206.5ZM207.5 54H202.5V56H207.5V54ZM203.5 55V37.5H201.5V55H203.5ZM206.5 40V47.5H208.5V40H206.5ZM207.5 48.5H212.5V46.5H207.5V48.5ZM213.5 47.5V40H211.5V47.5H213.5ZM212.5 39H207.5V41H212.5V39ZM225 37.5V36.5H224V37.5H225ZM235 37.5H236V36.5H235V37.5ZM235 40H234V41H235V40ZM237.5 40H238.5V39H237.5V40ZM237.5 45V46H238.5V45H237.5ZM227.5 45V44H226.5V45H227.5ZM227.5 50H226.5V51H227.5V50ZM237.5 50H238.5V49H237.5V50ZM237.5 52.5V53.5H238.5V52.5H237.5ZM225 52.5H224V53.5H225V52.5ZM225 50H226V49H225V50ZM222.5 50H221.5V51H222.5V50ZM222.5 40V39H221.5V40H222.5ZM225 40V41H226V40H225ZM227.5 40V39H226.5V40H227.5ZM227.5 42.5H226.5V43.5H227.5V42.5ZM232.5 42.5V43.5H233.5V42.5H232.5ZM232.5 40H233.5V39H232.5V40ZM225 38.5H235V36.5H225V38.5ZM234 37.5V40H236V37.5H234ZM235 41H237.5V39H235V41ZM236.5 40V45H238.5V40H236.5ZM237.5 44H227.5V46H237.5V44ZM226.5 45V50H228.5V45H226.5ZM227.5 51H237.5V49H227.5V51ZM236.5 50V52.5H238.5V50H236.5ZM237.5 51.5H225V53.5H237.5V51.5ZM226 52.5V50H224V52.5H226ZM225 49H222.5V51H225V49ZM223.5 50V40H221.5V50H223.5ZM222.5 41H225V39H222.5V41ZM226 40V37.5H224V40H226ZM226.5 40V42.5H228.5V40H226.5ZM227.5 43.5H232.5V41.5H227.5V43.5ZM233.5 42.5V40H231.5V42.5H233.5ZM232.5 39H227.5V41H232.5V39ZM245 37.5V36.5H244V37.5H245ZM255 37.5H256V36.5H255V37.5ZM255 40V41H256V40H255ZM247.5 40V39H246.5V40H247.5ZM247.5 42.5H246.5V43.5H247.5V42.5ZM255 42.5H256V41.5H255V42.5ZM255 45H254V46H255V45ZM257.5 45H258.5V44H257.5V45ZM257.5 50V51H258.5V50H257.5ZM255 50V49H254V50H255ZM255 52.5V53.5H256V52.5H255ZM245 52.5H244V53.5H245V52.5ZM245 50H246V49H245V50ZM242.5 50H241.5V51H242.5V50ZM242.5 47.5V46.5H241.5V47.5H242.5ZM247.5 47.5H248.5V46.5H247.5V47.5ZM247.5 50H246.5V51H247.5V50ZM252.5 50V51H253.5V50H252.5ZM252.5 45H253.5V44H252.5V45ZM245 45H244V46H245V45ZM245 42.5H246V41.5H245V42.5ZM242.5 42.5H241.5V43.5H242.5V42.5ZM242.5 40V39H241.5V40H242.5ZM245 40V41H246V40H245ZM245 38.5H255V36.5H245V38.5ZM254 37.5V40H256V37.5H254ZM255 39H247.5V41H255V39ZM246.5 40V42.5H248.5V40H246.5ZM247.5 43.5H255V41.5H247.5V43.5ZM254 42.5V45H256V42.5H254ZM255 46H257.5V44H255V46ZM256.5 45V50H258.5V45H256.5ZM257.5 49H255V51H257.5V49ZM254 50V52.5H256V50H254ZM255 51.5H245V53.5H255V51.5ZM246 52.5V50H244V52.5H246ZM245 49H242.5V51H245V49ZM243.5 50V47.5H241.5V50H243.5ZM242.5 48.5H247.5V46.5H242.5V48.5ZM246.5 47.5V50H248.5V47.5H246.5ZM247.5 51H252.5V49H247.5V51ZM253.5 50V45H251.5V50H253.5ZM252.5 44H245V46H252.5V44ZM246 45V42.5H244V45H246ZM245 41.5H242.5V43.5H245V41.5ZM243.5 42.5V40H241.5V42.5H243.5ZM242.5 41H245V39H242.5V41ZM246 40V37.5H244V40H246ZM265 35V34H264V35H265ZM270 35H271V34H270V35ZM270 40H269V41H270V40ZM277.5 40H278.5V39H277.5V40ZM277.5 42.5V43.5H278.5V42.5H277.5ZM270 42.5V41.5H269V42.5H270ZM270 50H269V51H270V50ZM277.5 50H278.5V49H277.5V50ZM277.5 52.5V53.5H278.5V52.5H277.5ZM267.5 52.5H266.5V53.5H267.5V52.5ZM267.5 50H268.5V49H267.5V50ZM265 50H264V51H265V50ZM265 36H270V34H265V36ZM269 35V40H271V35H269ZM270 41H277.5V39H270V41ZM276.5 40V42.5H278.5V40H276.5ZM277.5 41.5H270V43.5H277.5V41.5ZM269 42.5V50H271V42.5H269ZM270 51H277.5V49H270V51ZM276.5 50V52.5H278.5V50H276.5ZM277.5 51.5H267.5V53.5H277.5V51.5ZM268.5 52.5V50H266.5V52.5H268.5ZM267.5 49H265V51H267.5V49ZM266 50V35H264V50H266ZM287.5 37.5V36.5H286.5V37.5H287.5ZM297.5 37.5H298.5V36.5H297.5V37.5ZM297.5 40V41H298.5V40H297.5ZM292.5 40V39H291.5V40H292.5ZM292.5 42.5V43.5H293.5V42.5H292.5ZM290 42.5V41.5H289V42.5H290ZM290 52.5V53.5H291V52.5H290ZM285 52.5H284V53.5H285V52.5ZM285 40V39H284V40H285ZM287.5 40V41H288.5V40H287.5ZM287.5 38.5H297.5V36.5H287.5V38.5ZM296.5 37.5V40H298.5V37.5H296.5ZM297.5 39H292.5V41H297.5V39ZM291.5 40V42.5H293.5V40H291.5ZM292.5 41.5H290V43.5H292.5V41.5ZM289 42.5V52.5H291V42.5H289ZM290 51.5H285V53.5H290V51.5ZM286 52.5V40H284V52.5H286ZM285 41H287.5V39H285V41ZM288.5 40V37.5H286.5V40H288.5ZM305 37.5V36.5H304V37.5H305ZM310 37.5H311V36.5H310V37.5ZM310 45H309V46H310V45ZM312.5 45V46H313.5V45H312.5ZM312.5 37.5V36.5H311.5V37.5H312.5ZM317.5 37.5H318.5V36.5H317.5V37.5ZM317.5 45V46H318.5V45H317.5ZM315 45V44H314V45H315ZM315 50V51H316V50H315ZM312.5 50V49H311.5V50H312.5ZM312.5 52.5V53.5H313.5V52.5H312.5ZM305 52.5H304V53.5H305V52.5ZM305 50V49H304V50H305ZM310 50V51H311V50H310ZM310 47.5H311V46.5H310V47.5ZM307.5 47.5H306.5V48.5H307.5V47.5ZM307.5 45H308.5V44H307.5V45ZM305 45H304V46H305V45ZM305 38.5H310V36.5H305V38.5ZM309 37.5V45H311V37.5H309ZM310 46H312.5V44H310V46ZM313.5 45V37.5H311.5V45H313.5ZM312.5 38.5H317.5V36.5H312.5V38.5ZM316.5 37.5V45H318.5V37.5H316.5ZM317.5 44H315V46H317.5V44ZM314 45V50H316V45H314ZM315 49H312.5V51H315V49ZM311.5 50V52.5H313.5V50H311.5ZM312.5 51.5H305V53.5H312.5V51.5ZM306 52.5V50H304V52.5H306ZM305 51H310V49H305V51ZM311 50V47.5H309V50H311ZM310 46.5H307.5V48.5H310V46.5ZM308.5 47.5V45H306.5V47.5H308.5ZM307.5 44H305V46H307.5V44ZM306 45V37.5H304V45H306Z" fill="black" mask="url(#path-5-outside-1_2_130)"/>
<circle cx="126.5" cy="27" r="6.5" fill="#DA9DFF"/>
<circle cx="316.5" cy="53" r="6.5" fill="#DA9DFF"/>
<circle cx="239.5" cy="52" r="6.5" fill="#FFA8CD"/>
<circle cx="41.5" cy="27" r="6.5" fill="#A1D7FF"/>
<circle cx="76.5" cy="46" r="6.5" fill="#9AF7A3"/>
<circle cx="229.5" cy="25" r="6.5" fill="#9AF7A3"/>
<circle cx="183.5" cy="34" r="6.5" fill="#FFA866"/>
<path d="M1 84H2V90H1V84ZM2 90H3V91H2V90ZM3 90V89H4V90H3ZM4 89V86H5V89H4ZM5 89H6V90H5V89ZM6 90H7V91H6V90ZM7 90V84H8V90H7ZM11 85H14V86H11V85ZM14 86H15V88H11V90H10V86H11V87H14V86ZM11 90H15V91H11V90ZM19 85H20V90H19V85ZM20 90H22V91H20V90ZM27 85H30V86H27V85ZM30 86H31V87H30V86ZM27 86V90H26V86H27ZM27 90H31V91H27V90ZM35 85H38V86H35V85ZM38 86H39V90H38V86ZM38 90V91H35V90H38ZM35 90H34V86H35V90ZM42 85H44V86H42V85ZM44 86H45V91H44V86ZM45 86V85H47V86H45ZM47 86H48V91H47V86ZM42 86V91H41V86H42ZM51 85H54V86H51V85ZM54 86H55V88H51V90H50V86H51V87H54V86ZM51 90H55V91H51V90ZM67 84H68V86H71V87H68V90H67V84ZM68 90H71V91H68V90ZM75 85H78V86H75V85ZM78 86H79V90H78V86ZM78 90V91H75V90H78ZM75 90H74V86H75V90ZM90 85H92V86H90V85ZM92 86H93V91H92V86ZM93 86V85H95V86H93ZM95 86H96V91H95V86ZM90 86V91H89V86H90ZM99 85H100V88H99V85ZM100 88H102V90H101V89H100V88ZM102 88V85H103V88H102ZM101 90V91H99V90H101ZM118 84H119V91H115V90H118V87H115V86H118V84ZM115 90H114V87H115V90ZM124 84H125V85H124V84ZM123 86H125V90H126V91H123V90H124V87H123V86ZM131 85H135V91H134V90H131V89H134V86H131V85ZM134 91V92H131V91H134ZM131 89H130V86H131V89ZM140 84H141V85H140V84ZM139 86H141V90H142V91H139V90H140V87H139V86ZM147 84H148V86H151V87H148V90H147V84ZM148 90H151V91H148V90ZM155 85H158V86H155V85ZM158 86H159V91H155V90H158V88H155V87H158V86ZM155 90H154V88H155V90ZM163 85H164V90H163V85ZM164 90H166V91H164V90ZM179 84H180V86H183V87H180V90H179V84ZM180 90H183V91H180V90ZM187 85H190V86H187V85ZM190 86H191V91H187V90H190V88H187V87H190V86ZM187 90H186V88H187V90ZM195 85H199V86H196V89H199V90H196V92H195V85ZM199 86H200V89H199V86ZM203 85H206V86H203V85ZM206 86H207V88H203V90H202V86H203V87H206V86ZM203 90H207V91H203V90ZM211 85H214V86H211V85ZM211 86V87H210V86H211ZM211 87H214V88H211V87ZM214 88H215V90H214V88ZM214 90V91H211V90H214ZM211 90H210V89H211V90ZM219 84H220V86H223V87H220V90H219V84ZM220 90H223V91H220V90ZM227 85H228V86H229V87H228V91H227V85ZM229 86V85H231V86H229ZM235 85H236V88H235V85ZM236 88H238V90H237V89H236V88ZM238 88V85H239V88H238ZM237 90V91H235V90H237ZM245 89H246V91H245V89ZM245 91V92H244V91H245ZM263 85H264V90H263V85ZM263 90V91H261V90H263ZM261 90H260V86H261V90ZM260 90V91H259V90H260ZM259 90H258V86H259V90ZM266 84H267V87H268V88H267V91H266V84ZM268 87V86H270V87H268ZM270 87H271V91H270V87ZM275 85H278V86H275V85ZM278 86H279V88H275V90H274V86H275V87H278V86ZM275 90H279V91H275V90ZM283 85H284V86H285V87H284V91H283V85ZM285 86V85H287V86H285ZM291 85H294V86H291V85ZM294 86H295V88H291V90H290V86H291V87H294V86ZM291 90H295V91H291V90ZM307 84H310V85H309V90H310V91H307V90H308V85H307V84ZM7 97H8V102H7V97ZM7 102V103H5V102H7ZM5 102H4V98H5V102ZM4 102V103H3V102H4ZM3 102H2V98H3V102ZM11 97H14V98H11V97ZM14 98H15V100H11V102H10V98H11V99H14V98ZM11 102H15V103H11V102ZM19 97H22V98H19V97ZM22 98H23V103H19V102H22V100H19V99H22V98ZM19 102H18V100H19V102ZM26 97H27V100H26V97ZM27 100H28V102H27V100ZM28 102H29V103H28V102ZM29 102V100H30V102H29ZM30 100V97H31V100H30ZM35 97H38V98H35V97ZM38 98H39V100H35V102H34V98H35V99H38V98ZM35 102H39V103H35V102ZM51 96H52V98H55V99H52V102H51V96ZM52 102H55V103H52V102ZM58 96H59V99H60V100H59V103H58V96ZM60 99V98H62V99H60ZM62 99H63V103H62V99ZM67 97H70V98H67V97ZM70 98H71V100H67V102H66V98H67V99H70V98ZM67 102H71V103H67V102ZM83 96H84V98H87V99H84V102H83V96ZM84 102H87V103H84V102ZM90 96H91V99H92V100H91V103H90V96ZM92 99V98H94V99H92ZM94 99H95V103H94V99ZM99 97H100V98H101V99H100V103H99V97ZM101 98V97H103V98H101ZM107 97H110V98H107V97ZM110 98H111V100H107V102H106V98H107V99H110V98ZM107 102H111V103H107V102ZM115 97H118V98H115V97ZM118 98H119V103H115V102H118V100H115V99H118V98ZM115 102H114V100H115V102ZM126 96H127V103H123V102H126V99H123V98H126V96ZM123 102H122V99H123V102ZM131 97H134V98H131V97ZM131 98V99H130V98H131ZM131 99H134V100H131V99ZM134 100H135V102H134V100ZM134 102V103H131V102H134ZM131 102H130V101H131V102ZM147 97H150V98H147V97ZM150 98H151V102H150V98ZM150 102V103H147V102H150ZM147 102H146V98H147V102ZM156 96H159V97H156V96ZM156 97V99H158V100H156V103H155V100H154V99H155V97H156ZM171 96H172V98H175V99H172V102H171V96ZM172 102H175V103H172V102ZM179 97H180V98H181V99H180V103H179V97ZM181 98V97H183V98H181ZM187 97H190V98H187V97ZM190 98H191V103H187V102H190V100H187V99H190V98ZM187 102H186V100H187V102ZM198 96H199V103H195V102H198V99H195V98H198V96ZM195 102H194V99H195V102ZM204 96H205V97H204V96ZM203 98H205V102H206V103H203V102H204V99H203V98ZM211 96H212V98H215V99H212V102H211V96ZM212 102H215V103H212V102ZM220 96H221V97H220V96ZM219 98H221V102H222V103H219V102H220V99H219V98ZM227 97H230V98H227V97ZM230 98H231V102H230V98ZM230 102V103H227V102H230ZM227 102H226V98H227V102ZM236 97H238V98H236V97ZM238 98H239V103H238V98ZM236 98V99H235V103H234V98H236ZM243 97H246V98H243V97ZM246 98H247V103H243V102H246V100H243V99H246V98ZM243 102H242V100H243V102ZM251 97H252V102H251V97ZM252 102H254V103H252V102ZM266 96H271V97H269V103H268V97H266V96ZM274 96H275V99H276V100H275V103H274V96ZM276 99V98H278V99H276ZM278 99H279V103H278V99ZM283 97H286V98H283V97ZM286 98H287V103H283V102H286V100H283V99H286V98ZM283 102H282V100H283V102ZM292 96H293V97H292V96ZM291 98H293V102H294V103H291V102H292V99H291V98ZM3 109H6V110H3V109ZM6 110H7V111H6V110ZM3 110V114H2V110H3ZM3 114H7V115H3V114ZM11 109H12V110H13V111H12V115H11V109ZM13 110V109H15V110H13ZM19 109H22V110H19V109ZM22 110H23V115H19V114H22V112H19V111H22V110ZM19 114H18V112H19V114ZM28 108H31V109H28V108ZM28 109V111H30V112H28V115H27V112H26V111H27V109H28ZM35 108H36V110H39V111H36V114H35V108ZM36 114H39V115H36V114ZM43 109H46V110H43V109ZM43 110V111H42V110H43ZM43 111H46V112H43V111ZM46 112H47V114H46V112ZM46 114V115H43V114H46ZM43 114H42V113H43V114ZM63 109H64V114H63V109ZM63 114V115H61V114H63ZM61 114H60V110H61V114ZM60 114V115H59V114H60ZM59 114H58V110H59V114ZM68 108H69V109H68V108ZM67 110H69V114H70V115H67V114H68V111H67V110ZM75 108H76V110H79V111H76V114H75V108ZM76 114H79V115H76V114ZM82 108H83V111H84V112H83V115H82V108ZM84 111V110H86V111H84ZM86 111H87V115H86V111ZM99 108H100V110H103V111H100V114H99V108ZM100 114H103V115H100V114ZM106 108H107V111H108V112H107V115H106V108ZM108 111V110H110V111H108ZM110 111H111V115H110V111ZM115 109H118V110H115V109ZM118 110H119V112H115V114H114V110H115V111H118V110ZM115 114H119V115H115V114ZM130 109H131V112H130V109ZM131 112H132V114H131V112ZM132 114H133V115H132V114ZM133 114V112H134V114H133ZM134 112V109H135V112H134ZM140 108H141V109H140V108ZM139 110H141V114H142V115H139V114H140V111H139V110ZM146 108H147V110H150V111H147V114H150V115H146V108ZM150 111H151V114H150V111ZM155 109H156V110H157V111H156V115H155V109ZM157 110V109H159V110H157ZM163 109H166V110H163V109ZM166 110H167V115H163V114H166V112H163V111H166V110ZM163 114H162V112H163V114ZM172 109H174V110H172V109ZM174 110H175V115H174V110ZM172 110V111H171V115H170V110H172ZM179 108H180V110H183V111H180V114H179V108ZM180 114H183V115H180V114ZM195 109H198V110H195V109ZM195 110V111H194V110H195ZM195 111H198V112H195V111ZM198 112H199V114H198V112ZM198 114V115H195V114H198ZM195 114H194V113H195V114ZM203 108H204V110H207V111H204V114H203V108ZM204 114H207V115H204V114ZM211 109H212V110H213V111H212V115H211V109ZM213 110V109H215V110H213ZM219 109H222V110H219V109ZM222 110H223V115H219V114H222V112H219V111H222V110ZM219 114H218V112H219V114ZM228 109H230V110H228V109ZM230 110H231V115H230V110ZM228 110V111H227V115H226V110H228ZM238 108H239V115H235V114H238V111H235V110H238V108ZM235 114H234V111H235V114ZM243 109H246V110H243V109ZM243 110V111H242V110H243ZM243 111H246V112H243V111ZM246 112H247V114H246V112ZM246 114V115H243V114H246ZM243 114H242V113H243V114ZM259 109H262V110H259V109ZM262 110H263V114H262V110ZM262 114V115H259V114H262ZM259 114H258V110H259V114ZM268 108H271V109H268V108ZM268 109V111H270V112H268V115H267V112H266V111H267V109H268ZM282 109H284V110H282V109ZM284 110H285V115H284V110ZM285 110V109H287V110H285ZM287 110H288V115H287V110ZM282 110V115H281V110H282ZM291 109H294V110H291V109ZM294 110H295V114H294V110ZM294 114V115H291V114H294ZM291 114H290V110H291V114ZM302 108H303V115H299V114H302V111H299V110H302V108ZM299 114H298V111H299V114ZM307 109H310V110H307V109ZM310 110H311V112H307V114H306V110H307V111H310V110ZM307 114H311V115H307V114ZM315 109H316V110H317V111H316V115H315V109ZM317 110V109H319V110H317ZM324 109H326V110H324V109ZM326 110H327V115H326V110ZM324 110V111H323V115H322V110H324ZM6 121H7V128H3V127H6V124H3V123H6V121ZM3 127H2V124H3V127ZM12 121H13V122H12V121ZM11 123H13V127H14V128H11V127H12V124H11V123ZM19 122H23V128H22V127H19V126H22V123H19V122ZM22 128V129H19V128H22ZM19 126H18V123H19V126ZM28 121H29V122H28V121ZM27 123H29V127H30V128H27V127H28V124H27V123ZM35 121H36V123H39V124H36V127H35V121ZM36 127H39V128H36V127ZM43 122H46V123H43V122ZM46 123H47V128H43V127H46V125H43V124H46V123ZM43 127H42V125H43V127ZM51 122H52V127H51V122ZM52 127H54V128H52V127ZM67 121H68V123H71V124H68V127H67V121ZM68 127H71V128H68V127ZM75 122H78V123H75V122ZM78 123H79V125H75V127H74V123H75V124H78V123ZM75 127H79V128H75V127ZM83 122H86V123H83V122ZM86 123H87V124H86V123ZM83 123V127H82V123H83ZM83 127H87V128H83V127ZM90 121H91V124H92V125H91V128H90V121ZM92 124V123H94V124H92ZM94 124H95V128H94V124ZM100 122H102V123H100V122ZM102 123H103V128H102V123ZM100 123V124H99V128H98V123H100ZM107 122H110V123H107V122ZM110 123H111V127H110V123ZM110 127V128H107V127H110ZM107 127H106V123H107V127ZM115 122H116V127H115V122ZM116 127H118V128H116V127ZM123 122H126V123H123V122ZM126 123H127V127H126V123ZM126 127V128H123V127H126ZM123 127H122V123H123V127ZM131 122H135V128H134V127H131V126H134V123H131V122ZM134 128V129H131V128H134ZM131 126H130V123H131V126ZM139 122H140V125H139V122ZM140 125H142V127H141V126H140V125ZM142 125V122H143V125H142ZM141 127V128H139V127H141ZM148 127H149V128H148V127ZM162 121H167V122H165V128H164V122H162V121ZM170 121H171V124H172V125H171V128H170V121ZM172 124V123H174V124H172ZM174 124H175V128H174V124ZM180 121H181V122H180V121ZM179 123H181V127H182V128H179V127H180V124H179V123ZM187 122H190V123H187V122ZM187 123V124H186V123H187ZM187 124H190V125H187V124ZM190 125H191V127H190V125ZM190 127V128H187V127H190ZM187 127H186V126H187V127ZM203 121H204V123H207V124H204V127H203V121ZM204 127H207V128H204V127ZM211 122H214V123H211V122ZM214 123H215V128H211V127H214V125H211V124H214V123ZM211 127H210V125H211V127ZM219 122H223V123H220V126H223V127H220V129H219V122ZM223 123H224V126H223V123ZM227 122H230V123H227V122ZM230 123H231V125H227V127H226V123H227V124H230V123ZM227 127H231V128H227V127ZM235 122H238V123H235V122ZM235 123V124H234V123H235ZM235 124H238V125H235V124ZM238 125H239V127H238V125ZM238 127V128H235V127H238ZM235 127H234V126H235V127ZM243 121H244V123H247V124H244V127H243V121ZM244 127H247V128H244V127ZM251 122H252V123H253V124H252V128H251V122ZM253 123V122H255V123H253ZM259 122H260V125H259V122ZM260 125H262V127H261V126H260V125ZM262 125V122H263V125H262ZM261 127V128H259V127H261ZM276 121H277V122H276V121ZM275 123H277V127H278V128H275V127H276V124H275V123ZM283 122H286V123H283V122ZM283 123V124H282V123H283ZM283 124H286V125H283V124ZM286 125H287V127H286V125ZM286 127V128H283V127H286ZM283 127H282V126H283V127ZM299 122H302V123H299V122ZM302 123H303V128H299V127H302V125H299V124H302V123ZM299 127H298V125H299V127ZM3 134H4V139H3V134ZM4 139H6V140H4V139ZM12 133H13V134H12V133ZM11 135H13V139H14V140H11V139H12V136H11V135ZM18 134H19V137H18V134ZM19 137H20V139H19V137ZM20 139H21V140H20V139ZM21 139V137H22V139H21ZM22 137V134H23V137H22ZM28 133H29V134H28V133ZM27 135H29V139H30V140H27V139H28V136H27V135ZM36 134H38V135H36V134ZM38 135H39V140H38V135ZM36 135V136H35V140H34V135H36ZM43 134H47V140H46V139H43V138H46V135H43V134ZM46 140V141H43V140H46ZM43 138H42V135H43V138ZM53 138H54V140H53V138ZM53 140V141H52V140H53ZM66 133H67V135H70V136H67V139H70V140H66V133ZM70 136H71V139H70V136ZM75 134H76V135H77V136H76V140H75V134ZM77 135V134H79V135H77ZM83 134H86V135H83V134ZM86 135H87V137H83V139H82V135H83V136H86V135ZM83 139H87V140H83V139ZM91 134H94V135H91V134ZM94 135H95V140H91V139H94V137H91V136H94V135ZM91 139H90V137H91V139ZM99 133H100V135H103V136H100V139H99V133ZM100 139H103V140H100V139ZM106 133H107V136H108V137H107V140H106V133ZM108 136V135H110V136H108ZM110 136H111V140H110V136ZM116 133H117V134H116V133ZM115 135H117V139H118V140H115V139H116V136H115V135ZM124 134H126V135H124V134ZM126 135H127V140H126V135ZM124 135V136H123V140H122V135H124ZM131 134H135V140H134V139H131V138H134V135H131V134ZM134 140V141H131V140H134ZM131 138H130V135H131V138ZM147 134H150V135H147V134ZM150 135H151V136H150V135ZM147 135V139H146V135H147ZM147 139H151V140H147V139ZM155 134H158V135H155V134ZM158 135H159V139H158V135ZM158 139V140H155V139H158ZM155 139H154V135H155V139ZM163 134H164V139H163V134ZM164 139H166V140H164V139ZM171 134H172V139H171V134ZM172 139H174V140H172V139ZM179 134H182V135H179V134ZM182 135H183V140H179V139H182V137H179V136H182V135ZM179 139H178V137H179V139ZM186 133H187V135H190V136H187V139H190V140H186V133ZM190 136H191V139H190V136ZM195 134H198V135H195V134ZM198 135H199V139H198V135ZM198 139V140H195V139H198ZM195 139H194V135H195V139ZM203 134H204V135H205V136H204V140H203V134ZM205 135V134H207V135H205ZM211 134H214V135H211V134ZM214 135H215V140H211V139H214V137H211V136H214V135ZM211 139H210V137H211V139ZM219 133H220V135H223V136H220V139H219V133ZM220 139H223V140H220V139ZM228 133H229V134H228V133ZM227 135H229V139H230V140H227V139H228V136H227V135ZM235 134H238V135H235V134ZM238 135H239V139H238V135ZM238 139V140H235V139H238ZM235 139H234V135H235V139ZM244 134H246V135H244V134ZM246 135H247V140H246V135ZM244 135V136H243V140H242V135H244ZM253 138H254V140H253V138ZM253 140V141H252V140H253ZM2 145H3V148H4V149H3V152H2V145ZM4 148V147H6V148H4ZM6 148H7V152H6V148ZM12 145H13V146H12V145ZM11 147H13V151H14V152H11V151H12V148H11V147ZM19 146H23V152H22V151H19V150H22V147H19V146ZM22 152V153H19V152H22ZM19 150H18V147H19V150ZM26 145H27V148H28V149H27V152H26V145ZM28 148V147H30V148H28ZM30 148H31V152H30V148ZM35 146H36V151H35V146ZM36 151H38V152H36V151ZM44 145H45V146H44V145ZM43 147H45V151H46V152H43V151H44V148H43V147ZM51 146H55V152H54V151H51V150H54V147H51V146ZM54 152V153H51V152H54ZM51 150H50V147H51V150ZM58 145H59V148H60V149H59V152H58V145ZM60 148V147H62V148H60ZM62 148H63V152H62V148ZM67 145H68V147H71V148H68V151H67V145ZM68 151H71V152H68V151ZM76 145H77V146H76V145ZM75 147H77V151H78V152H75V151H76V148H75V147ZM84 146H86V147H84V146ZM86 147H87V152H86V147ZM84 147V148H83V152H82V147H84ZM91 146H95V152H94V151H91V150H94V147H91V146ZM94 152V153H91V152H94ZM91 150H90V147H91V150ZM107 145H108V147H111V148H108V151H107V145ZM108 151H111V152H108V151ZM114 145H115V148H116V149H115V152H114V145ZM116 148V147H118V148H116ZM118 148H119V152H118V148ZM123 146H126V147H123V146ZM126 147H127V149H123V151H122V147H123V148H126V147ZM123 151H127V152H123V151ZM139 146H140V147H141V148H140V152H139V146ZM141 147V146H143V147H141ZM148 145H149V146H148V145ZM147 147H149V151H150V152H147V151H148V148H147V147ZM155 146H158V147H155V146ZM158 147H159V148H158V147ZM155 147V151H154V147H155ZM155 151H159V152H155V151ZM162 145H163V148H164V149H163V152H162V145ZM164 148V147H166V148H164ZM166 148H167V152H166V148ZM179 146H182V147H179V146ZM182 147H183V148H182V147ZM179 147V151H178V147H179ZM179 151H183V152H179V151ZM186 146H187V151H186V146ZM187 151H189V152H187V151ZM189 151V150H190V146H191V152H190V151H189ZM195 146H196V151H195V146ZM196 151H198V152H196V151ZM203 145H204V147H207V148H204V151H203V145ZM204 151H207V152H204V151ZM210 146H211V151H210V146ZM211 151H213V152H211V151ZM213 151V150H214V146H215V152H214V151H213ZM219 146H220V147H221V148H220V152H219V146ZM221 147V146H223V147H221ZM227 146H230V147H227V146ZM230 147H231V152H227V151H230V149H227V148H230V147ZM227 151H226V149H227V151ZM235 146H236V151H235V146ZM236 151H238V152H236V151ZM250 145H251V148H252V149H251V152H250V145ZM252 148V147H254V148H252ZM254 148H255V152H254V148ZM259 146H262V147H259V146ZM262 147H263V149H259V151H258V147H259V148H262V147ZM259 151H263V152H259V151ZM267 146H268V147H269V148H268V152H267V146ZM269 147V146H271V147H269ZM276 145H277V146H276V145ZM275 147H277V151H278V152H275V151H276V148H275V147ZM283 145H284V147H287V148H284V151H283V145ZM284 151H287V152H284V151ZM291 146H294V147H291V146ZM294 147H295V152H291V151H294V149H291V148H294V147ZM291 151H290V149H291V151ZM299 146H303V152H302V151H299V150H302V147H299V146ZM302 152V153H299V152H302ZM299 150H298V147H299V150ZM307 146H310V147H307V146ZM310 147H311V149H307V151H306V147H307V148H310V147ZM307 151H311V152H307V151ZM323 146H326V147H323V146ZM326 147H327V151H326V147ZM326 151V152H323V151H326ZM323 151H322V147H323V151ZM332 145H335V146H332V145ZM332 146V148H334V149H332V152H331V149H330V148H331V146H332ZM2 157H6V158H3V160H6V161H3V163H6V164H2V157ZM6 158H7V160H6V158ZM6 161H7V163H6V161ZM11 158H14V159H11V158ZM14 159H15V164H11V163H14V161H11V160H14V159ZM11 163H10V161H11V163ZM20 158H22V159H20V158ZM22 159H23V164H22V159ZM20 159V160H19V164H18V159H20ZM27 158H31V164H30V163H27V162H30V159H27V158ZM30 164V165H27V164H30ZM27 162H26V159H27V162ZM34 158H35V161H36V160H37V161V162H35V164H34V158ZM37 160V159H38V160H37ZM38 159V158H39V159H38ZM37 162H38V163H37V162ZM38 163H39V164H38V163ZM43 158H46V159H43V158ZM46 159H47V163H46V159ZM46 163V164H43V163H46ZM43 163H42V159H43V163ZM50 158H51V161H52V160H53V161V162H51V164H50V158ZM53 160V159H54V160H53ZM54 159V158H55V159H54ZM53 162H54V163H53V162ZM54 163H55V164H54V163ZM61 158H62V160H61V158ZM61 160V161H60V160H61ZM67 158H70V159H67V158ZM67 159V160H66V159H67ZM67 160H70V161H67V160ZM70 161H71V163H70V161ZM70 163V164H67V163H70ZM67 163H66V162H67V163ZM83 158H86V159H83V158ZM86 159H87V160H86V159ZM83 159V163H82V159H83ZM83 163H87V164H83V163ZM91 158H92V159H93V160H92V164H91V158ZM93 159V158H95V159H93ZM99 158H102V159H99V158ZM102 159H103V164H99V163H102V161H99V160H102V159ZM99 163H98V161H99V163ZM108 157H111V158H108V157ZM108 158V160H110V161H108V164H107V161H106V160H107V158H108ZM115 157H116V159H119V160H116V163H115V157ZM116 163H119V164H116V163ZM131 158H134V159H131V158ZM134 159H135V160H134V159ZM131 159V163H130V159H131ZM131 163H135V164H131V163ZM139 158H142V159H139V158ZM142 159H143V163H142V159ZM142 163V164H139V163H142ZM139 163H138V159H139V163ZM146 158H148V159H146V158ZM148 159H149V164H148V159ZM149 159V158H151V159H149ZM151 159H152V164H151V159ZM146 159V164H145V159H146ZM154 158H156V159H154V158ZM156 159H157V164H156V159ZM157 159V158H159V159H157ZM159 159H160V164H159V159ZM154 159V164H153V159H154ZM162 158H163V163H162V158ZM163 163H165V164H163V163ZM165 163V162H166V158H167V164H166V163H165ZM172 158H174V159H172V158ZM174 159H175V164H174V159ZM172 159V160H171V164H170V159H172ZM180 157H181V158H180V157ZM179 159H181V163H182V164H179V163H180V160H179V159ZM187 157H188V159H191V160H188V163H187V157ZM188 163H191V164H188V163ZM196 157H197V158H196V157ZM195 159H197V163H198V164H195V163H196V160H195V159ZM203 158H206V159H203V158ZM206 159H207V161H203V163H202V159H203V160H206V159ZM203 163H207V164H203V163ZM211 158H214V159H211V158ZM211 159V160H210V159H211ZM211 160H214V161H211V160ZM214 161H215V163H214V161ZM214 163V164H211V163H214ZM211 163H210V162H211V163ZM227 158H230V159H227V158ZM230 159H231V164H227V163H230V161H227V160H230V159ZM227 163H226V161H227V163ZM236 158H238V159H236V158ZM238 159H239V164H238V159ZM236 159V160H235V164H234V159H236ZM246 157H247V164H243V163H246V160H243V159H246V157ZM243 163H242V160H243V163ZM259 157H260V159H263V160H260V163H259V157ZM260 163H263V164H260V163ZM266 157H267V160H268V161H267V164H266V157ZM268 160V159H270V160H268ZM270 160H271V164H270V160ZM275 158H278V159H275V158ZM278 159H279V161H275V163H274V159H275V160H278V159ZM275 163H279V164H275V163ZM284 157H285V158H284V157ZM283 159H285V163H286V164H283V163H284V160H283V159ZM291 158H292V159H293V160H292V164H291V158ZM293 159V158H295V159H293ZM4 169H5V170H4V169ZM3 171H5V175H6V176H3V175H4V172H3V171ZM12 170H14V171H12V170ZM14 171H15V176H14V171ZM12 171V172H11V176H10V171H12ZM20 170H22V171H20V170ZM22 171H23V176H22V171ZM20 171V172H19V176H18V171H20ZM27 170H30V171H27V170ZM30 171H31V175H30V171ZM30 175V176H27V175H30ZM27 175H26V171H27V175ZM34 170H35V173H34V170ZM35 173H36V175H35V173ZM36 175H37V176H36V175ZM37 175V173H38V175H37ZM38 173V170H39V173H38ZM43 170H46V171H43V170ZM46 171H47V176H43V175H46V173H43V172H46V171ZM43 175H42V173H43V175ZM51 169H52V171H55V172H52V175H51V169ZM52 175H55V176H52V175ZM60 169H61V170H60V169ZM59 171H61V175H62V176H59V175H60V172H59V171ZM66 170H67V173H66V170ZM67 173H68V175H67V173ZM68 175H69V176H68V175ZM69 175V173H70V175H69ZM70 173V170H71V173H70ZM75 170H78V171H75V170ZM78 171H79V173H75V175H74V171H75V172H78V171ZM75 175H79V176H75V175ZM91 170H94V171H93V176H92V171H91V170ZM92 176V177H91V176H92ZM99 170H102V171H99V170ZM102 171H103V175H102V171ZM102 175V176H99V175H102ZM99 175H98V171H99V175ZM106 170H107V175H106V170ZM107 175H109V176H107V175ZM109 175V174H110V170H111V176H110V175H109ZM115 170H116V171H117V172H116V176H115V170ZM117 171V170H119V171H117ZM124 170H126V171H124V170ZM126 171H127V176H126V171ZM124 171V172H123V176H122V171H124ZM131 170H134V171H131V170ZM134 171H135V173H131V175H130V171H131V172H134V171ZM131 175H135V176H131V175ZM139 170H140V173H139V170ZM140 173H142V175H141V174H140V173ZM142 173V170H143V173H142ZM141 175V176H139V175H141ZM155 169H156V171H159V172H156V175H155V169ZM156 175H159V176H156V175ZM163 170H166V171H163V170ZM166 171H167V175H166V171ZM166 175V176H163V175H166ZM163 175H162V171H163V175ZM175 170H176V175H175V170ZM175 175V176H173V175H175ZM173 175H172V171H173V175ZM172 175V176H171V175H172ZM171 175H170V171H171V175ZM179 170H182V171H179V170ZM182 171H183V176H179V175H182V173H179V172H182V171ZM179 175H178V173H179V175ZM187 170H188V171H189V172H188V176H187V170ZM189 171V170H191V171H189ZM198 169H199V176H195V175H198V172H195V171H198V169ZM195 175H194V172H195V175ZM203 170H206V171H203V170ZM203 171V172H202V171H203ZM203 172H206V173H203V172ZM206 173H207V175H206V173ZM206 175V176H203V175H206ZM203 175H202V174H203V175ZM219 170H220V171H221V172H220V176H219V170ZM221 171V170H223V171H221ZM227 170H230V171H227V170ZM230 171H231V173H227V175H226V171H227V172H230V171ZM227 175H231V176H227V175ZM235 170H238V171H237V176H236V171H235V170ZM236 176V177H235V176H236ZM242 170H243V175H242V170ZM243 175H245V176H243V175ZM245 175V174H246V170H247V176H246V175H245ZM250 170H251V173H250V170ZM251 173H252V175H251V173ZM252 175H253V176H252V175ZM253 175V173H254V175H253ZM254 173V170H255V173H254ZM259 170H262V171H259V170ZM262 171H263V173H259V175H258V171H259V172H262V171ZM259 175H263V176H259V175ZM268 170H270V171H268V170ZM270 171H271V176H270V171ZM268 171V172H267V176H266V171H268ZM275 170H278V171H275V170ZM278 171H279V176H275V175H278V173H275V172H278V171ZM275 175H274V173H275V175ZM283 169H284V171H287V172H284V175H283V169ZM284 175H287V176H284V175ZM292 169H293V170H292V169ZM291 171H293V175H294V176H291V175H292V172H291V171ZM299 170H302V171H299V170ZM302 171H303V175H302V171ZM302 175V176H299V175H302ZM299 175H298V171H299V175ZM308 170H310V171H308V170ZM310 171H311V176H310V171ZM308 171V172H307V176H306V171H308ZM316 175H317V176H316V175Z" fill="black"/>
</svg>
