<svg width="1004" height="778" viewBox="0 0 1004 778" fill="none" xmlns="http://www.w3.org/2000/svg">
<path d="M753.5 128.5C762 113.666 770.3 82.3999 739.5 81.9999C701 81.4999 428 223.5 407.5 224.5C388.058 225.448 385.5 217.166 386.5 215.5" stroke="#27CF37" stroke-width="2"/>
<path d="M166.001 438C132.501 438.5 68.8005 450.5 82.0005 494.5C98.5005 549.5 198 609 200.5 642C202.5 668.4 238.667 675.333 256.5 675.5" stroke="#FFA866" stroke-width="2"/>
<path d="M263.5 677C284.667 725.334 432.1 741.5 492.5 683.5C568 611 713.5 609.318 731 612.5C739.5 614.046 754.8 621 768 621C784.5 621 805 596.5 812.5 592C818.5 588.4 824.667 588.167 827 588.5" stroke="#FFA867" stroke-width="2"/>
<path d="M975 665.5C986.333 663.833 1005.6 657.2 992 644C975 627.5 839.5 637 819 624C798.5 611 790 593 795 582.5C799 574.1 818 569 827 567.5" stroke="#E4DE49" stroke-width="2"/>
<path d="M975 433C977.333 432 988.999 438 992.5 442C1003 453.999 1010.5 465.5 984 482C957.5 498.5 815 517 797.5 534C783.5 547.6 811.333 576 827 588.5" stroke="#E4DE49" stroke-width="2"/>
<path d="M381.5 209.5C370 203.5 340.5 194.2 314.5 205C282 218.5 274.825 218 268.5 218C251 218 240.668 202.667 244.001 200.5" stroke="#AB76CB" stroke-width="2"/>
<path d="M544.5 10.2236C558.833 4.55697 584.5 -7.07647 588.5 9.72353C593.5 30.7235 560 74.7234 564 103.223C567.2 126.023 584 134.057 592 135.223" stroke="#DA9DFF" stroke-width="2"/>
<path d="M544.5 10.5002C550.5 7.6669 564.2 3.70024 571 10.5002C579.5 19.0002 541.5 70.5002 551 108C560.5 145.5 589.437 205.575 571 223.5C553 241 400.833 294.333 390 292.5" stroke="#DA9DFF" stroke-width="2"/>
<path d="M390 293C395.333 293.5 449.904 281.5 460 281.5C465 281.5 535.5 280.5 537 300C538.5 319.5 553 316.5 563.5 328.5C574 340.5 569.5 379.5 576 391.5C581.2 401.1 589 405.167 592 406" stroke="#27CF37" stroke-width="2"/>
<path d="M603.5 411C655 422.5 660.979 422.681 675.5 430.5C688.5 437.5 713.833 481.333 714 484" stroke="#27CF37" stroke-width="2"/>
<path d="M538.499 215.5C537.166 219 535.299 227 538.499 231C542.499 236 545 237.5 546.5 243.5C548 249.5 536 266.5 530 276C524 285.5 493.501 314.5 516 354C538.499 393.5 542.5 389.5 542.5 412C542.5 418.45 539.333 481.833 539 484" stroke="#DA9DFF" stroke-width="2"/>
<path d="M383 285.5C369.666 282.666 310.098 264.989 319.999 240.5C329.5 217 356.999 230.5 374.499 228.5C387.173 227.051 386.166 216 385.999 215" stroke="#FFA866" stroke-width="2"/>
<path d="M713.5 732.5C710.498 775 764.5 783 761.999 772.5C747.552 711.857 792.499 713.5 792.499 713.5C737.538 696.012 816.499 673 826.499 665.5" stroke="#FFA8CD" stroke-width="2"/>
<path d="M759 406C762.333 410.333 770.9 418.3 778.5 415.5C788 412 790.5 398.5 803.5 404C816.5 409.5 812.968 419.499 828.5 419.499C842 419.499 876.5 415.5 897.5 404C910.664 396.791 936.5 401.5 947 407C951.767 409.497 968.167 423.666 968.5 426.5" stroke="#42D550" stroke-width="2"/>
<path d="M540 732.5C541 764 487.1 765.6 485.5 734C483.5 694.5 484 637 477.5 630.5C439.802 592.803 432.5 670.167 427.5 673" stroke="#FFA8CD" stroke-width="2"/>
<path d="M381 11.9999C372 7.66655 349.7 2.39988 332.5 15.9999C311 32.9999 292 19 269.5 19C251.5 19 245.5 31.1667 244 34" stroke="#AB76CB" stroke-width="2"/>
<path d="M242.5 451.5C244.167 448.166 249.7 442.2 258.5 445C267.3 447.8 268.167 459.5 267.5 465" stroke="#FFA866" stroke-width="2"/>
<path d="M35.0001 458C16.3334 457.833 -14.3999 450.2 12.0001 421C45.0001 384.5 115 382 118 349C121 316 120 303.5 133.5 297.5C144.3 292.7 160 292.167 166.5 292.5" stroke="#FFA866" stroke-width="2"/>
<path d="M388.5 434C396.833 432.666 414.6 432.5 419 442.5C423.4 452.5 423.833 461 423.5 464" stroke="#FFA866" stroke-width="2"/>
</svg>
